<svg xmlns="http://www.w3.org/2000/svg" viewBox="0 0 16 12.8"><path d="M6.4 6.5c.2.2.4.2.6 0l.3-.3c.2-.2.2-.4 0-.6l-1-.8.9-.9c.2-.2.2-.4 0-.6l-.3-.2c-.2-.2-.4-.2-.6 0L4.9 4.5c-.2.2-.2.4 0 .6l1.5 1.4zm2.4-.2l.3.3c.2.2.4.2.6 0l1.5-1.5c.2-.2.2-.4 0-.6L9.6 3.1c-.2-.2-.4-.2-.6 0l-.2.2c-.2.2-.2.4 0 .6l.9.9-.9.9c-.2.1-.2.4 0 .6zm6.8 4.1H9.5c0 .5-.4.8-.8.8H7.2c-.5 0-.8-.4-.8-.8h-6c-.2 0-.4.2-.4.4v.4c0 .9.7 1.6 1.6 1.6h12.8c.9 0 1.6-.7 1.6-1.6v-.4c0-.2-.2-.4-.4-.4zm-1.2-9.2c0-.7-.5-1.2-1.2-1.2H2.8c-.7 0-1.2.5-1.2 1.2v8.4h12.8V1.2zM12.8 8H3.2V1.6h9.6V8z" fill="#8c8060"/></svg>