<svg version="1.1" id="レイヤー_1" xmlns="http://www.w3.org/2000/svg" x="0" y="0" viewBox="0 0 24.2 24.3" xml:space="preserve"><style>.st1{fill:none}.st2{fill:#f5c0c6}.st3{fill:#e55979}.st4{fill:#f0a6b0}.st6{fill:#f9d9db}.st7{fill:#e8758b}.st8{fill:#e2396a}.st10{fill:#fff}</style><g opacity=".7"><path class="st1" d="M.6 9.4c0-.2-.1-.4-.1-.6-.1 0-.2 0-.3.1-.3.2-.2.7-.2.9v.2c.1-.2.3-.5.6-.6zM3.5 9.6c-.1-.1-.1-.1 0 0 0 0 0 .1.1.1l-.1-.1zM1.4 19.4c-.1.1-.1.2-.2.3-.1.2 0 .4.1.5.1-.3.1-.6.1-.8z"/><path class="st2" d="M8 21.7c-.1-1.2 1.1-2.4-.3-3.6.2-.4-.6-.7.3-.9 0-.9 0-1.8-.1-2.6-.8-.1-1-.7-.4-1.5 1.3-1-1-1.1-.8-2.1-.2-.2-.2-.4-.2-.6h-.2c-.2 0-.3-.1-.5-.1l-.6-.3s-.1 0-.1-.1c0 .3-.4.7-1.3.8 0-.3-.1-.7-.2-1 0 0 0-.1-.1-.1l-.1-.1-1.8-.6H.5c0 .2.1.4.1.6.7.3.4.9-.1 1.8l.1.1c.6.6 1.4.9 2.2 1.1.2 0 .4 0 .6.1.1 0 .2.1.4.1h1.1c.5.1 1.1.2 1.7.2-.8.1-1.5.2-2.3.5-.1 0-.2.1-.3.1-.1 0-.2 0-.3.1 0 .8 0 1.5.1 2.3-.3 0-.7.1-1 .1l.9.9c.1 0 .2 0 .3-.1l-.1.1c-.1 0-.1.1-.2.1 0 .8 0 1.6.1 2.3-.1.3-.3.6-.2.8l.6-.3c.5-.3.9-1 1.4-1.5v1.8c-.1.2-.3.4-.4.6-.1.1-.1.3-.1.4-.1.3-.3.7-.3 1 .1.3.6.3.8.4.6.2 1.1.1 1.7-.1.1-.2.5-.4.7-.7zM3.1 5.6c.2-.4.4-.8.6-1.1-.3-.1-.6-.2-1-.3v-.3c0-.1.1-.3.1-.4-.2 0-.4.1-.5.2-.1.2-.2.4-.2.7 0 .2.1.5.2.7.1.2.2.4.4.5l.3.6c0 .1.2.3.3.4-.1-.3-.2-.5-.2-.7v-.3zM5.7 8.4c-.1 0-.2.1-.3.2l.8.8c.1.2.3.3.4.5.1-.5 0-1-.9-1.5z"/><path class="st3" d="M20.7 10.7h.2v-.3c-.1 0-.1.1-.2.3z"/><path class="st3" d="M12.7 1.9c.2.3.6.4-.1 1.2 0 .3 0 .6-.1.9.2.5.3 1 .4 1.5.7.8 1.1 1.7.3 3.5-.2.3.2.7-.1.9.1.4.3.9.4 1.3.2.5.5 1 .7 1.5-.1.9.8 1.2.3 2.6.2.5.3.9.4 1.3.3.7.3 1.1.6 1.8 0 .2-.1.4-.1.6.6.7 1 1.5 1.5 2.2.1.1.2.2.3.2.2.2.6.5.8.6.3 0 .5-.5.7-.7.4-.5.4-1 .4-1.6-.1-.9-.5-1.5-1.1-2.1-.1-.2-.3-.2-.5-.4-.1-.1-.1-.2-.2-.3-.3-.2-.6-.4-.9-.7-.4-.4-.8-.8-1.2-1.1.7.4 1.4.7 2.1 1 .1 0 .2.1.3.1.2.1.4.2.6.2.5.1 1 .3 1.5.5s1 .1 1.4-.4c.2-.3.5-.6.6-1-.1-.1-.1-.2-.2-.3 0-.1.1-.1.2-.2-.1-.2-.2-.2-.4-.4-.4-.3-.9-.6-1.3-.9.1 0 .2.1.2.1.2 0 .2-.1.3-.1h.3v-.1c.6-.4 1-.9 1.6-1.7v-.5l-1.5-.3c-.3 0-.5.1-.8.1v.1c-.1.2.4.3-.3 1-.1-.3-.5-.3-1.2-.8v-.3h.3-.7l-.1-.2h.1c.3 0 .5-.1.8-.2h.1c-.1-.4-.5-.6-.5-1.1 0-.2-.1-.6.6-.6.3-.6-.1-.8-.6-1.1h-.1c-.1 0-.2 0-.4.1-.3.2-.6.4-1 .5-.1.3-.4.4-.6.5l-.2-.1c.4-.3.8-.7 1.2-1.1.1-.1.1-.2.3-.2.2-.1.3-.3.4-.4.1-.2.3-.3.4-.5 0-.8-.2-1.7 0-2.4.1-.4-.1-.6-.5-.7-.1 0-.2.1-.3.2-.2.1-.5.3-.7.4v-.4c0-.1 0-.3.1-.4-.6 0-1.3 0-1.8-.1-.2-.4.7-.6 1.1-.8-.1-.2-.1-.4-.2-.6h-.1c-.2.1-.4.2-.6.4-.1.2-.3.3-.4.5-.2.1-.3.3-.5.4-.3.3-.4.8-.6 1.2.1-.3.1-.7.1-1.1 0-.5.1-1 .1-1.6 0-.3 0-.5-.1-.7-.1-.3-.2-.9-.6-.9-.2 0-.5.2-.6.4l-.5.5-.2.2v.5c.1.1.2.1.4.1zM14.5 22.3v.3c0 .2.4.4.7.6 0 .2 0 .5-.1.7.1-.1.2-.2.2-.4.1-.2.1-.5.1-.7 0-.2-.1-.4-.1-.6v-.6c0-.2-.1-.5-.2-.7-.1.2-.3.4-.4.6 0 .3-.1.6-.2.8z"/><path class="st4" d="M3.6 9.8c.1.3.2.7.2 1 .8-.2 1.2-.5 1.2-.8-.2-.1-.4-.1-.6-.1l-.9-.3s0 .1.1.1c-.1 0 0 0 0 .1z"/><path class="st4" d="M7.6 13.2c-.6.8-.4 1.3.4 1.5 0 .8.1 1.7.1 2.6-.9.2-.1.5-.3.9 1.4 1.2.2 2.4.3 3.6.3-.3.5-.6.7-1 .1-.2.1-.4.2-.6l.2-.4c.1-.3.2-.7.4-1 .1-.1.1-.2.2-.3l.3.2c0 .3-.1.6-.1.9v.3c0 .2-.1.4 0 .6.1.5 0 1.1 0 1.6 0 .6.3 1 .8 1.2h.1c.1-.3.2-.6.4-1 0-.3-.1-.7-.1-1-1.2-1.2.2-1.2.1-2-.6-3.2-1.1-5.9-.6-9.3-.5-.5-1-1.3-1.4-1.9 0-.3 0-.5.1-.7-.4-.2-1.5-.1-1.1-.6-.1-.7-.2-1.5-.3-2.3h-.5c.3-.8-.3-1.3.6-1.6-.1-.5-.7-1-1.2-1.6-.1.2-.2.3-.3.5-.1.2-.2.4-.3.5-.2.4 0 1.1.1 1.5v.8c0 .6.2 1.2.4 1.7l.6 1.2c.1.3.3.6.5 1s.5.8.7 1.2l-.1.1c-.3-.3-.5-.6-.8-1-.5-.6-.9-1.4-1.2-2.1-.2-.6-.1-.4-.3-.6-.1-.1-.2-.1-.3-.2-.1-.1-.1-.2 0-.3-.1-.1-.2-.1-.3-.2-.2-.1-.3-.3-.4-.5-.2-.3-.4-.6-.7-.7-.1-.1-.2-.1-.4-.2-.4-.1-.7-.5-1.1-.6h-.1c0 .1-.1.3-.1.4.4.2.7.4 1 .6-.3.4-.5.8-.7 1.2 0 .4.1.7.2 1 .4.4 1 .7 1.4 1.1.2.3.4.6.7.9.1-.1.2-.2.3-.2.9.6 1 1 .9 1.5.3.3.6.7 1 1l-.4.3c-.1-.2-.2-.2-.2-.3-.1-.1-.1-.2-.2-.3h-.2c0 .2.1.4.2.6-.2.9 2.1 1 .8 2z"/><path class="st4" d="M3.1 5.9c0 .2.1.5.2.7-.1-.4-.1-.7-.2-1v.3zM3.7 4.4c-.3-.2-.6-.4-1-.6v.3c.4.1.7.2 1 .3zM3.6 9.8s0-.1-.1-.1l.1.1z"/><path d="M7.5 4.5H8c.1.8.2 1.5.4 2.3-.5.5.6.4.9.7 0 .2 0 .5-.1.7.4.6.9 1.4 1.4 1.9-.5 3.4 0 6.1.6 9.3 0 .8-1.3.8-.1 2 0 .3.1.7.1 1-.2.4-.3.7-.4 1 .4.1.7.3 1.1.2.4-.1.5-.3.6-.6.1-.4.2-.8.4-1.1.1.3.1.7.3 1l.3.3c.2.2.3.5.5.7v-.3l.6-.9v-.3h-.3c-.1-.8-.2-1.6-.3-2.5v-3.2c-.1-.3-.8-.5-.5-.9.1-.2.2-.5.3-.7-.2-.9-.4-1.7-.6-2.6.1-.5.3-1 .4-1.4-.1-.5-.3-.9-.4-1.3.3-.2-.1-.5.1-.9.8-1.7.5-2.6-.3-3.5-.1-.5-.2-1-.4-1.5 0-.3 0-.6.1-.9-.2-.1-.5-.1-.7-.2.1-.3.2-.7.3-1v-.5c-.3.4-.4 1-.6 1.4 0 .1-.1.2-.2.3-.1.2-.1.5-.2.8-.2 1-.3 2.1-.3 3.1h-.2l-.1-.3c0-.2-.1-.5-.1-.7 0-.3-.1-.6-.1-.8-.1-.4-.3-.6-.5-.9 0-.5-.2-.9-.4-1.3-.2-.6-.4-1.2-.5-1.7 0-.1 0-.2-.1-.3-.1 0-.2 0-.3-.1.1-.1.2-.1.3-.2-.1-.2-.3-.4-.5-.5-.3-.2-.7-.1-.9.1-.3.2-.4.6-.6.9 0 .1-.1.2-.1.3.5.5 1.1 1 1.2 1.5-1 .3-.4.8-.6 1.6z" fill="#ec8f9e"/><path class="st6" d="M2.7 15.8c.3-.1.7-.1 1-.1 0-.8 0-1.5-.1-2.3-.1 0-.2.1-.3.1-.5.2-1 .3-1.5.5s-.9.5-.9 1.1c0 .5-.1.9.2 1.3.3.3.4.4.8.3H3.6l-.9-.9zM3.7 19.2c0-.8-.1-1.6-.1-2.3h-.1c-.1.1-.1.2-.2.3-.2.2-.4.3-.6.4-.3.2-.6.4-.8.7-.1.1-.1.2-.1.4-.1.3-.3.5-.5.8 0 .3 0 .6-.1.9l.1.1c.2.2.5.3.8.2.2 0 .5-.1.7-.2.2-.1.4-.2.5-.3.1-.5.2-.8.4-1zM23.2 9.6c.1-.2 0-.4-.1-.5 0 .2 0 .4.1.5 0 .1 0 .1 0 0zM22.6 12c.3 0 .7.1 1 .2 0 .3 0 .6-.1.8v.4c.2 0 .3-.1.5-.2s.3-.4.3-.6c0-.3-.2-.5-.4-.7-.2-.1-.4-.3-.6-.3-.2 0-.4-.1-.6-.1l-.1.5zM.6 9.4c-.3.1-.5.4-.6.6 0 .4.2.8.5 1.2.5-.9.8-1.5.1-1.8z"/><path class="st7" d="M15 16.4c-.1-.4-.3-.9-.4-1.3.5-1.4-.3-1.7-.3-2.6-.2-.5-.5-1-.7-1.5-.1.5-.2 1-.4 1.4.2.9.4 1.7.6 2.6-.1.2-.2.5-.3.7-.3.4.4.6.5.9v3.2c.1.8.2 1.6.3 2.5h.3l.3-.9c.1-.1.3-.3.4-.6-.2-.5-.5-1-.6-1.4-.1-.3-.1-.7-.3-1-.1-.3-.2-.5-.3-.8l.3-.5.2.2.3.6c.1.2.3.4.5.6 0 .1.1.1.1.2 0-.2.1-.4.1-.6-.4-.6-.4-1-.6-1.7zM23.6 12.1c-.3-.1-.7-.1-1-.2-.6.8-1.1 1.2-1.6 1.7v.1c.1 0 .3 0 .4.1.3.1.7.1 1 0 .1 0 .2-.1.4-.2s.5-.2.8-.2V13c-.1-.3-.1-.6 0-.9zM21.8 15.4v-.1c0-.2 0-.3-.1-.4l-.2.2c.2.1.2.2.3.3z"/><path class="st8" d="M15.4 3.4c.5 0 1.2 0 1.8.1.1-.3.2-.6.2-.9 0-.3-.2-.4-.4-.5-.2-.1-.5-.1-.7 0 .1.2.1.4.2.6-.4.1-1.3.3-1.1.7zM18.8 11.7c.8.5 1.1.4 1.2.8.7-.7.3-.8.3-1v-.1c-.2 0-.5.1-.7.1h-.5c-.1 0-.2.1-.3.2zM19.3 9.3c-.6 0-.6.3-.6.6 0 .5.4.7.5 1.1l1.5-.3c.1-.1.1-.2.2-.3 0-.4-.1-.9-.1-1.3.1-.2.2-.5.3-.7v-.6c-.7-.1-1.3 0-1.9.2-.2 0-.4.1-.5.1.4.3.8.6.6 1.2zM18.6 4.3c-.2.8 0 1.6 0 2.4l.7-.7c.4-.4.5-.9.2-1.4-.2-.4-.4-.8-.8-1-.2-.1-.4-.1-.5-.1.3.2.5.4.4.8zM19.1 11.4h-.3v.3l.3-.3z"/><path class="st7" d="M22.1 8.6l-1.3.4c0 .4.1.9.1 1.3v.3c.4-.1.7-.1 1.1-.2.1 0 .3-.2.4-.2.2-.1.6-.3.8-.5 0-.2 0-.4-.1-.6-.1-.1-.2-.2-.2-.3-.3-.5-.7-.8-1.3-1-.2-.1-.3-.1-.5-.1v.6c.3.1.6.2 1 .3zM22.6 11.5c-.3-.1-.5-.1-.7-.2-.3-.1-.5 0-.8 0 .5 0 1 .1 1.5.2zM12.7 1.9h-.5c-.1.3-.2.7-.3 1 .3 0 .5.1.7.2.7-.8.3-.9.1-1.2zM9 .8V.6c-.1 0-.1.1-.2.2H9z"/><path class="st3" d="M21.1 8.3c-.1.2-.2.5-.3.7l1.3-.4c-.4-.1-.7-.2-1-.3z"/><path class="st7" d="M14.5 22.6l-.6.9v.3l.3.3c.2.2.4.2.6.1.1-.1.2-.1.3-.2 0-.2 0-.5.1-.7-.2-.3-.7-.4-.7-.7z"/><g><path d="M13.2 13.5c0 .1.2.2.2.4v.4c-.1.1.1.4 0 .5-.1.1-.5-.3-.6-.2-.1.1-.2.1-.3.1h-.3c-.1 0-.2.8-.3.8-.1 0-.1-.9-.2-.9s-.6.7-.7.6c-.1-.1 0-.5-.1-.6-.1-.1.1-.4 0-.5-.1-.1-.5 0-.5-.1s-.1-.3-.1-.4c0-.1-.2-.3-.2-.4 0-.1 0-.4.1-.5 0-.1.1-.3.2-.4.1-.1.7.3.8.2.1-.1-.4-.9-.3-1 .1-.1.4 0 .5 0 .1 0 .3.4.5.4.1 0 .2-.6.4-.5.1 0 .2.2.4.3.1 0 0 .6.1.6.1.1.3-.1.4 0 .1.1.2.1.2.2.1.1-.1.3 0 .4 0 .1-.1.2 0 .3-.2.1-.2.1-.2.3z" fill="#c8cd23"/><path class="st10" d="M11.4 12.3l-.7-1.6.1-.1.8 1.7z"/><path class="st10" d="M10.9 10.2c0 .3-.1.5-.3.5-.2 0-.3-.2-.3-.5s.1-.5.3-.5c.1 0 .3.2.3.5zM13.2 15.5c0 .3-.1.5-.3.5-.2 0-.3-.2-.3-.5s.1-.5.3-.5c.1.1.3.3.3.5zM14.6 14.3c.2.2.2.4.1.6-.1.1-.4 0-.6-.1-.2-.2-.2-.4-.1-.6.2-.2.4-.1.6.1zM9.4 11.7c.2.2.2.4.1.6-.1.1-.4.1-.6-.1-.2-.2-.2-.4-.1-.6.2-.2.4-.1.6.1zM12.6 12.6h-.1l1.3-2 .1.1zM12.3 12.3h-.1l.4-1.7.1.1zM11.2 12.6l-1.4-1.7h.1l1.3 1.6z"/><path class="st10" d="M10.7 12.8c-.1-.1-.8-.5-1.3-.6v-.1c.2 0 1.3.5 1.3.7zM9.4 14.3h-.1C9.6 13.7 11 13 11 13l.1.1c0-.1-1.4.6-1.7 1.2z"/><path class="st10" d="M8.9 13.9v-.2l2.1.2v.1zM11.6 15.9h-.1l.3-1.8.1.1zM12.9 12.7l-.1-.1 1.5-1.2.1.1z"/><path transform="rotate(-26.501 13.742 12.461)" class="st10" d="M12.6 12.4h2.3v.1h-2.3z"/><path class="st10" d="M13.9 14.2l-1.4-1 .1-.1 1.4 1zM12.7 15.2l-.3-1.6h.1l.3 1.6zM10 10.8c0 .1-.1.2-.3.2-.1 0-.2-.1-.2-.3 0-.1.1-.2.3-.2.2.1.3.2.2.3zM9 13.8c0 .1-.2.2-.3.2-.1 0-.2-.1-.2-.3 0-.1.1-.2.3-.2.1.1.2.2.2.3zM11.7 16.1c0 .1-.1.2-.3.2-.1 0-.2-.1-.2-.3 0-.1.1-.2.3-.2.1.1.2.2.2.3zM9.5 14.4c0 .1-.1.2-.3.2-.1 0-.2-.1-.2-.3 0-.1.1-.2.3-.2.1.1.2.2.2.3zM12.9 10.6c0 .1-.1.2-.3.2-.1 0-.2-.1-.2-.3 0-.1.1-.2.3-.2.1 0 .2.1.2.3zM14.3 10.4c-.1.2-.3.3-.4.2-.1-.1-.1-.3 0-.5.1-.1.3-.2.4-.1.1 0 .1.3 0 .4zM14.6 11.5c-.2.2-.3.2-.4.1-.1-.1 0-.3.1-.5.2-.2.3-.2.4-.2.1.2.1.4-.1.6z"/></g></g></svg>