<?xml version="1.0" encoding="utf-8"?>
<!-- Generator: Adobe Illustrator 23.0.3, SVG Export Plug-In . SVG Version: 6.00 Build 0)  -->
<svg version="1.1" id="レイヤー_1" focusable="false"
	 xmlns="http://www.w3.org/2000/svg" xmlns:xlink="http://www.w3.org/1999/xlink" x="0px" y="0px" viewBox="0 0 16 12.4"
	 style="enable-background:new 0 0 16 12.4;" xml:space="preserve">
<style type="text/css">
	.st0{fill:#8C8060;}
</style>
<path class="st0" d="M7.8,3.2L2.7,7.4V12c0,0.2,0.2,0.4,0.4,0.4l3.1,0c0.2,0,0.4-0.2,0.4-0.4V9.3c0-0.2,0.2-0.4,0.4-0.4h1.8
	c0.2,0,0.4,0.2,0.4,0.4V12c0,0.2,0.2,0.4,0.4,0.4c0,0,0,0,0,0l3.1,0c0.2,0,0.4-0.2,0.4-0.4V7.4L8.2,3.2C8.1,3.1,7.9,3.1,7.8,3.2
	L7.8,3.2z M15.9,6.1l-2.3-1.9V0.3c0-0.2-0.1-0.3-0.3-0.3h-1.6c-0.2,0-0.3,0.1-0.3,0.3v2l-2.5-2c-0.5-0.4-1.2-0.4-1.7,0l-7,5.8
	C0,6.2,0,6.4,0.1,6.6c0,0,0,0,0,0l0.7,0.9c0.1,0.1,0.3,0.2,0.5,0c0,0,0,0,0,0l6.5-5.4C7.9,2,8.1,2,8.2,2.1l6.5,5.4
	c0.1,0.1,0.4,0.1,0.5,0c0,0,0,0,0,0l0.7-0.9C16,6.4,16,6.2,15.9,6.1C15.9,6.1,15.9,6.1,15.9,6.1L15.9,6.1z"/>
</svg>
