<?xml version="1.0" encoding="utf-8"?>
<!-- Generator: Adobe Illustrator 23.0.3, SVG Export Plug-In . SVG Version: 6.00 Build 0)  -->
<svg version="1.1" id="レイヤー_1" focusable="false"
	 xmlns="http://www.w3.org/2000/svg" xmlns:xlink="http://www.w3.org/1999/xlink" x="0px" y="0px" viewBox="0 0 16 12.8"
	 style="enable-background:new 0 0 16 12.8;" xml:space="preserve">
<style type="text/css">
	.st0{fill:#8C8060;}
</style>
<path class="st0" d="M6.4,6.5c0.2,0.2,0.4,0.2,0.6,0l0.3-0.3c0.2-0.2,0.2-0.4,0-0.6L6.3,4.8l0.9-0.9c0.2-0.2,0.2-0.4,0-0.6L6.9,3.1
	c-0.2-0.2-0.4-0.2-0.6,0L4.9,4.5c-0.2,0.2-0.2,0.4,0,0.6L6.4,6.5z M8.8,6.3l0.3,0.3c0.2,0.2,0.4,0.2,0.6,0l1.5-1.5
	c0.2-0.2,0.2-0.4,0-0.6L9.6,3.1c-0.2-0.2-0.4-0.2-0.6,0L8.8,3.3c-0.2,0.2-0.2,0.4,0,0.6l0.9,0.9L8.8,5.7C8.6,5.8,8.6,6.1,8.8,6.3
	L8.8,6.3z M15.6,10.4H9.5c0,0.5-0.4,0.8-0.8,0.8H7.2c-0.5,0-0.8-0.4-0.8-0.8h-6c-0.2,0-0.4,0.2-0.4,0.4v0.4c0,0.9,0.7,1.6,1.6,1.6
	h12.8c0.9,0,1.6-0.7,1.6-1.6v-0.4C16,10.6,15.8,10.4,15.6,10.4z M14.4,1.2c0-0.7-0.5-1.2-1.2-1.2H2.8C2.1,0,1.6,0.5,1.6,1.2v8.4
	h12.8V1.2z M12.8,8H3.2V1.6h9.6V8z"/>
</svg>
