<?xml version="1.0" encoding="utf-8"?>
<!-- Generator: Adobe Illustrator 23.0.3, SVG Export Plug-In . SVG Version: 6.00 Build 0)  -->
<svg version="1.1" id="レイヤー_1" focusable="false"
	 xmlns="http://www.w3.org/2000/svg" xmlns:xlink="http://www.w3.org/1999/xlink" x="0px" y="0px" viewBox="0 0 16 18.3"
	 style="enable-background:new 0 0 16 18.3;" xml:space="preserve">
<style type="text/css">
	.st0{fill:#8C8060;}
</style>
<path class="st0" d="M8,9.1c2.5,0,4.6-2,4.6-4.6S10.5,0,8,0S3.4,2,3.4,4.6S5.5,9.1,8,9.1z M11.2,10.3h-0.6c-0.8,0.4-1.7,0.6-2.6,0.6
	s-1.8-0.2-2.6-0.6H4.8c-2.7,0-4.8,2.2-4.8,4.8v1.5c0,0.9,0.8,1.7,1.7,1.7h12.6c0.9,0,1.7-0.8,1.7-1.7v-1.5
	C16,12.4,13.8,10.3,11.2,10.3z"/>
</svg>
