<?xml version="1.0" encoding="utf-8"?>
<!-- Generator: Adobe Illustrator 23.0.3, SVG Export Plug-In . SVG Version: 6.00 Build 0)  -->
<svg version="1.1" id="レイヤー_1" xmlns="http://www.w3.org/2000/svg" xmlns:xlink="http://www.w3.org/1999/xlink" x="0px"
	 y="0px" viewBox="0 0 24.2 24.3" style="enable-background:new 0 0 24.2 24.3;" xml:space="preserve">
<style type="text/css">
	.st0{opacity:0.7;}
	.st1{fill:none;}
	.st2{fill:#F5C0C6;}
	.st3{fill:#E55979;}
	.st4{fill:#F0A6B0;}
	.st5{fill:#EC8F9E;}
	.st6{fill:#F9D9DB;}
	.st7{fill:#E8758B;}
	.st8{fill:#E2396A;}
	.st9{fill:#C8CD23;}
	.st10{fill:#FFFFFF;}
</style>
<g class="st0">
	<g>
		<path class="st1" d="M0.6,9.4c0-0.2-0.1-0.4-0.1-0.6c-0.1,0-0.2,0-0.3,0.1C-0.1,9.1,0,9.6,0,9.8C0,9.9,0,10,0,10
			C0.1,9.8,0.3,9.5,0.6,9.4z"/>
		<path class="st1" d="M3.5,9.6C3.4,9.5,3.4,9.5,3.5,9.6c0,0,0,0.1,0.1,0.1C3.5,9.6,3.5,9.6,3.5,9.6z"/>
		<path class="st1" d="M1.4,19.4c-0.1,0.1-0.1,0.2-0.2,0.3c-0.1,0.2,0,0.4,0.1,0.5C1.4,19.9,1.4,19.6,1.4,19.4z"/>
		<path class="st2" d="M8,21.7c-0.1-1.2,1.1-2.4-0.3-3.6c0.2-0.4-0.6-0.7,0.3-0.9c0-0.9,0-1.8-0.1-2.6c-0.8-0.1-1-0.7-0.4-1.5
			c1.3-1-1-1.1-0.8-2.1c-0.2-0.2-0.2-0.4-0.2-0.6c-0.1,0-0.2,0-0.2,0c-0.2,0-0.3-0.1-0.5-0.1c-0.2-0.1-0.4-0.2-0.6-0.3c0,0,0,0,0,0
			c0,0-0.1,0-0.1-0.1c0,0.3-0.4,0.7-1.3,0.8c0-0.3-0.1-0.7-0.2-1c0,0,0-0.1-0.1-0.1c0,0-0.1-0.1-0.1-0.1C2.8,9.3,2.2,9.1,1.6,8.9
			c-0.1,0-0.3,0-0.4,0c-0.2,0-0.5,0-0.7,0c0,0.2,0.1,0.4,0.1,0.6c0.7,0.3,0.4,0.9-0.1,1.8c0,0,0.1,0.1,0.1,0.1
			C1.2,12,2,12.3,2.8,12.5c0.2,0,0.4,0,0.6,0.1c0.1,0,0.2,0.1,0.4,0.1c0.4,0,0.7,0,1.1,0c0.5,0.1,1.1,0.2,1.7,0.2
			c-0.8,0.1-1.5,0.2-2.3,0.5c-0.1,0-0.2,0.1-0.3,0.1c-0.1,0-0.2,0-0.3,0.1c0,0.8,0,1.5,0.1,2.3c-0.3,0-0.7,0.1-1,0.1
			c0.3,0.3,0.6,0.6,0.9,0.9c0.1,0,0.2,0,0.3-0.1c0,0-0.1,0.1-0.1,0.1c-0.1,0-0.1,0.1-0.2,0.1c0,0.8,0,1.6,0.1,2.3
			c-0.1,0.3-0.3,0.6-0.2,0.8c0.2-0.1,0.4-0.2,0.6-0.3c0.5-0.3,0.9-1,1.4-1.5c0,0.2,0,0.5,0,0.7c0,0.3,0,0.6,0,0.9c0,0.1,0,0.1,0,0.2
			c-0.1,0.2-0.3,0.4-0.4,0.6c-0.1,0.1-0.1,0.3-0.1,0.4c-0.1,0.3-0.3,0.7-0.3,1c0.1,0.3,0.6,0.3,0.8,0.4c0.6,0.2,1.1,0.1,1.7-0.1
			C7.4,22.2,7.8,22,8,21.7z"/>
		<path class="st2" d="M3.1,5.6c0.2-0.4,0.4-0.8,0.6-1.1c-0.3-0.1-0.6-0.2-1-0.3c0-0.1,0-0.2,0-0.3c0-0.1,0.1-0.3,0.1-0.4
			c-0.2,0-0.4,0.1-0.5,0.2C2.2,3.9,2.1,4.1,2.1,4.4c0,0.2,0.1,0.5,0.2,0.7c0.1,0.2,0.2,0.4,0.4,0.5C2.8,5.8,2.9,6,3,6.2
			C3,6.3,3.2,6.5,3.3,6.6C3.2,6.3,3.1,6.1,3.1,5.9C3.1,5.7,3.1,5.6,3.1,5.6z"/>
		<path class="st2" d="M5.7,8.4C5.6,8.4,5.5,8.5,5.4,8.6c0.3,0.3,0.5,0.5,0.8,0.8c0.1,0.2,0.3,0.3,0.4,0.5C6.7,9.4,6.6,8.9,5.7,8.4z
			"/>
		<path class="st3" d="M20.7,10.7c0.1,0,0.1,0,0.2,0c0-0.1,0-0.2,0-0.3C20.8,10.4,20.8,10.5,20.7,10.7z"/>
		<path class="st3" d="M12.7,1.9c0.2,0.3,0.6,0.4-0.1,1.2c0,0.3,0,0.6-0.1,0.9c0.2,0.5,0.3,1,0.4,1.5c0.7,0.8,1.1,1.7,0.3,3.5
			c-0.2,0.3,0.2,0.7-0.1,0.9c0.1,0.4,0.3,0.9,0.4,1.3c0.2,0.5,0.5,1,0.7,1.5c-0.1,0.9,0.8,1.2,0.3,2.6c0.2,0.5,0.3,0.9,0.4,1.3
			c0.3,0.7,0.3,1.1,0.6,1.8c0,0.2-0.1,0.4-0.1,0.6c0.6,0.7,1,1.5,1.5,2.2c0.1,0.1,0.2,0.2,0.3,0.2c0.2,0.2,0.6,0.5,0.8,0.6
			c0.3,0,0.5-0.5,0.7-0.7c0.4-0.5,0.4-1,0.4-1.6c-0.1-0.9-0.5-1.5-1.1-2.1c-0.1-0.2-0.3-0.2-0.5-0.4c-0.1-0.1-0.1-0.2-0.2-0.3
			c-0.3-0.2-0.6-0.4-0.9-0.7c-0.4-0.4-0.8-0.8-1.2-1.1c0.7,0.4,1.4,0.7,2.1,1c0.1,0,0.2,0.1,0.3,0.1c0.2,0.1,0.4,0.2,0.6,0.2
			c0.5,0.1,1,0.3,1.5,0.5c0.5,0.2,1,0.1,1.4-0.4c0.2-0.3,0.5-0.6,0.6-1c-0.1-0.1-0.1-0.2-0.2-0.3c0-0.1,0.1-0.1,0.2-0.2
			c-0.1-0.2-0.2-0.2-0.4-0.4c-0.4-0.3-0.9-0.6-1.3-0.9c0.1,0,0.2,0.1,0.2,0.1c0.2,0,0.2-0.1,0.3-0.1c0.1,0,0.2,0,0.3,0
			c0,0,0,0,0-0.1c0.6-0.4,1-0.9,1.6-1.7l0-0.5c-0.5-0.1-1-0.2-1.5-0.3c-0.3,0-0.5,0.1-0.8,0.1c0,0,0,0.1,0,0.1
			c-0.1,0.2,0.4,0.3-0.3,1c-0.1-0.3-0.5-0.3-1.2-0.8c0-0.1,0-0.2,0-0.3c0.1,0,0.2,0,0.3,0c0,0,0,0,0,0c-0.2,0-0.3,0-0.5,0
			c-0.1,0-0.1,0-0.2,0l-0.1-0.2c0,0,0.1,0,0.1,0c0,0,0,0,0,0c0.3,0,0.5-0.1,0.8-0.2c0,0,0,0,0.1,0c-0.1-0.4-0.5-0.6-0.5-1.1
			c0-0.2-0.1-0.6,0.6-0.6c0.3-0.6-0.1-0.8-0.6-1.1c0,0,0,0-0.1,0c-0.1,0-0.2,0-0.4,0.1c-0.3,0.2-0.6,0.4-1,0.5
			C17,8.9,16.7,9,16.5,9.1L16.3,9c0.4-0.3,0.8-0.7,1.2-1.1c0.1-0.1,0.1-0.2,0.3-0.2c0.2-0.1,0.3-0.3,0.4-0.4
			c0.1-0.2,0.3-0.3,0.4-0.5c0-0.8-0.2-1.7,0-2.4c0.1-0.4-0.1-0.6-0.5-0.7c-0.1,0-0.2,0.1-0.3,0.2c-0.2,0.1-0.5,0.3-0.7,0.4
			c0-0.1,0-0.2,0-0.4c0-0.1,0-0.3,0.1-0.4c-0.6,0-1.3,0-1.8-0.1c-0.2-0.4,0.7-0.6,1.1-0.8c-0.1-0.2-0.1-0.4-0.2-0.6c0,0-0.1,0-0.1,0
			c-0.2,0.1-0.4,0.2-0.6,0.4c-0.1,0.2-0.3,0.3-0.4,0.5c-0.2,0.1-0.3,0.3-0.5,0.4c-0.3,0.3-0.4,0.8-0.6,1.2c0.1-0.3,0.1-0.7,0.1-1.1
			c0-0.5,0.1-1,0.1-1.6c0-0.3,0-0.5-0.1-0.7c-0.1-0.3-0.2-0.9-0.6-0.9c-0.2,0-0.5,0.2-0.6,0.4c-0.2,0.2-0.3,0.3-0.5,0.5
			c-0.1,0.1-0.1,0.1-0.2,0.2c0,0.2,0,0.4,0,0.5C12.4,1.9,12.5,1.9,12.7,1.9z"/>
		<path class="st3" d="M14.5,22.3c0,0.1,0,0.2,0,0.3c0,0.2,0.4,0.4,0.7,0.6c0,0.2,0,0.5-0.1,0.7c0.1-0.1,0.2-0.2,0.2-0.4
			c0.1-0.2,0.1-0.5,0.1-0.7c0-0.2-0.1-0.4-0.1-0.6c0-0.2,0-0.4,0-0.6c0-0.2-0.1-0.5-0.2-0.7c-0.1,0.2-0.3,0.4-0.4,0.6
			C14.7,21.8,14.6,22.1,14.5,22.3z"/>
		<path class="st4" d="M3.6,9.8c0.1,0.3,0.2,0.7,0.2,1C4.6,10.6,5,10.3,5,10C4.8,9.9,4.6,9.9,4.4,9.9C4.1,9.8,3.8,9.7,3.5,9.6
			c0,0,0,0.1,0.1,0.1C3.5,9.7,3.6,9.7,3.6,9.8z"/>
		<path class="st4" d="M7.6,13.2C7,14,7.2,14.5,8,14.7c0,0.8,0.1,1.7,0.1,2.6c-0.9,0.2-0.1,0.5-0.3,0.9c1.4,1.2,0.2,2.4,0.3,3.6
			c0.3-0.3,0.5-0.6,0.7-1c0.1-0.2,0.1-0.4,0.2-0.6C9.1,20,9.1,20,9.2,19.8c0.1-0.3,0.2-0.7,0.4-1c0.1-0.1,0.1-0.2,0.2-0.3l0.3,0.2
			c0,0.3-0.1,0.6-0.1,0.9c0,0.1,0,0.2,0,0.3c0,0.2-0.1,0.4,0,0.6c0.1,0.5,0,1.1,0,1.6c0,0.6,0.3,1,0.8,1.2c0,0,0.1,0,0.1,0
			c0.1-0.3,0.2-0.6,0.4-1c0-0.3-0.1-0.7-0.1-1c-1.2-1.2,0.2-1.2,0.1-2c-0.6-3.2-1.1-5.9-0.6-9.3c-0.5-0.5-1-1.3-1.4-1.9
			c0-0.3,0-0.5,0.1-0.7C9,7.2,7.9,7.3,8.3,6.8C8.2,6.1,8.1,5.3,8,4.5c-0.2,0-0.3,0-0.5,0c0.3-0.8-0.3-1.3,0.6-1.6
			C8,2.4,7.4,1.9,6.9,1.3C6.8,1.5,6.7,1.6,6.6,1.8C6.5,2,6.4,2.2,6.3,2.3C6.1,2.7,6.3,3.4,6.4,3.8c0,0.3,0,0.5,0,0.8
			c0,0.6,0.2,1.2,0.4,1.7C7,6.7,7.2,7.1,7.4,7.5c0.1,0.3,0.3,0.6,0.5,1c0.2,0.4,0.5,0.8,0.7,1.2L8.5,9.8c-0.3-0.3-0.5-0.6-0.8-1
			C7.2,8.2,6.8,7.4,6.5,6.7C6.3,6.1,6.4,6.3,6.2,6.1C6.1,6,6,6,5.9,5.9c-0.1-0.1-0.1-0.2,0-0.3C5.8,5.5,5.7,5.5,5.6,5.4
			C5.4,5.3,5.3,5.1,5.2,4.9C5,4.6,4.8,4.3,4.5,4.2C4.4,4.1,4.3,4.1,4.1,4C3.7,3.9,3.4,3.5,3,3.4c0,0-0.1,0-0.1,0
			c0,0.1-0.1,0.3-0.1,0.4c0.4,0.2,0.7,0.4,1,0.6C3.5,4.8,3.3,5.2,3.1,5.6c0,0.4,0.1,0.7,0.2,1c0.4,0.4,1,0.7,1.4,1.1
			C4.9,8,5.1,8.3,5.4,8.6c0,0,0,0,0,0c0.1-0.1,0.2-0.2,0.3-0.2c0.9,0.6,1,1,0.9,1.5c0.3,0.3,0.6,0.7,1,1l-0.4,0.3
			C7.1,11,7,11,7,10.9c-0.1-0.1-0.1-0.2-0.2-0.3c0,0-0.1,0-0.2,0c0,0.2,0.1,0.4,0.2,0.6C6.6,12.1,8.9,12.2,7.6,13.2z"/>
		<path class="st4" d="M3.1,5.9c0,0.2,0.1,0.5,0.2,0.7c0,0,0,0,0,0c-0.1-0.4-0.1-0.7-0.2-1C3.1,5.6,3.1,5.7,3.1,5.9z"/>
		<path class="st4" d="M3.7,4.4C3.4,4.2,3.1,4,2.7,3.8c0,0.1,0,0.2,0,0.3C3.1,4.2,3.4,4.3,3.7,4.4z"/>
		<path class="st4" d="M3.6,9.8c0,0,0-0.1-0.1-0.1C3.5,9.7,3.5,9.7,3.6,9.8z"/>
		<path class="st5" d="M7.5,4.5c0.2,0,0.4,0,0.5,0c0.1,0.8,0.2,1.5,0.4,2.3C7.9,7.3,9,7.2,9.3,7.5c0,0.2,0,0.5-0.1,0.7
			c0.4,0.6,0.9,1.4,1.4,1.9c-0.5,3.4,0,6.1,0.6,9.3c0,0.8-1.3,0.8-0.1,2c0,0.3,0.1,0.7,0.1,1c-0.2,0.4-0.3,0.7-0.4,1
			c0.4,0.1,0.7,0.3,1.1,0.2c0.4-0.1,0.5-0.3,0.6-0.6c0.1-0.4,0.2-0.8,0.4-1.1c0.1,0.3,0.1,0.7,0.3,1c0.1,0.1,0.2,0.2,0.3,0.3
			c0.2,0.2,0.3,0.5,0.5,0.7c0-0.1,0-0.2,0-0.3c0.2-0.3,0.4-0.6,0.6-0.9c0-0.1,0-0.2,0-0.3c-0.1,0-0.2,0-0.3,0
			c-0.1-0.8-0.2-1.6-0.3-2.5c0-1.1,0-2.1,0-3.2c-0.1-0.3-0.8-0.5-0.5-0.9c0.1-0.2,0.2-0.5,0.3-0.7c-0.2-0.9-0.4-1.7-0.6-2.6
			c0.1-0.5,0.3-1,0.4-1.4c-0.1-0.5-0.3-0.9-0.4-1.3c0.3-0.2-0.1-0.5,0.1-0.9c0.8-1.7,0.5-2.6-0.3-3.5c-0.1-0.5-0.2-1-0.4-1.5
			c0-0.3,0-0.6,0.1-0.9c-0.2-0.1-0.5-0.1-0.7-0.2c0.1-0.3,0.2-0.7,0.3-1c0-0.2,0-0.4,0-0.5c-0.3,0.4-0.4,1-0.6,1.4
			c0,0.1-0.1,0.2-0.2,0.3c-0.1,0.2-0.1,0.5-0.2,0.8c-0.2,1-0.3,2.1-0.3,3.1l-0.2,0l-0.1-0.3l0,0c0-0.2-0.1-0.5-0.1-0.7
			c0-0.3-0.1-0.6-0.1-0.8c-0.1-0.4-0.3-0.6-0.5-0.9C10,3.7,9.8,3.3,9.6,2.9C9.4,2.3,9.2,1.7,9.1,1.2c0-0.1,0-0.2-0.1-0.3
			c-0.1,0-0.2,0-0.3-0.1C8.8,0.7,8.9,0.7,9,0.6C8.9,0.4,8.7,0.2,8.5,0.1C8.2-0.1,7.8,0,7.6,0.2C7.3,0.4,7.2,0.8,7,1.1
			c0,0.1-0.1,0.2-0.1,0.3C7.4,1.9,8,2.4,8.1,2.9C7.1,3.2,7.7,3.7,7.5,4.5z"/>
		<path class="st6" d="M2.7,15.8c0.3-0.1,0.7-0.1,1-0.1c0-0.8,0-1.5-0.1-2.3c-0.1,0-0.2,0.1-0.3,0.1c-0.5,0.2-1,0.3-1.5,0.5
			c-0.5,0.2-0.9,0.5-0.9,1.1c0,0.5-0.1,0.9,0.2,1.3c0.3,0.3,0.4,0.4,0.8,0.3c0.5,0,1.1,0,1.6,0c0,0,0.1,0,0.1,0
			C3.3,16.4,3,16.1,2.7,15.8z"/>
		<path class="st6" d="M3.7,19.2c0-0.8-0.1-1.6-0.1-2.3c0,0,0,0-0.1,0c-0.1,0.1-0.1,0.2-0.2,0.3c-0.2,0.2-0.4,0.3-0.6,0.4
			c-0.3,0.2-0.6,0.4-0.8,0.7c-0.1,0.1-0.1,0.2-0.1,0.4c-0.1,0.3-0.3,0.5-0.5,0.8c0,0.3,0,0.6-0.1,0.9c0,0,0.1,0.1,0.1,0.1
			c0.2,0.2,0.5,0.3,0.8,0.2c0.2,0,0.5-0.1,0.7-0.2c0.2-0.1,0.4-0.2,0.5-0.3c0,0,0,0,0,0C3.4,19.7,3.5,19.4,3.7,19.2z"/>
		<path class="st6" d="M23.2,9.6c0.1-0.2,0-0.4-0.1-0.5C23.1,9.3,23.1,9.5,23.2,9.6C23.2,9.7,23.2,9.7,23.2,9.6z"/>
		<path class="st6" d="M22.6,12c0.3,0,0.7,0.1,1,0.2c0,0.3,0,0.6-0.1,0.8l0,0.4c0.2,0,0.3-0.1,0.5-0.2c0.2-0.1,0.3-0.4,0.3-0.6
			c0-0.3-0.2-0.5-0.4-0.7c-0.2-0.1-0.4-0.3-0.6-0.3c-0.2,0-0.4-0.1-0.6-0.1c0,0,0,0,0,0L22.6,12z"/>
		<path class="st6" d="M0.6,9.4C0.3,9.5,0.1,9.8,0,10c0,0.4,0.2,0.8,0.5,1.2C1,10.3,1.3,9.7,0.6,9.4z"/>
		<path class="st7" d="M15,16.4c-0.1-0.4-0.3-0.9-0.4-1.3c0.5-1.4-0.3-1.7-0.3-2.6c-0.2-0.5-0.5-1-0.7-1.5c-0.1,0.5-0.2,1-0.4,1.4
			c0.2,0.9,0.4,1.7,0.6,2.6c-0.1,0.2-0.2,0.5-0.3,0.7c-0.3,0.4,0.4,0.6,0.5,0.9c0,1.1,0,2.1,0,3.2c0.1,0.8,0.2,1.6,0.3,2.5
			c0.1,0,0.2,0,0.3,0c0.1-0.3,0.2-0.6,0.3-0.9c0.1-0.1,0.3-0.3,0.4-0.6c-0.2-0.5-0.5-1-0.6-1.4c-0.1-0.3-0.1-0.7-0.3-1
			c-0.1-0.3-0.2-0.5-0.3-0.8l0.3-0.5c0.1,0.1,0.1,0.1,0.2,0.2c0.1,0.2,0.2,0.4,0.3,0.6c0,0,0,0,0,0c0.1,0.2,0.3,0.4,0.5,0.6
			c0,0.1,0.1,0.1,0.1,0.2c0-0.2,0.1-0.4,0.1-0.6C15.2,17.5,15.2,17.1,15,16.4z"/>
		<path class="st7" d="M23.6,12.1c-0.3-0.1-0.7-0.1-1-0.2c-0.6,0.8-1.1,1.2-1.6,1.7c0,0,0,0,0,0.1c0.1,0,0.3,0,0.4,0.1
			c0.3,0.1,0.7,0.1,1,0c0.1,0,0.2-0.1,0.4-0.2c0.2-0.1,0.5-0.2,0.8-0.2l0-0.4C23.5,12.7,23.5,12.4,23.6,12.1z"/>
		<path class="st7" d="M21.8,15.4c0,0,0-0.1,0-0.1c0-0.2,0-0.3-0.1-0.4c-0.1,0.1-0.1,0.1-0.2,0.2C21.7,15.2,21.7,15.3,21.8,15.4z"/>
		<path class="st8" d="M15.4,3.4c0.5,0,1.2,0,1.8,0.1c0.1-0.3,0.2-0.6,0.2-0.9c0-0.3-0.2-0.4-0.4-0.5c-0.2-0.1-0.5-0.1-0.7,0
			c0.1,0.2,0.1,0.4,0.2,0.6C16.1,2.8,15.2,3,15.4,3.4z"/>
		<path class="st8" d="M18.8,11.7c0.8,0.5,1.1,0.4,1.2,0.8c0.7-0.7,0.3-0.8,0.3-1c0,0,0-0.1,0-0.1c-0.2,0-0.5,0.1-0.7,0.1
			c-0.2,0-0.4,0-0.5,0c0,0,0,0,0,0C19,11.5,18.9,11.6,18.8,11.7z"/>
		<path class="st8" d="M19.3,9.3c-0.6,0-0.6,0.3-0.6,0.6c0,0.5,0.4,0.7,0.5,1.1c0.5-0.1,1-0.2,1.5-0.3c0.1-0.1,0.1-0.2,0.2-0.3
			c0-0.4-0.1-0.9-0.1-1.3c0.1-0.2,0.2-0.5,0.3-0.7c0-0.2,0-0.4,0-0.6c-0.7-0.1-1.3,0-1.9,0.2C19,8,18.8,8.1,18.7,8.1
			C19.1,8.4,19.5,8.7,19.3,9.3z"/>
		<path class="st8" d="M18.6,4.3c-0.2,0.8,0,1.6,0,2.4c0.2-0.2,0.5-0.5,0.7-0.7c0.4-0.4,0.5-0.9,0.2-1.4c-0.2-0.4-0.4-0.8-0.8-1
			c-0.2-0.1-0.4-0.1-0.5-0.1C18.5,3.7,18.7,3.9,18.6,4.3z"/>
		<path class="st8" d="M19.1,11.4c-0.1,0-0.2,0-0.3,0c0,0.1,0,0.2,0,0.3C18.9,11.6,19,11.5,19.1,11.4z"/>
		<path class="st7" d="M22.1,8.6L20.8,9c0,0.4,0.1,0.9,0.1,1.3c0,0.1,0,0.2,0,0.3c0.4-0.1,0.7-0.1,1.1-0.2c0.1,0,0.3-0.2,0.4-0.2
			c0.2-0.1,0.6-0.3,0.8-0.5c0-0.2,0-0.4-0.1-0.6C23,9,22.9,8.9,22.9,8.8c-0.3-0.5-0.7-0.8-1.3-1c-0.2-0.1-0.3-0.1-0.5-0.1
			c0,0.2,0,0.4,0,0.6C21.4,8.4,21.7,8.5,22.1,8.6z"/>
		<path class="st7" d="M22.6,11.5C22.6,11.5,22.6,11.5,22.6,11.5c-0.3-0.1-0.5-0.1-0.7-0.2c-0.3-0.1-0.5,0-0.8,0
			C21.6,11.3,22.1,11.4,22.6,11.5C22.6,11.5,22.6,11.5,22.6,11.5z"/>
		<path class="st7" d="M12.7,1.9c-0.2,0-0.3,0-0.5,0c-0.1,0.3-0.2,0.7-0.3,1c0.3,0,0.5,0.1,0.7,0.2C13.3,2.3,12.9,2.2,12.7,1.9z"/>
		<path class="st7" d="M9,0.8C9,0.8,9,0.7,9,0.6c-0.1,0-0.1,0.1-0.2,0.2C8.9,0.8,9,0.8,9,0.8z"/>
		<path class="st3" d="M21.1,8.3C21,8.5,20.9,8.8,20.8,9l1.3-0.4C21.7,8.5,21.4,8.4,21.1,8.3z"/>
		<path class="st7" d="M14.5,22.6c-0.2,0.3-0.4,0.6-0.6,0.9c0,0.1,0,0.2,0,0.3c0.1,0.1,0.2,0.2,0.3,0.3c0.2,0.2,0.4,0.2,0.6,0.1
			c0.1-0.1,0.2-0.1,0.3-0.2c0-0.2,0-0.5,0.1-0.7C15,23,14.5,22.9,14.5,22.6z"/>
	</g>
	<g>
		<path class="st9" d="M13.2,13.5c0,0.1,0.2,0.2,0.2,0.4c0,0.1,0,0.3,0,0.4c-0.1,0.1,0.1,0.4,0,0.5c-0.1,0.1-0.5-0.3-0.6-0.2
			c-0.1,0.1-0.2,0.1-0.3,0.1c-0.1,0-0.2,0-0.3,0c-0.1,0-0.2,0.8-0.3,0.8c-0.1,0-0.1-0.9-0.2-0.9c-0.1,0-0.6,0.7-0.7,0.6
			c-0.1-0.1,0-0.5-0.1-0.6c-0.1-0.1,0.1-0.4,0-0.5c-0.1-0.1-0.5,0-0.5-0.1c0-0.1-0.1-0.3-0.1-0.4c0-0.1-0.2-0.3-0.2-0.4
			c0-0.1,0-0.4,0.1-0.5c0-0.1,0.1-0.3,0.2-0.4c0.1-0.1,0.7,0.3,0.8,0.2c0.1-0.1-0.4-0.9-0.3-1c0.1-0.1,0.4,0,0.5,0
			c0.1,0,0.3,0.4,0.5,0.4c0.1,0,0.2-0.6,0.4-0.5c0.1,0,0.2,0.2,0.4,0.3c0.1,0,0,0.6,0.1,0.6c0.1,0.1,0.3-0.1,0.4,0
			c0.1,0.1,0.2,0.1,0.2,0.2c0.1,0.1-0.1,0.3,0,0.4c0,0.1-0.1,0.2,0,0.3C13.2,13.3,13.2,13.3,13.2,13.5z"/>
		<polygon class="st10" points="11.4,12.3 10.7,10.7 10.8,10.6 11.6,12.3 		"/>
		<path class="st10" d="M10.9,10.2c0,0.3-0.1,0.5-0.3,0.5c-0.2,0-0.3-0.2-0.3-0.5c0-0.3,0.1-0.5,0.3-0.5
			C10.7,9.7,10.9,9.9,10.9,10.2z"/>
		<path class="st10" d="M13.2,15.5c0,0.3-0.1,0.5-0.3,0.5c-0.2,0-0.3-0.2-0.3-0.5c0-0.3,0.1-0.5,0.3-0.5
			C13,15.1,13.2,15.3,13.2,15.5z"/>
		<path class="st10" d="M14.6,14.3c0.2,0.2,0.2,0.4,0.1,0.6c-0.1,0.1-0.4,0-0.6-0.1c-0.2-0.2-0.2-0.4-0.1-0.6
			C14.2,14,14.4,14.1,14.6,14.3z"/>
		<path class="st10" d="M9.4,11.7c0.2,0.2,0.2,0.4,0.1,0.6c-0.1,0.1-0.4,0.1-0.6-0.1c-0.2-0.2-0.2-0.4-0.1-0.6
			C9,11.4,9.2,11.5,9.4,11.7z"/>
		<polygon class="st10" points="12.6,12.6 12.5,12.6 13.8,10.6 13.9,10.7 		"/>
		<polygon class="st10" points="12.3,12.3 12.2,12.3 12.6,10.6 12.7,10.7 		"/>
		<polygon class="st10" points="11.2,12.6 9.8,10.9 9.9,10.9 11.2,12.5 		"/>
		<path class="st10" d="M10.7,12.8c-0.1-0.1-0.8-0.5-1.3-0.6l0-0.1C9.6,12.1,10.7,12.6,10.7,12.8L10.7,12.8z"/>
		<path class="st10" d="M9.4,14.3l-0.1,0c0.3-0.6,1.7-1.3,1.7-1.3l0.1,0.1C11.1,13,9.7,13.7,9.4,14.3z"/>
		<polygon class="st10" points="8.9,13.9 8.9,13.7 11,13.9 11,14 		"/>
		<polygon class="st10" points="11.6,15.9 11.5,15.9 11.8,14.1 11.9,14.2 		"/>
		<polygon class="st10" points="12.9,12.7 12.8,12.6 14.3,11.4 14.4,11.5 		"/>
		
			<rect x="12.6" y="12.4" transform="matrix(0.8949 -0.4462 0.4462 0.8949 -4.1164 7.4408)" class="st10" width="2.3" height="0.1"/>
		<polygon class="st10" points="13.9,14.2 12.5,13.2 12.6,13.1 14,14.1 		"/>
		<polygon class="st10" points="12.7,15.2 12.4,13.6 12.5,13.6 12.8,15.2 		"/>
		<path class="st10" d="M10,10.8c0,0.1-0.1,0.2-0.3,0.2c-0.1,0-0.2-0.1-0.2-0.3c0-0.1,0.1-0.2,0.3-0.2C10,10.6,10.1,10.7,10,10.8z"
			/>
		<path class="st10" d="M9,13.8C9,13.9,8.8,14,8.7,14c-0.1,0-0.2-0.1-0.2-0.3c0-0.1,0.1-0.2,0.3-0.2C8.9,13.6,9,13.7,9,13.8z"/>
		<path class="st10" d="M11.7,16.1c0,0.1-0.1,0.2-0.3,0.2c-0.1,0-0.2-0.1-0.2-0.3c0-0.1,0.1-0.2,0.3-0.2
			C11.6,15.9,11.7,16,11.7,16.1z"/>
		<path class="st10" d="M9.5,14.4c0,0.1-0.1,0.2-0.3,0.2c-0.1,0-0.2-0.1-0.2-0.3c0-0.1,0.1-0.2,0.3-0.2C9.4,14.2,9.5,14.3,9.5,14.4z
			"/>
		<path class="st10" d="M12.9,10.6c0,0.1-0.1,0.2-0.3,0.2c-0.1,0-0.2-0.1-0.2-0.3c0-0.1,0.1-0.2,0.3-0.2
			C12.8,10.3,12.9,10.4,12.9,10.6z"/>
		<path class="st10" d="M14.3,10.4c-0.1,0.2-0.3,0.3-0.4,0.2c-0.1-0.1-0.1-0.3,0-0.5C14,10,14.2,9.9,14.3,10
			C14.4,10,14.4,10.3,14.3,10.4z"/>
		<path class="st10" d="M14.6,11.5c-0.2,0.2-0.3,0.2-0.4,0.1c-0.1-0.1,0-0.3,0.1-0.5c0.2-0.2,0.3-0.2,0.4-0.2
			C14.8,11.1,14.8,11.3,14.6,11.5z"/>
	</g>
</g>
</svg>
