<?xml version="1.0" encoding="utf-8"?>
<!-- Generator: Adobe Illustrator 23.0.3, SVG Export Plug-In . SVG Version: 6.00 Build 0)  -->
<svg version="1.1" id="レイヤー_1" xmlns="http://www.w3.org/2000/svg" xmlns:xlink="http://www.w3.org/1999/xlink" x="0px"
	 y="0px" viewBox="0 0 24.4 24.6" style="enable-background:new 0 0 24.4 24.6;" xml:space="preserve">
<style type="text/css">
	.st0{opacity:0.7;}
	.st1{fill:none;}
	.st2{fill:#FBE2B5;}
	.st3{fill:#F9D797;}
	.st4{fill:#F6C363;}
	.st5{fill:#F8CE7F;}
	.st6{fill:#FDEDD1;}
	.st7{fill:#F4B946;}
	.st8{fill:#C8CD23;}
	.st9{fill:#FFFFFF;}
</style>
<g class="st0">
	<g>
		<path class="st1" d="M10.3,0.7c0.4,0,0.8,0,1.2-0.1c-0.1-0.2-0.1-0.5-0.3-0.6c-0.3-0.2-0.7,0.1-0.9,0.2c0,0-0.1,0-0.1,0
			C10.2,0.4,10.3,0.5,10.3,0.7z"/>
		<path class="st1" d="M7.7,13c-0.1,0-0.2,0-0.3,0C7.6,13,7.7,13,7.7,13z"/>
		<path class="st2" d="M8.8,3.9c0,0.2,0.1,0.4,0.2,0.6c0,0.2,0,0.2,0,0.4c0.1,0.4,0.3,0.7,0.4,1.1c0.1,0.6,0.3,1.1,0.4,1.7
			C9.4,6.9,9,6.2,8.5,5.6C8.4,5.5,8.4,5.4,8.3,5.3C8.2,5.1,8.1,4.9,7.9,4.8c-0.4-0.4-0.7-0.8-1-1.3C6.6,3,6.1,2.8,5.5,3
			C5.1,3.2,4.6,3.3,4.4,3.7c-0.2,0.4-0.2,0.5,0,0.9c0.2,0.5,0.4,1,0.6,1.6C5,6.3,5,6.4,5.1,6.5C5.1,6.5,5,6.4,5,6.4
			C4.9,6.4,4.8,6.3,4.8,6.2c-0.1-0.1-0.2,0-0.3-0.1C4.3,6,4.1,5.8,3.9,5.7C3.6,5.5,3.3,5.3,3,5.2c-0.1,0-0.3,0-0.4,0
			C2.2,5.2,1.7,5,1.3,5C1,5,0.8,5.2,0.7,5.4C0.7,5.7,0.7,6,0.8,6.3C0.9,6.5,1,6.7,1.2,6.9C1.4,7,1.6,7.1,1.7,7.3
			C1.9,7.4,2,7.6,2.2,7.7c0.5,0.4,1.3,0.5,1.9,0.8C3.9,8.6,3.6,8.7,3.4,8.8C3.1,8.9,2.8,9,2.5,9.1c-0.1,0-0.1,0.1-0.2,0.1
			C2.1,9.1,1.9,9.1,1.6,9C1.5,9,1.3,9,1.2,9c-0.3,0-0.8-0.1-1,0.1c-0.3,0.2-0.1,0.7-0.1,0.9c0,0.6,0.3,1.1,0.7,1.5
			c0.2,0.2,0.3,0.3,0.5,0.4c0.8-0.1,1.6-0.6,1.8-1.4c0.1,0,0.1,0,0.2,0c0.4,0.6,0.8,1.1,1,1.3c0.2-0.2,0.5-0.4,0.7-0.6
			c0.2,0.1,0.4,0.2,0.6,0.2c0.7,0.1-0.3-1.2,1-0.8c0.1,0,0.2,0,0.3,0c0-0.2-0.1-0.3-0.1-0.5l0.3,0c0.3,0.2,0.5,0.4,0.8,0.5
			c0.5,0.3,0.1-1.2,1.6-0.4c0.1-0.1,0.2-0.2,0.3-0.3c0.3,0-0.2-0.9,0.9-0.5c0.3,0,0.7,0.1,1,0.2c0.2,0,0.4,0,0.7,0
			c0.3-0.3,0.2-1.5,1.1-0.8C14.6,8.5,16,8.3,17.4,8c0-0.6,0-1.2,0-1.8c0.1-0.3,0-1.1,0.5-0.8c0.2,0.3,0.4,0.5,0.8,1.1
			c0.2,0.2,0.5,0.5,0.7,0.7C19.7,7,20.1,7,20.2,5.5c0.1-1,0.4-1.5,1-1.8c-0.3,0-0.5-0.1-0.8-0.1c-0.2,0-0.4-0.1-0.7-0.2
			c-0.5,0-1,0.5-1.4,0.7c-0.2,0.1-0.5,0.2-0.7,0.3c-0.5,0.2-1.1,0.6-1.5,1c-0.3,0.4-0.6,0.7-0.9,1.1c-0.3,0.2-0.5,0.5-0.8,0.8
			c-0.3,0.4-0.6,0.8-0.9,1.1l-0.2,0C13.6,8,13.8,7.6,14,7.3c0.5-0.7,1.1-1.3,1.7-1.9c0.4-0.4,0.3-0.2,0.4-0.5c0-0.1,0.1-0.2,0.1-0.3
			c0.1-0.1,0.1-0.1,0.2-0.1c0.1-0.1,0-0.2,0.1-0.3c0.1-0.2,0.2-0.4,0.4-0.6c0.2-0.3,0.4-0.6,0.5-0.9c0-0.1,0-0.3,0-0.4
			c0-0.4,0.2-0.9,0.2-1.3c0-0.3-0.2-0.5-0.4-0.5c-0.3-0.1-0.6-0.1-0.8,0.1c-0.2,0.1-0.4,0.3-0.6,0.4c-0.1,0.2-0.3,0.4-0.4,0.5
			c-0.1,0.2-0.3,0.3-0.4,0.5c-0.5,0.6-0.5,1.5-0.8,2.2c-0.1,0.3-0.4,0.6-0.5,1c-0.2,0.4-0.3,0.7-0.5,1.1c-0.3,0.6-0.6,1.2-0.8,1.9
			l-0.4-0.2c0-0.1,0.1-0.3,0.1-0.3C11.9,7.2,12,7.2,12,7c0-0.1-0.1-0.4-0.1-0.5c0-0.2-0.1-0.3-0.1-0.6c0-0.2,0.1-0.5,0.1-0.7
			c0,0,0,0,0,0c0-0.3,0-0.5-0.1-0.8c-0.1-1,0-2-0.1-3c0-0.1-0.1-0.3-0.2-0.4c0-0.1-0.1-0.2-0.1-0.4c-0.4,0-0.8,0-1.2,0.1
			c-0.3-0.1-0.2,0.7-1,0.3C9.2,1.2,9.1,1.3,9,1.4C8.6,2.2,8.6,3,8.8,3.9z"/>
		<path class="st3" d="M6,12.8C6.3,12.9,6.7,13,7,13.1c0.2,0,0.3,0,0.5,0c0.1,0,0.2,0,0.3,0c0.1,0,0.2,0,0.3,0
			c0.1,0.1,0.1,0.2,0.2,0.3c0.6-0.2,0.5-0.7,1.6-0.6c0.1-0.3,0.1-0.7,0.1-1c-0.2-0.4-0.4-0.9-0.7-1.3c-1.4-0.8-1.1,0.6-1.6,0.4
			c-0.2-0.2-0.5-0.3-0.8-0.5c0,0.2-0.1,0.4-0.2,0.6c-0.1,0-0.2,0-0.3,0c-1.2-0.4-0.3,0.9-1,0.8c-0.2,0-0.4-0.1-0.6-0.2
			c-0.2,0.2-0.4,0.4-0.7,0.6c-0.1-0.2-0.6-0.7-1-1.3c-0.1,0-0.1,0-0.2,0C2.9,11.4,2,11.9,1.3,12c0.5,0.3,1.1,0.5,1.8,0.6
			c0.2,0,0.4,0,0.6,0c0.2,0,0.2,0.1,0.4,0.1c0.4,0,0.8-0.1,1.1,0c0.1,0,0.3,0,0.4,0l-0.1,0.4c-0.3,0.1-0.6,0.2-0.9,0.3
			c-0.1,0-0.2,0.1-0.3,0.1c-0.2,0-0.4,0.1-0.6,0.2c-0.5,0.3-1,0.4-1.6,0.6c-0.2,0.1-0.4,0.2-0.5,0.3c0.1,0,0.2,0.1,0.3,0.1
			C3.2,13.9,4.4,14.2,6,12.8z"/>
		<path class="st3" d="M12.6,16.7c0.2,0.2,0.3,0.3,0.5,0.5c0.2-0.3,0.4-0.6,0.6-0.9c0.4,0.2,1-0.5,1.4,0.8c0.3,0,0.5,0,0.8,0
			c-0.2-0.6-0.3-1.3-0.5-1.8c-0.7,0-1.4-0.1-2.1-0.2c-0.3,0.3-0.6,0.6-1,0.9c-0.6-0.2-1.2-0.2-2.5-0.7c-0.5-0.4-1-0.8-1.5-1.2
			c-0.3,0.2-0.7,0.4-1,0.6c-0.3,0.3-0.6,0.7-0.9,1.1c-1.2-0.5-2.8-0.7-3.9,0.2c-0.2-0.3-0.4-0.5-0.7-0.7c-0.4,0-0.3,0.5-0.7,0.5
			c0,0.4,0,0.7,0.2,1c0.3,0.3,0.4,0.3,0.8,0.3C2.7,17,3.1,17,3.5,17c-0.3,0.2-0.6,0.3-0.8,0.6c-0.1,0.1-0.1,0.2-0.2,0.4
			c-0.2,0.4-0.6,0.7-0.7,1.1c-0.1,0.2,0,0.5,0.1,0.6c0,0,0,0,0,0C2,19.8,2.2,19.9,2.3,20C2.4,20,2.6,20,2.7,20C2.9,20,3,20,3.2,20
			c0-0.5-0.1-0.9-0.1-1.4c0.4,0,0.7,0,1-0.6C4.6,18,5,18.1,5.4,18.2c0,0.2,0.1,0.3,0.1,0.5c0.3-0.3,0.6-0.6,0.8-0.9
			c0.3-0.2,0.6-0.4,0.9-0.6c0.2-0.2,0.4-0.4,0.7-0.5l0.5,0.1c0,0.1-0.1,0.1-0.2,0.2c-0.1,0.2-0.3,0.3-0.5,0.5c0,0,0,0,0,0
			c-0.1,0.1-0.2,0.3-0.3,0.5c0.3-0.3,0.6-0.9,1.1-0.2c0.3-0.1,0.9,0.2,1-1.4c0.5,0.2,0.9,0.4,1.4,0.6c0,0,0-0.1,0-0.1
			c0,0.1,0,0.1,0,0.2c0.3,0.1,0.6,0.2,0.9,0.4C12.1,17.1,12.4,16.9,12.6,16.7z"/>
		<path class="st3" d="M6.6,10.2c0.1,0.2,0.1,0.4,0.1,0.5c0.1-0.2,0.1-0.3,0.2-0.6L6.6,10.2z"/>
		<path class="st4" d="M17.4,17.1c-0.5,0.2-0.9,0.4-1.3,0.6c0.2,0.6-0.2,0.6-0.9,0.6c0.1,0.1,0,0.2-0.2,0c0.1,0,0.1,0,0.2,0
			c0-0.1-0.2-0.3-0.3-0.5c-0.1-0.4-0.9-0.3-0.8,0.6c-0.3-0.2-0.5-0.3-0.8-0.5c-0.4,0-0.9,0-1.3,0.1c-0.1,0.4-0.8,0.1-0.7,1.1
			c-0.1,0.1-0.3,0.2-0.4,0.2c0,0,0,0,0,0.1c0,0.1,0,0.2,0,0.4c0,0.2,0,0.4,0,0.6c0.1,0.4,0.1,0.8,0.1,1.2c0.1,0.1,0.2,0.1,0.2,0.2
			c0.1-0.2,0.3-0.5,0.5-0.8c0.2-0.3,0.4-0.6,0.6-0.8c0.3,0.5,0.5,0.7,0.7,1c1.3,0.1,2.1-0.6,3.2-0.9c-0.1-0.1-0.1-0.2-0.2-0.4
			c-0.1-0.3-0.2-0.7-0.3-1.1c0-0.1,0-0.1-0.1-0.2l0.2-0.2c0,0,0,0,0,0.1c0,0,0,0,0,0c0.1,0.3,0.3,0.5,0.5,0.7
			c0.2,0.3,0.4,0.6,0.6,0.9c0.4,0,0.8,0,1.2,0.2c0-0.8,0.9-0.6,1-1.9c0.5,0.4,0.7,0.9,0.9,1c-0.2-0.5-0.5-1-0.8-1.4
			c-0.1-0.2-0.3-0.3-0.5-0.4c-0.1-0.1-0.1-0.2-0.2-0.3c0,0,0,0,0,0c0,0,0,0.1,0,0.1C18.1,17.2,17.7,17.1,17.4,17.1z"/>
		<path class="st4" d="M9.4,19.6c-0.2-1.1-1-0.8-1,0.1c-0.3,0-0.7,0-1,0c-0.2-0.2-0.5-0.3-0.7-0.5c-0.4,0.5-0.7,1-1,1.5
			c-0.1,0.1-0.1,0.3-0.1,0.4c-0.1,0.3-0.3,0.7-0.2,1c0.1,0.2,0.3,0.3,0.5,0.3c0.1-0.3,0.3-0.5,0.6-0.3c0.2,0,0.4,0.2,0.5,0.5
			c0.2,0,0.4-0.1,0.6-0.2c0,0,0-0.1,0-0.1c0-0.5,0.4-0.2,0.6-0.3c0,0,0,0.1,0.1,0.1c0.6-0.4,1-1,1.3-1.6c0.1-0.2,0.1-0.4,0.2-0.6
			c0.1-0.1,0.1-0.2,0.2-0.3c0-0.1,0.1-0.3,0.1-0.4C9.9,19,9.6,19.1,9.4,19.6z"/>
		<path class="st4" d="M22.4,15.7c-0.6,0-1.2,0.1-1.8,0.1c0.1,0.3,0.1,0.5,0.2,0.8c-0.5-0.1-1-0.1-1.6-0.2c-0.1,0-0.3,0-0.4,0
			c0,0,0,0,0.1,0c0.2,0.1,0.4,0.2,0.6,0.3c0.5,0.1,1,0.4,1.5,0.6c0.3,0.1,0.6,0.1,0.8,0.1c0,0,0,0,0-0.1l0.1,0
			c0.1-0.1,0.3-0.2,0.4-0.3c0.3-0.4,0.7-0.7,0.7-1.1c0-0.4-0.1-0.5-0.4-0.8c0,0,0,0,0,0C22.5,15.2,22.4,15.3,22.4,15.7z"/>
		<path class="st5" d="M9.6,16.4c0,1.5-0.7,1.3-1,1.4c-0.5-0.7-0.7-0.1-1.1,0.2c0,0.1-0.1,0.2-0.1,0.2c-0.2,0.4-0.4,0.7-0.7,1
			c0.2,0.2,0.5,0.3,0.7,0.5c0.3,0,0.7,0,1,0c0-0.8,0.8-1.2,1-0.1c0.2-0.4,0.5-0.5,0.7-0.5c0.1-0.2,0.1-0.4,0.2-0.6
			c0.2-0.5,0.4-1,0.6-1.5C10.5,16.8,10,16.6,9.6,16.4z"/>
		<path class="st5" d="M19.3,7.2c-0.3,0.2,0.1,1.1-0.4,1.1c-0.5,0-1-0.1-1.5-0.2c-1.4,0.3-2.7,0.5-4.1,0.8c0.2,0.7-0.3,0.9-0.6,1.6
			c-0.2-0.3-0.3-0.5-0.5-0.8c-0.2,0-0.4,0-0.7,0c0,0.5,0,0.9,0,1.3c-0.1,0-0.2,0-0.3,0c-0.1-0.2-0.3-0.3-0.4-0.5c-0.1,0-0.2,0-0.3,0
			c-0.2-0.2-0.5-0.3-0.8-0.5c-0.1,0.1-0.1,0.2-0.3,0.3c0.2,0.4,0.5,0.9,0.7,1.3c0,0.3,0,0.7-0.1,1c-1.1-0.1-1.1,0.4-1.6,0.6
			C8.1,13.1,7.9,13,7.7,13c-0.1,0-0.2,0-0.3,0c-0.2,0-0.3,0.1-0.5,0c-0.4,0-0.7-0.1-1.1-0.2c-1.6,1.3-2.8,1.1-4.2,1.8
			c-0.1,0-0.2-0.1-0.3-0.1c-0.2,0.2-0.3,0.5-0.3,0.9c0,0.1,0,0.2,0,0.3c0.4-0.1,0.3-0.5,0.7-0.5c0.2,0.2,0.4,0.5,0.7,0.7
			c1.1-0.9,2.7-0.7,3.9-0.2c0.3-0.3,0.6-0.7,0.9-1.1c0.3-0.2,0.7-0.4,1-0.6c0.5,0.4,1,0.8,1.5,1.2c1.3,0.5,1.9,0.5,2.5,0.7
			c0.3-0.3,0.6-0.6,1-0.9c0.7,0.1,1.4,0.2,2.1,0.2c0,0,0.1,0,0.1,0c0-0.2,0.1-0.3,0-0.6c0.1,0,0.1,0,0.2,0c0.3-0.2,0.7-0.4,1-0.5
			c0.9-0.2,1.8-0.3,2.7-0.4c0.3,0,0.6,0,1-0.1c-0.2,0.3-0.4,0.7-0.6,1.1c0,0.1,0.1,0.2,0.1,0.3c-0.2,0.1-0.5,0.2-0.8,0.3
			c-0.4-0.1-0.8-0.1-1.2-0.2c-0.5-0.3-0.5,0.3-0.6,0.7c0.3,0.2,0.7,0.3,1,0.5c0.1,0,0.2,0.1,0.3,0.1c0.2,0,0.3,0,0.4,0
			c0.5,0.1,1,0.1,1.6,0.2c-0.1-0.3-0.1-0.5-0.2-0.8c0.6,0,1.2-0.1,1.8-0.1c0-0.4,0.1-0.6,0.2-0.7c-0.2-0.2-0.4-0.3-0.6-0.5
			c0.1,0,0.2-0.1,0.4-0.1c0.4-0.1,0.9-0.1,1.3-0.3c0.3-0.1,0.4-0.3,0.4-0.6c0-0.3-0.1-0.5-0.3-0.8c-0.2-0.2-0.4-0.3-0.6-0.4
			c-0.2-0.1-0.4-0.1-0.6-0.2c-0.2-0.1-0.4-0.2-0.6-0.3c-0.4-0.1-0.9-0.1-1.3-0.1c0.3-0.1,0.7-0.2,1.1-0.3c0.5-0.1,1-0.3,1.5-0.5
			c0.3-0.1,0.5-0.2,0.7-0.3c0.2-0.2,0.8-0.5,0.7-0.9c-0.1-0.2-0.4-0.4-0.6-0.5c-0.2-0.1-0.4-0.2-0.6-0.3c-0.5-0.3-1.3-0.1-1.8-0.2
			c-0.1,0-0.2,0-0.3,0c-0.3,0-0.6,0.1-0.8,0.1c-1,0.2-2.1,0.5-3.1,0.9l-0.1-0.2l0.3-0.2l0,0c0.2-0.1,0.4-0.2,0.6-0.4
			c0.2-0.1,0.5-0.3,0.7-0.4c0.3-0.2,0.4-0.6,0.7-0.8c0.3-0.3,0.7-0.7,1-1c0.3-0.3,0.8-0.6,1.2-0.9c-0.5-0.1-0.9-0.3-1.4-0.5
			C20.1,7,19.7,7,19.3,7.2z M22.2,13.6c-0.4,0.6-0.9,1.3-1.3,0.1C21.3,13.7,21.7,13.6,22.2,13.6z"/>
		<path class="st5" d="M15.5,15.3c0.2,0.6,0.3,1.3,0.5,1.8c-0.3,0-0.5,0-0.8,0c-1.6-1.2-1.3,0-2,0.1c-0.2-0.2-0.3-0.4-0.5-0.5
			c-0.3,0.2-0.6,0.4-0.8,0.6c-0.3-0.1-0.6-0.3-0.9-0.4c-0.1,0.7-0.1,1.4-0.1,2.2c0.1-0.1,0.3-0.2,0.4-0.2c-0.1-1,0.6-0.6,0.7-1.1
			c0.4,0,0.9,0,1.3-0.1c0.3,0.2,0.5,0.4,0.8,0.5c0-0.9,0.7-1,0.8-0.6c0.1,0.2,0.3,0.4,0.3,0.5c0.6,0,1,0,0.9-0.6
			c0.4-0.2,0.9-0.4,1.3-0.6c0.3,0,0.7,0.1,1.1,0.2c0,0,0-0.1,0-0.1c-0.3-0.2-0.6-0.4-0.8-0.7c-0.2-0.2-0.4-0.4-0.6-0.6
			c-0.5-0.2-1-0.4-1.4-0.5C15.6,15.3,15.5,15.3,15.5,15.3z"/>
		<path class="st5" d="M7.5,13c-0.2,0-0.3,0-0.5,0C7.2,13.1,7.3,13.1,7.5,13z"/>
		<path class="st5" d="M13.7,16.4c-0.2,0.3-0.4,0.6-0.6,0.9c0.6-0.1,0.4-1.3,2-0.1C14.8,15.9,14.2,16.6,13.7,16.4z"/>
		<path class="st5" d="M7.7,13c0.2,0,0.3,0.1,0.5,0.2C8.2,13.2,8.1,13.1,8,13C7.9,13,7.8,13,7.7,13z"/>
		<path class="st5" d="M15.2,18.2c-0.1,0-0.1,0-0.2,0C15.2,18.4,15.3,18.3,15.2,18.2z"/>
		<path class="st6" d="M10.3,0.7c0-0.2-0.1-0.4-0.1-0.4C9.8,0.5,9.5,0.7,9.3,1.1C10.1,1.4,10,0.6,10.3,0.7z"/>
		<path class="st7" d="M21.8,17.4c0.1,0,0.1,0,0.2-0.1L21.8,17.4C21.8,17.4,21.8,17.4,21.8,17.4z"/>
		<path class="st7" d="M18,20.2c-0.5-0.2-0.9-0.3-1.2-0.2c0.3,0.5,0.6,1.1,1,1.6c0.1,0.1,0.2,0.2,0.3,0.3c0.2,0.2,0.6,0.6,0.8,0.6
			c0.3,0.1,0.5-0.4,0.7-0.6c0.4-0.5,0.5-1,0.5-1.6c0-0.3-0.1-0.6-0.2-0.8c-0.2-0.1-0.4-0.6-0.9-1C18.9,19.5,18,19.3,18,20.2z"/>
		<path class="st7" d="M6.5,22.1c-0.3-0.2-0.5,0-0.6,0.3c0.1,0,0.2,0,0.3,0.1c0.3,0.1,0.5,0.1,0.8,0.1C6.9,22.2,6.8,22,6.5,22.1z"/>
		<path class="st7" d="M12.9,21c-0.2-0.3-0.4-0.5-0.7-1c-0.2,0.2-0.4,0.5-0.6,0.8c-0.1,0.3-0.3,0.6-0.5,0.8
			c-0.1-0.1-0.2-0.1-0.2-0.2c0,0.2,0,0.3,0,0.5c0,0.6,0.3,1,0.9,1.2c0.5,0.1,0.9,0.3,1.3,0.2c0.4-0.2,0.5-0.3,0.6-0.7
			c0.1-0.5,0.3-1,0.4-1.6c0,0.1,0,0.2-0.1,0.2c0,0.2,0.1,0.2,0.2,0.3c0.1,0.2,0.1,0.5,0.2,0.7c0.1,0.3,0.1,0.7,0.4,1
			c0.1,0.1,0.2,0.2,0.3,0.3c0.3,0.3,0.5,0.7,0.9,1c0.2,0.2,0.5,0.2,0.7,0c0.3-0.2,0.4-0.4,0.5-0.6c0.1-0.2,0.1-0.5,0.1-0.7
			c0-0.2-0.1-0.4-0.1-0.6c0-0.2,0-0.4,0-0.7c-0.1-0.6-0.5-1.2-0.8-1.8C15.1,20.3,14.2,21.1,12.9,21z"/>
		<path class="st7" d="M7.6,22.3C7.6,22.3,7.6,22.3,7.6,22.3c0.1,0,0.2,0,0.3,0c0.1-0.1,0.2-0.1,0.3-0.2c0,0,0-0.1-0.1-0.1
			C8,22.1,7.6,21.8,7.6,22.3z"/>
		<path class="st3" d="M13.2,8.8c-0.9-0.7-0.8,0.5-1.1,0.8c0.2,0.3,0.3,0.5,0.5,0.8C13,9.7,13.4,9.4,13.2,8.8z"/>
		<path class="st3" d="M19.3,7.2c-0.2-0.3-0.4-0.5-0.7-0.7c-0.3-0.5-0.6-0.8-0.8-1.1c-0.5-0.2-0.3,0.6-0.5,0.8c0,0.6,0,1.2,0,1.8
			c0.5,0.1,1,0.2,1.5,0.2C19.4,8.3,19,7.4,19.3,7.2z"/>
		<path class="st3" d="M22.2,13.6c-0.4,0-0.9,0-1.3,0.1C21.2,14.9,21.8,14.2,22.2,13.6z"/>
		<path class="st3" d="M20.2,5.5c0.5,0.2,0.9,0.3,1.4,0.5c0.1-0.1,0.2-0.1,0.3-0.2c0.4-0.2,0.7-0.5,0.8-1c0.1-0.3-0.2-0.7-0.5-0.9
			c-0.3-0.2-0.7-0.1-1-0.2c0,0,0,0,0,0C20.7,4,20.3,4.5,20.2,5.5z"/>
		<path class="st5" d="M1.9,19.7C1.9,19.7,1.9,19.7,1.9,19.7C2,19.8,2.2,19.9,2.3,20C2.2,19.9,2,19.8,1.9,19.7
			C1.9,19.7,1.9,19.7,1.9,19.7z"/>
		<path class="st5" d="M4.1,17.9c-0.3,0.6-0.6,0.6-1,0.6c0,0.5,0.1,1,0.1,1.4c0.1,0,0.1,0,0.2-0.1c0.2-0.1,0.4-0.2,0.6-0.3
			c0.2-0.1,0.4-0.2,0.6-0.2c0.3-0.2,0.6-0.4,0.9-0.7c0-0.2-0.1-0.3-0.1-0.5C5,18.1,4.6,18,4.1,17.9z"/>
		<path class="st3" d="M18.1,15.2c0.4,0.1,0.8,0.1,1.2,0.2c0.2-0.1,0.5-0.2,0.8-0.3c0-0.1,0-0.2-0.1-0.3c0.2-0.3,0.4-0.7,0.6-1.1
			c-0.3,0-0.7,0-1,0.1c-0.9,0.2-1.8,0.3-2.7,0.4c-0.3,0.2-0.7,0.4-1,0.5c0,0-0.1,0-0.2,0c0,0.2,0,0.4,0,0.6c0.5,0.2,1,0.4,1.4,0.5
			c0,0,0,0-0.1-0.1l0.1-0.2c0.1,0.1,0.3,0.2,0.4,0.2C17.5,15.5,17.6,14.9,18.1,15.2z"/>
		<path class="st3" d="M10.7,10.5c0.1,0.2,0.3,0.3,0.4,0.5c0.1,0,0.2,0,0.3,0c0-0.4,0-0.8,0-1.3c-0.4,0-0.7-0.1-1-0.2
			c-1-0.4-0.5,0.6-0.9,0.5c0.3,0.2,0.5,0.4,0.8,0.5C10.5,10.5,10.6,10.5,10.7,10.5z"/>
	</g>
	<g>
		<path class="st8" d="M12.2,14.4c-0.1,0-0.2,0.3-0.3,0.3c-0.1,0-0.3,0.2-0.4,0.1c-0.1,0-0.4,0.2-0.5,0.2c-0.1,0,0.1-0.6,0-0.7
			c-0.1-0.1-0.1-0.1-0.2-0.2c-0.1-0.1,0-0.2-0.1-0.3c-0.1-0.1-0.9,0.1-0.9,0c0-0.1,0.8-0.4,0.8-0.5c0-0.1-0.9-0.3-0.9-0.4
			c0-0.1,0.5-0.2,0.5-0.3c0.1-0.1,0.4-0.1,0.5-0.2c0.1-0.1-0.2-0.5-0.1-0.6c0.1-0.1,0.2-0.2,0.4-0.2c0.1-0.1,0.2-0.3,0.3-0.4
			c0.1,0,0.3-0.1,0.5-0.1c0.1,0,0.4,0,0.5,0c0.1,0,0,0.8,0.1,0.9c0.1,0,0.7-0.7,0.8-0.6c0.1,0.1,0.1,0.4,0.2,0.5
			c0.1,0.1-0.3,0.5-0.2,0.6c0.1,0.1,0.6,0,0.7,0.1c0,0.1-0.1,0.3-0.1,0.4c0,0.1-0.6,0.2-0.6,0.3c0,0.1,0.2,0.2,0.2,0.4
			c-0.1,0.1-0.1,0.2-0.1,0.3c-0.1,0.1-0.3,0-0.4,0.1c-0.1,0.1-0.2,0-0.3,0.1C12.3,14.3,12.3,14.4,12.2,14.4z"/>
		<polygon class="st9" points="12.6,12.3 13.9,11 14,11 12.7,12.4 		"/>
		<path class="st9" d="M14.4,11c-0.2,0.1-0.5,0.1-0.6-0.1c-0.1-0.2,0.1-0.4,0.3-0.5c0.3-0.1,0.5-0.1,0.6,0.1
			C14.8,10.7,14.7,10.9,14.4,11z"/>
		<path class="st9" d="M10.2,15.1c-0.2,0.1-0.5,0.1-0.6-0.1c-0.1-0.2,0.1-0.4,0.3-0.5c0.2-0.1,0.5-0.1,0.6,0.1
			C10.5,14.8,10.4,15,10.2,15.1z"/>
		<path class="st9" d="M11.9,16c-0.1,0.2-0.3,0.4-0.5,0.3c-0.2-0.1-0.2-0.3-0.1-0.6c0.1-0.2,0.3-0.4,0.5-0.3
			C12,15.5,12,15.8,11.9,16z"/>
		<path class="st9" d="M12.5,10.1c-0.1,0.2-0.3,0.4-0.5,0.3c-0.2-0.1-0.2-0.3-0.1-0.6c0.1-0.2,0.3-0.4,0.5-0.3
			C12.6,9.6,12.6,9.9,12.5,10.1z"/>
		<polygon class="st9" points="12.7,13.5 12.8,13.4 15.1,13.9 15.1,14.1 		"/>
		<polygon class="st9" points="13,13.1 13,13 14.7,12.8 14.7,12.9 		"/>
		<rect x="11.7" y="11.1" transform="matrix(0.5034 -0.864 0.864 0.5034 -3.3081 16.6567)" class="st9" width="2.2" height="0.1"/>
		<path class="st9" d="M11.9,11.8c0.1-0.1,0.1-1,0.1-1.5l0.1,0c0,0.1-0.1,1.3-0.2,1.5L11.9,11.8z"/>
		<path class="st9" d="M10,11.1l0-0.1c0.7,0,1.9,1.1,1.9,1.2l-0.1,0.1C11.8,12.2,10.7,11.1,10,11.1z"/>
		<rect x="10.5" y="10.4" transform="matrix(0.9575 -0.2885 0.2885 0.9575 -2.8522 3.5406)" class="st9" width="0.1" height="2.2"/>
		<rect x="9.2" y="13.5" transform="matrix(0.9813 -0.1926 0.1926 0.9813 -2.4172 2.1986)" class="st9" width="1.9" height="0.1"/>
		<polygon class="st9" points="12.8,13.9 12.8,13.8 14.5,14.7 14.5,14.8 		"/>
		
			<rect x="13.3" y="13.4" transform="matrix(0.6773 -0.7357 0.7357 0.6773 -6.4038 14.4974)" class="st9" width="0.1" height="2.4"/>
		<polygon class="st9" points="11.7,15.4 12.2,13.6 12.3,13.7 11.8,15.4 		"/>
		<polygon class="st9" points="10.3,14.6 11.7,13.7 11.8,13.8 10.4,14.7 		"/>
		<path class="st9" d="M13.5,10.4c-0.1,0-0.3,0-0.3-0.2c0-0.1,0-0.3,0.2-0.3c0.1,0,0.3,0,0.3,0.2C13.7,10.2,13.7,10.4,13.5,10.4z"/>
		<path class="st9" d="M10.3,10.5c-0.1,0-0.3,0-0.3-0.2c0-0.1,0-0.3,0.2-0.3c0.1,0,0.3,0,0.3,0.2C10.5,10.3,10.4,10.4,10.3,10.5z"/>
		<path class="st9" d="M9.1,13.9c-0.1,0-0.3,0-0.3-0.2c0-0.1,0-0.3,0.2-0.3c0.1,0,0.3,0,0.3,0.2C9.3,13.8,9.2,13.9,9.1,13.9z"/>
		<path class="st9" d="M9.9,11.2c-0.1,0-0.3,0-0.3-0.2c0-0.1,0-0.3,0.2-0.3c0.1,0,0.3,0,0.3,0.2C10.1,11.1,10,11.2,9.9,11.2z"/>
		<path class="st9" d="M14.8,13c-0.1,0-0.3,0-0.3-0.2c0-0.1,0-0.3,0.2-0.3c0.1,0,0.3,0,0.3,0.2C15,12.9,15,13,14.8,13z"/>
		<path class="st9" d="M15.5,14.3c-0.2,0-0.4-0.2-0.4-0.3c0-0.1,0.2-0.2,0.5-0.1c0.2,0,0.4,0.2,0.4,0.3
			C15.9,14.3,15.7,14.4,15.5,14.3z"/>
		<path class="st9" d="M14.6,15c-0.2-0.1-0.4-0.2-0.3-0.4c0-0.1,0.3-0.1,0.5-0.1c0.2,0.1,0.4,0.2,0.3,0.4C15,15.1,14.8,15.1,14.6,15
			z"/>
	</g>
</g>
</svg>
