<?xml version="1.0" encoding="utf-8"?>
<!-- Generator: Adobe Illustrator 23.0.3, SVG Export Plug-In . SVG Version: 6.00 Build 0)  -->
<svg version="1.1" id="レイヤー_1" focusable="false"
	 xmlns="http://www.w3.org/2000/svg" xmlns:xlink="http://www.w3.org/1999/xlink" x="0px" y="0px" viewBox="0 0 16 12"
	 style="enable-background:new 0 0 16 12;" xml:space="preserve">
<style type="text/css">
	.st0{fill:#8C8060;}
</style>
<path class="st0" d="M15.7,4C15.8,3.9,16,4,16,4.1v6.4c0,0.8-0.7,1.5-1.5,1.5h-13C0.7,12,0,11.3,0,10.5V4.1C0,4,0.2,3.9,0.3,4
	C1,4.5,1.9,5.2,5.1,7.5C5.8,8,6.9,9,8,9c1.1,0,2.2-1,2.9-1.5C14.1,5.2,15,4.5,15.7,4z M8,8c0.7,0,1.8-0.9,2.3-1.3
	c4.1-3,4.5-3.3,5.4-4C15.9,2.5,16,2.3,16,2.1V1.5C16,0.7,15.3,0,14.5,0h-13C0.7,0,0,0.7,0,1.5v0.6c0,0.2,0.1,0.4,0.3,0.6
	c1,0.7,1.3,1,5.4,4C6.2,7.1,7.3,8,8,8L8,8z"/>
<text transform="matrix(1 0 0 1 -387 -632.1102)" style="font-family:'KozGoPr6N-Regular-83pv-RKSJ-H'; font-size:12px;">山路を登りながら</text>
</svg>
