<svg version="1.1" id="レイヤー_1" xmlns="http://www.w3.org/2000/svg" x="0" y="0" viewBox="0 0 20.2 20.2" xml:space="preserve"><style>.st0{fill:#8c8060}.st1{fill:#ebebeb}</style><path class="st0" d="M10.2 19.7l-5.5-1.5L3.5 4.4h13.4l-1.2 13.7-5.5 1.6z"/><path class="st0" d="M14.7 17.3l1-11.7h-5.5v12.9l4.5-1.2z"/><path class="st1" d="M6.3 10.6l.2 1.7h3.8v-1.7h-4zM6 7.2l.2 1.7h4.1V7.2H6zM10.2 15l-1.9-.5-.1-1.3H6.5l.2 2.6 3.4 1 .1-1.8z"/><path class="st0" d="M6.7.7h2v.9H7.5v.9h1.2v.9h-2V.7zM9.1.7h2v.7H10v.1h1.2v1.7h-2v-.7h1.2v-.1H9.1V.7zM11.5.7h2v.7h-1.2v.1h1.2v1.7h-2v-.7h1.2v-.1h-1.2V.7z"/><path d="M14.1 10.6l.3-3.4h-4.2v1.7h2.4l-.2 1.7h-2.2v1.7h2.1l-.2 2.2-1.9.5v1.7l3.4-1v-.3L14 11l.1-.4z" fill="#fff"/></svg>