<svg version="1.1" id="レイヤー_1" xmlns="http://www.w3.org/2000/svg" x="0" y="0" viewBox="0 0 20.2 20.2" xml:space="preserve"><style>.st0{fill:#8c8060}.st1{fill:#fff}</style><ellipse class="st0" cx="10.1" cy="10.1" rx="9.8" ry="5.1"/><ellipse class="st0" cx="10.1" cy="10.1" rx="9.4" ry="4.7"/><path class="st1" d="M12 11.7l.5-2.4c.1-.5 0-.9-.3-1.2-.3-.2-.7-.4-1.4-.4H10l.2-1.2v-.1l-.1-.1H9c-.1 0-.1.1-.2.1L8.3 9c0-.3-.2-.5-.3-.7-.3-.4-.8-.6-1.5-.6H4.3c-.1 0-.1.1-.2.1l-1 5.2v.1l.1.1h1.1c.1 0 .1-.1.2-.1l.2-1.2h.8c.4 0 .8 0 1.1-.1.3-.1.6-.3.8-.5.4-.3.5-.5.6-.7l-.2 1v.1l.1.1H9c.1 0 .1-.1.2-.1l.5-2.8h.8c.4 0 .5 0 .5.1 0 0 .1.1 0 .4l-.4 2.3v.1l.1.1h1.1l.2-.2zm-5.1-2c-.1.4-.2.6-.4.8-.2.1-.5.2-.9.2h-.5l.4-1.8h.6c.5 0 .7.1.7.2.1 0 .1.3.1.6zM16.8 8.3c-.3-.4-.8-.6-1.5-.6h-2.2c-.1 0-.1.1-.2.1l-1 5.1v.1l.1.1h1.1c.1 0 .1-.1.2-.1l.2-1.2h.8c.4 0 .8 0 1.1-.1s.6-.3.8-.5.4-.4.5-.6c.1-.2.2-.5.3-.7.2-.7.1-1.3-.2-1.6zm-1.2 1.4c-.1.4-.2.6-.4.8-.2.1-.5.2-.9.2h-.5l.4-1.8h.6c.5 0 .7.1.7.2.2 0 .2.3.1.6z"/><g><path class="st0" d="M6.1 8.7c.4 0 .7.1.9.2.1.2.1.4 0 .8s-.2.7-.4.9c-.2.2-.6.3-1 .3h-.7l.4-2.1.8-.1zM3.3 13h1.1l.3-1.4h1c.4 0 .8 0 1-.1.3-.1.6-.2.8-.5.2-.2.3-.4.5-.6.1-.2.2-.4.2-.7.1-.6 0-1.1-.3-1.4-.3-.3-.8-.4-1.4-.4H4.3l-1 5.1zM9 6.5h1.1l-.2 1.4h1c.6 0 1.1.1 1.3.3s.3.6.2 1.1l-.5 2.4h-1.1l.4-2.3c.1-.3 0-.4-.1-.5s-.3-.1-.6-.1h-.8l-.6 2.9H8l1-5.2zM14.8 8.7c.4 0 .7.1.9.2.1.2.2.4.1.8s-.2.7-.4.9-.6.3-1 .3h-.7l.4-2.1.7-.1zM12.1 13h1.1l.3-1.4h1c.4 0 .8 0 1-.1.3-.1.5-.2.7-.4s.3-.4.5-.6.2-.4.2-.7c.1-.6 0-1.1-.3-1.4-.3-.3-.8-.5-1.4-.5H13l-.9 5.1z"/></g></svg>