<?xml version="1.0" encoding="utf-8"?>
<!-- Generator: Adobe Illustrator 23.0.3, SVG Export Plug-In . SVG Version: 6.00 Build 0)  -->
<svg version="1.1" id="レイヤー_1" xmlns="http://www.w3.org/2000/svg" xmlns:xlink="http://www.w3.org/1999/xlink" x="0px"
	 y="0px" viewBox="0 0 20.2 20.2" style="enable-background:new 0 0 20.2 20.2;" xml:space="preserve">
<style type="text/css">
	.st0{fill:#8C8060;}
	.st1{fill:#FFFFFF;}
</style>
<path class="st0" d="M0.8,0.8h18.6v18.6H0.8V0.8z"/>
<path class="st1" d="M5.7,16.4l1.4-0.9c0.3,0.5,0.5,0.9,1.1,0.9s0.9-0.2,0.9-1.1V9.4H11v6c0,1.8-1.1,2.6-2.6,2.6S6.1,17.2,5.7,16.4"
	/>
<path class="st1" d="M11.9,16.2l1.4-0.8c0.4,0.6,0.9,1.1,1.7,1.1c0.7,0,1.2-0.4,1.2-0.9c0-0.6-0.5-0.8-1.3-1.2l-0.4-0.2
	c-1.3-0.5-2.1-1.2-2.1-2.6c0-1.3,1-2.3,2.6-2.3c1.1,0,1.9,0.4,2.5,1.4l-1.4,0.9c-0.3-0.5-0.6-0.7-1.1-0.7s-0.8,0.3-0.8,0.7
	c0,0.5,0.3,0.7,1.1,1.1l0.4,0.2c1.5,0.6,2.3,1.3,2.3,2.7c0,1.6-1.2,2.4-2.9,2.4C13.5,18,12.4,17.2,11.9,16.2"/>
</svg>
