<?xml version="1.0" encoding="utf-8"?>
<!-- Generator: Adobe Illustrator 23.0.3, SVG Export Plug-In . SVG Version: 6.00 Build 0)  -->
<svg version="1.1" id="レイヤー_1" xmlns="http://www.w3.org/2000/svg" xmlns:xlink="http://www.w3.org/1999/xlink" x="0px"
	 y="0px" viewBox="0 0 20.2 20.2" style="enable-background:new 0 0 20.2 20.2;" xml:space="preserve">
<style type="text/css">
	.st0{fill-rule:evenodd;clip-rule:evenodd;fill:#8C8060;}
</style>
<g>
	<g>
		<path class="st0" d="M18.9,8.4h0.8c0,0-1.5,2-1.6,2.2c0,0.1-0.1,0.1-0.1,0.2c-0.1,0.2-0.2,0.6-0.2,0.6h-0.7c0,0,0.1-0.4,0.1-0.6
			c0-0.2-0.1-0.4-0.2-0.6c-0.1-0.2-0.1-0.6-0.1-0.6h0.8l0.1,0.4L18.9,8.4"/>
		<path class="st0" d="M17.4,8.8c0.1,0.1,0.2,0.6,0.2,0.6s-0.8,0-1.2,0H16l-0.4,1.9h-0.7c0,0,0.4-2.1,0.5-2.5c0-0.1,0.2-0.1,0.5-0.1
			h0.5C16.8,8.8,17.2,8.7,17.4,8.8"/>
		<path class="st0" d="M14.2,9.8c0,0,0-0.1-0.1-0.3c-0.1-0.1-0.2-0.2-0.4-0.2c-0.6,0-0.6,0.4-0.6,0.4L14.2,9.8L14.2,9.8z M14.9,9.3
			c0.1,0.3-0.1,1-0.1,1s-0.9,0-1.3,0c-0.1,0-0.3,0-0.4,0.1c-0.1,0.1,0,0.2,0.1,0.3s0.2,0.1,0.3,0.1c0.4,0,1.2,0,1.2,0l-0.1,0.6
			c0,0-1.1,0.1-1.7-0.1c-0.1,0-0.2-0.1-0.3-0.2c0,0,0,0-0.1-0.1l-0.1-0.1c-0.1-0.3,0-1,0.2-1.4c0,0,0-0.1,0.1-0.1
			c0-0.1,0.1-0.1,0.1-0.2c0,0,0,0,0-0.1c0,0,0,0,0.1-0.1c0,0.1,0,0,0.1,0c0.2-0.2,0.7-0.3,1.2-0.3c0.2,0,0.5,0.1,0.6,0.3
			C14.8,9.1,14.8,9.2,14.9,9.3L14.9,9.3L14.9,9.3z"/>
		<path class="st0" d="M11.7,8.8h0.7c0,0-0.4,1.7-0.6,2.6H11c-0.5,0-1,0.1-1.2-0.3c-0.2-0.4,0-1,0.1-1.4c0.1-0.3,0.2-0.9,0.2-0.9
			h0.7c0,0-0.2,0.9-0.3,1.4c0,0.2-0.1,0.3,0,0.4c0.1,0.1,0.1,0.1,0.4,0.1c0.1,0,0.3,0,0.3,0L11.7,8.8"/>
		<path class="st0" d="M8.7,10c0.1-0.2,0.2-0.5,0.2-0.7S8.7,8.8,8.6,8.8c-0.5-0.2-0.9,0-1,0.2C7.4,9.2,7.3,9.4,7.3,9.7
			c0,0.2-0.1,0.5,0,0.7c0.2,0.3,0.6,0.3,1.2,0.3C8.5,10.5,8.6,10.2,8.7,10L8.7,10L8.7,10z M9.6,9c0.1,0.5-0.2,1.2-0.4,1.7
			c0.2,0,0.4,0,0.4,0s-0.1,0.6-0.2,0.6c-0.2,0-0.7,0-0.9,0c-0.7,0-1.4,0-1.8-0.3c-0.1-0.1-0.2-0.4-0.3-0.6c0-0.3,0-0.6,0.1-0.9
			C6.6,9.3,6.6,9,6.8,8.8C7.1,8.4,7.6,8,8.5,8.1c0.2,0,0.4,0.1,0.6,0.2c0,0,0,0,0.1,0C9.3,8.4,9.5,8.7,9.6,9L9.6,9L9.6,9z"/>
		<path class="st0" d="M6.4,8.8c0,0.2-0.1,0.4-0.1,0.6H5.5C5.6,9.2,5.6,9,5.7,8.8C5.9,8.8,6.1,8.8,6.4,8.8"/>
		<path class="st0" d="M5.5,9.6h0.7c-0.1,0.5-0.3,1.3-0.4,1.9c-0.1,0.4-0.1,0.6-0.4,0.8c0,0,0,0-0.1,0c0,0-0.3,0.1-0.4,0.1
			c-0.2,0-0.4,0-0.6,0c0.1-0.2,0.1-0.5,0.2-0.7c0.6,0.1,0.6-0.5,0.7-1C5.2,10.5,5.4,9.7,5.5,9.6"/>
		<g transform="translate(0.000000, 8.827586)">
			<path class="st0" d="M3.8,2.1L3.8,2.1C3.6,2.6,3.1,2.9,2.4,2.9c-0.3,0-0.6-0.1-0.8-0.2C1.2,2.6,0.9,2.3,0.7,1.9
				C0.4,1.4,0.4,0.6,1,0.1L0.9,0.2v0.1c-0.4,1.2,0.8,2.3,2,2.2C3.2,2.5,3.6,2.3,3.8,2.1"/>
			<path class="st0" d="M3.1,1.5c0.3,0,0.6-0.1,0.8-0.3C3.7,1.6,3.3,1.9,2.6,1.8c-0.5-0.1-1-0.6-1.1-1.2c0-0.4,0.1-0.6,0.3-0.9
				c0,0.2-0.1,0.3-0.1,0.4C1.6,0.9,2.4,1.5,3.1,1.5"/>
			<path class="st0" d="M3.9,0.5c0,0.1-0.3,0.3-0.4,0.3C3,0.9,2.7,0.7,2.5,0.4c0,0-0.1-0.1-0.1-0.2C2.3,0,2.4-0.3,2.6-0.5
				C2.5-0.3,2.5-0.1,2.5,0s0.1,0.2,0.1,0.3c0.1,0.1,0.2,0.2,0.3,0.3C3,0.6,3,0.7,3,0.7C3.2,0.7,3.5,0.8,3.9,0.5"/>
		</g>
	</g>
</g>
</svg>
