<?xml version="1.0" encoding="utf-8"?>
<!-- Generator: Adobe Illustrator 23.0.3, SVG Export Plug-In . SVG Version: 6.00 Build 0)  -->
<svg version="1.1" id="レイヤー_1" xmlns="http://www.w3.org/2000/svg" xmlns:xlink="http://www.w3.org/1999/xlink" x="0px"
	 y="0px" viewBox="0 0 20.2 20.2" style="enable-background:new 0 0 20.2 20.2;" xml:space="preserve">
<style type="text/css">
	.st0{fill:#8C8060;}
</style>
<g>
	<path class="st0" d="M17.2,11.2c-0.7,0-1.3,0.2-1.8,0.4c-0.2-0.4-0.4-0.7-0.4-0.9c0-0.3-0.1-0.4,0-0.8c0-0.3,0.2-0.8,0.2-0.8
		s0-0.2-0.4-0.2C14.4,8.9,14,9,14,9.1s-0.1,0.3-0.2,0.6c0,0.3-0.8,1.6-1.2,2.3c-0.1-0.3-0.2-0.5-0.3-0.7c0-0.3-0.1-0.4,0-0.8
		s0.2-0.8,0.2-0.8s0-0.2-0.4-0.2s-0.7,0.1-0.8,0.2c0,0.1-0.1,0.3-0.2,0.6c-0.1,0.2-1,2.4-1.3,2.9c-0.1,0.3-0.2,0.5-0.3,0.7l0,0l0,0
		c0,0.1,0,0.1,0,0.1l0,0c-0.1,0.1-0.1,0.2-0.1,0.2s-0.1-0.3,0-0.6c0.1-0.7,0.5-1.9,0.5-1.9s0.1-0.2-0.2-0.3s-0.4,0.1-0.4,0.1v0.1
		c0,0,0.3-1.3-0.6-1.3c-0.6,0-1.3,0.6-1.7,1.2c-0.2,0.1-0.8,0.4-1.3,0.7c-0.2,0.1-0.4,0.2-0.6,0.3l0,0C4,11.3,2,10.5,2.1,9
		c0-0.6,0.2-2.1,3.9-3.9c3-1.5,5.4-1.1,5.8-0.2c0.6,1.3-1.3,3.7-4.4,4.1C5.9,9,5.3,8.5,5.2,8.4C5,8.2,5,8.2,4.9,8.2
		c-0.1,0.1,0,0.2,0,0.3C5,8.8,5.4,9.2,6,9.4C6.6,9.6,8,9.7,9.7,9c1.9-0.7,3.3-2.7,2.9-4.4s-3.3-2.3-6-1.3C5,3.8,3.3,4.7,2,5.9
		C0.5,7.3,0.3,8.5,0.4,9c0.3,1.8,2.8,3,3.8,3.8l-0.1,0.1c-0.5,0.2-2.4,1.2-2.9,2.3c-0.5,1.2,0.1,2,0.5,2.1C3,17.7,4.3,17.1,5,16
		s0.6-2.4,0.3-3l0,0c0.1-0.1,0.3-0.2,0.4-0.2c0.3-0.1,0.5-0.3,0.7-0.4c-0.1,0.3-0.2,0.7-0.3,1.3c-0.1,0.7,0.2,1.5,0.6,1.9
		c0.2,0.1,0.3,0.2,0.5,0.2c0.4,0,0.6-0.3,0.8-0.8c0.3-0.5,0.5-1.1,0.5-1.1S8.2,15.4,9,15.4c0.3,0,0.6-0.4,0.7-0.6l0,0l0,0v-0.1l0,0
		c0.1-0.2,0.4-0.7,0.8-1.4c0.5-1,1-2.2,1-2.2s0,0.3,0.2,0.8c0.1,0.3,0.3,0.6,0.4,0.9C12,13,11.9,13,11.9,13l0,0
		c-0.1,0.1-0.2,0.3-0.3,0.4c-0.4,0.5-0.9,1-0.9,1.1c-0.1,0.2-0.1,0.3,0.1,0.4c0.1,0.1,0.3,0.1,0.5,0.1c0.3,0,0.6-0.1,0.7-0.2
		c0.2-0.1,0.4-0.2,0.6-0.3c0.4-0.3,0.6-0.7,0.6-1.2c0-0.3-0.1-0.6-0.2-0.9l0.1-0.1c0.6-0.9,1.1-1.8,1.1-1.8s0,0.3,0.2,0.8
		c0.1,0.2,0.2,0.5,0.3,0.8c-0.6,0.5-0.9,1-1,1.3c-0.2,0.6,0,0.9,0.3,1c0.1,0,0.4,0,0.5-0.1c0.2-0.1,0.4-0.2,0.7-0.3
		c0.4-0.3,0.7-0.7,0.7-1.2c0-0.2-0.1-0.5-0.2-0.7c0.5-0.2,1.1-0.3,1.9-0.2c1.7,0.2,2,1.3,2,1.7c-0.1,0.4-0.4,0.7-0.5,0.8
		s-0.2,0.1-0.1,0.2c0,0.1,0.1,0.1,0.2,0.1s0.9-0.4,0.9-1.2C19.9,12.4,18.9,11.2,17.2,11.2L17.2,11.2z M4.1,15.6
		c-0.6,0.6-1.3,0.8-1.7,0.6C2,16,2.2,15.1,2.9,14.4c0.4-0.4,1-0.8,1.3-1c0.1,0,0.2-0.1,0.3-0.2l0,0l0,0c0,0,0.1,0,0.1-0.1
		C4.9,14.2,4.7,15,4.1,15.6L4.1,15.6z M8.2,12.8c-0.2,0.5-0.6,1.7-0.9,1.6c-0.2-0.1-0.3-1,0-1.9c0.2-0.5,0.5-1,0.7-1.2
		C8.3,11,8.6,10.9,8.7,11C8.8,11.2,8.3,12.5,8.2,12.8L8.2,12.8z M11.6,14.5c-0.1,0-0.2,0.1-0.2,0v-0.1c0,0,0.4-0.5,0.6-0.7
		c0.1-0.1,0.2-0.3,0.3-0.4l0,0C12.3,13.9,11.8,14.3,11.6,14.5L11.6,14.5z M14.2,13.9c-0.1,0,0-0.2,0.2-0.6c0.1-0.2,0.3-0.5,0.6-0.7
		c0,0.1,0.1,0.2,0.1,0.3C15,13.5,14.5,13.8,14.2,13.9L14.2,13.9z"/>
</g>
</svg>
