<svg version="1.1" id="レイヤー_1" xmlns="http://www.w3.org/2000/svg" x="0" y="0" viewBox="0 0 20.2 20.2" xml:space="preserve"><style>.st0{fill-rule:evenodd;clip-rule:evenodd;fill:#8c8060}</style><path class="st0" d="M18.9 8.4h.8s-1.5 2-1.6 2.2c0 .1-.1.1-.1.2-.1.2-.2.6-.2.6h-.7s.1-.4.1-.6c0-.2-.1-.4-.2-.6-.1-.2-.1-.6-.1-.6h.8l.1.4 1.1-1.6"/><path class="st0" d="M17.4 8.8c.1.1.2.6.2.6H16l-.4 1.9h-.7s.4-2.1.5-2.5c0-.1.2-.1.5-.1h.5c.4.1.8 0 1 .1M14.2 9.8s0-.1-.1-.3c-.1-.1-.2-.2-.4-.2-.6 0-.6.4-.6.4l1.1.1zm.7-.5c.1.3-.1 1-.1 1h-1.3c-.1 0-.3 0-.4.1-.1.1 0 .2.1.3s.2.1.3.1h1.2l-.1.6s-1.1.1-1.7-.1c-.1 0-.2-.1-.3-.2l-.1-.1-.1-.1c-.1-.3 0-1 .2-1.4 0 0 0-.1.1-.1 0-.1.1-.1.1-.2v-.1l.1-.1c0 .1 0 0 .1 0 .2-.2.7-.3 1.2-.3.2 0 .5.1.6.3 0 .1 0 .2.1.3zM11.7 8.8h.7s-.4 1.7-.6 2.6H11c-.5 0-1 .1-1.2-.3-.2-.4 0-1 .1-1.4.1-.3.2-.9.2-.9h.7s-.2.9-.3 1.4c0 .2-.1.3 0 .4.1.1.1.1.4.1h.3l.5-1.9M8.7 10c.1-.2.2-.5.2-.7s-.2-.5-.3-.5c-.5-.2-.9 0-1 .2-.2.2-.3.4-.3.7 0 .2-.1.5 0 .7.2.3.6.3 1.2.3 0-.2.1-.5.2-.7zm.9-1c.1.5-.2 1.2-.4 1.7h.4s-.1.6-.2.6h-.9c-.7 0-1.4 0-1.8-.3-.1-.1-.2-.4-.3-.6 0-.3 0-.6.1-.9.1-.2.1-.5.3-.7.3-.4.8-.8 1.7-.7.2 0 .4.1.6.2h.1c.1.1.3.4.4.7zM6.4 8.8c0 .2-.1.4-.1.6h-.8c.1-.2.1-.4.2-.6h.7M5.5 9.6h.7c-.1.5-.3 1.3-.4 1.9-.1.4-.1.6-.4.8h-.1s-.3.1-.4.1h-.6c.1-.2.1-.5.2-.7.6.1.6-.5.7-1 0-.2.2-1 .3-1.1"/><path class="st0" d="M3.8 2.1c-.2.5-.7.8-1.4.8-.3 0-.6-.1-.8-.2-.4-.1-.7-.4-.9-.8C.4 1.4.4.6 1 .1L.9.2v.1c-.4 1.2.8 2.3 2 2.2.3 0 .7-.2.9-.4" transform="translate(0 8.828)"/><path class="st0" d="M3.1 1.5c.3 0 .6-.1.8-.3-.2.4-.6.7-1.3.6-.5-.1-1-.6-1.1-1.2 0-.4.1-.6.3-.9 0 .2-.1.3-.1.4-.1.8.7 1.4 1.4 1.4" transform="translate(0 8.828)"/><path class="st0" d="M3.9.5c0 .1-.3.3-.4.3-.5.1-.8-.1-1-.4 0 0-.1-.1-.1-.2-.1-.2 0-.5.2-.7-.1.2-.1.4-.1.5s.1.2.1.3l.3.3c.1 0 .1.1.1.1.2 0 .5.1.9-.2" transform="translate(0 8.828)"/></svg>