<?xml version="1.0" encoding="utf-8"?>
<!-- Generator: Adobe Illustrator 23.0.3, SVG Export Plug-In . SVG Version: 6.00 Build 0)  -->
<svg version="1.1" id="レイヤー_1" xmlns="http://www.w3.org/2000/svg" xmlns:xlink="http://www.w3.org/1999/xlink" x="0px"
	 y="0px" viewBox="0 0 20.2 20.2" style="enable-background:new 0 0 20.2 20.2;" xml:space="preserve">
<style type="text/css">
	.st0{fill:#8B7F5F;}
	.st1{fill-rule:evenodd;clip-rule:evenodd;fill:#8B7F5F;}
	.st2{fill:none;stroke:#000000;stroke-width:0.25;stroke-miterlimit:10;}
</style>
<g>
	<path class="st0" d="M1.7,1.9h16.9v16.5H1.7V1.9z M0.9,19.1h18.5v-18H0.9V19.1z"/>
	<path class="st1" d="M5.4,5.3c0-0.1,0.1-0.1,0.2-0.1c0.5,0,1.2,0,2,0c2.1,0,3,1.2,3,2.7c0,2-1.4,2.8-3.2,2.8c-0.3,0-0.4,0-0.6,0v3
		c0,0.1,0,0.1-0.1,0.1H5.4c-0.1,0-0.1,0-0.1-0.1V5.3z M6.7,9.4c0.2,0,0.3,0,0.6,0c0.9,0,1.8-0.3,1.8-1.5c0-1-0.6-1.5-1.6-1.5
		c-0.3,0-0.6,0-0.7,0V9.4z M13.3,8.5c-0.6,0-0.8,0.3-0.8,0.6c0,0.3,0.1,0.5,1,0.9c1.2,0.6,1.6,1.1,1.6,2c0,1.2-0.9,1.9-2.2,1.9
		c-0.7,0-1.2-0.1-1.6-0.3c-0.1,0-0.1-0.1-0.1-0.1v-1.1c0-0.1,0-0.1,0.1-0.1c0.5,0.3,1,0.5,1.6,0.5c0.6,0,0.9-0.3,0.9-0.6
		c0-0.3-0.2-0.5-1-0.9c-1.1-0.5-1.5-1.1-1.5-1.9c0-1,0.8-1.8,2.1-1.8c0.7,0,1.1,0.1,1.4,0.2c0.1,0,0.1,0.1,0.1,0.2v1.1
		c0,0.1,0,0.1-0.1,0.1C14.4,8.6,13.8,8.5,13.3,8.5"/>
</g>
<rect x="0.1" y="0.1" class="st2" width="20" height="20"/>
</svg>
