<?xml version="1.0" encoding="utf-8"?>
<!-- Generator: Adobe Illustrator 23.0.3, SVG Export Plug-In . SVG Version: 6.00 Build 0)  -->
<svg version="1.1" id="レイヤー_1" xmlns="http://www.w3.org/2000/svg" xmlns:xlink="http://www.w3.org/1999/xlink" x="0px"
	 y="0px" viewBox="0 0 20.5 20.5" style="enable-background:new 0 0 20.5 20.5;" xml:space="preserve">
<style type="text/css">
	.st0{fill:#8B7F5F;}
	.st1{fill-rule:evenodd;clip-rule:evenodd;fill:#8B7F5F;}
</style>
<g>
	<path class="st0" d="M1.8,1.9h16.8v16.4H1.8V1.9z M0.9,19.1h18.4V1.2H0.9V19.1z"/>
	<g>
		<path class="st1" d="M7.3,11.3l-0.6,2.3c0,0.1,0,0.1-0.1,0.1H5.4c-0.1,0-0.1,0-0.1-0.1L7.5,6c0-0.1,0.1-0.3,0.1-0.6
			c0-0.1,0-0.1,0.1-0.1h1.6c0.1,0,0.1,0,0.1,0.1l2.4,8.3c0,0.1,0,0.1-0.1,0.1h-1.3c-0.1,0-0.1,0-0.1-0.1l-0.6-2.3L7.3,11.3L7.3,11.3
			z M9.4,10.1C9.2,9.3,8.8,7.4,8.5,6.5l0,0c-0.2,0.9-0.6,2.4-0.9,3.6H9.4z M12.9,5.8c0-0.5,0.3-0.8,0.8-0.8s0.8,0.3,0.8,0.8
			s-0.3,0.8-0.8,0.8S12.9,6.3,12.9,5.8 M12.9,7.6C12.9,7.6,13,7.6,12.9,7.6l1.3-0.1c0.1,0,0.1,0,0.1,0.1v6c0,0.1,0,0.1-0.1,0.1h-1.2
			c-0.1,0-0.1,0-0.1-0.1C13,13.6,13,7.6,12.9,7.6z"/>
	</g>
</g>
</svg>
