<?xml version="1.0" encoding="utf-8"?>
<!-- Generator: Adobe Illustrator 23.0.3, SVG Export Plug-In . SVG Version: 6.00 Build 0)  -->
<svg version="1.1" id="レイヤー_1" xmlns="http://www.w3.org/2000/svg" xmlns:xlink="http://www.w3.org/1999/xlink" x="0px"
	 y="0px" viewBox="0 0 20.2 20.2" style="enable-background:new 0 0 20.2 20.2;" xml:space="preserve">
<style type="text/css">
	.st0{fill:#8B7F5F;}
	.st1{fill-rule:evenodd;clip-rule:evenodd;fill:#8B7F5F;}
</style>
<g>
	<path class="st0" d="M1.5,1.7h17.3v16.8H1.5V1.7z M0.7,19.3h18.8V0.9H0.7V19.3z"/>
	<g>
		<path class="st1" d="M3.1,5.2c0-0.1,0-0.1,0.1-0.1c0.3,0,1.2,0,2,0c2.6,0,3.9,1.7,3.9,4.2c0,3.5-2.3,4.5-4,4.5c-0.7,0-1.6,0-2,0
			c-0.1,0-0.1,0-0.1-0.1V5.2z M4.5,12.5c0.2,0,0.4,0,0.7,0c1.5,0,2.5-1,2.5-3.2c0-2.1-1.1-3-2.5-3c-0.3,0-0.5,0-0.7,0V12.5z
			 M14.5,13.7c-0.1,0-0.1,0-0.1-0.1c-0.4-2.2-0.7-3.7-0.9-4.8h0c-0.2,1-0.5,2.6-1,4.8c0,0.1-0.1,0.1-0.1,0.1h-1.3
			c-0.1,0-0.1,0-0.1-0.1L9.6,7.5c0-0.1,0-0.1,0.1-0.1H11c0.1,0,0.1,0,0.1,0.1c0.5,2.8,0.7,4.2,0.8,4.8h0.1c0.1-0.7,0.4-2.1,0.9-4.8
			c0-0.1,0-0.1,0.1-0.1h1.3c0.1,0,0.1,0,0.1,0.1c0.5,2.6,0.8,4.2,0.8,4.8h0c0.1-0.8,0.3-1.9,0.9-4.8c0,0,0-0.1,0.1-0.1h1.2
			c0,0,0.1,0,0.1,0.1l-1.5,6.2c0,0.1,0,0.1-0.1,0.1H14.5z"/>
	</g>
</g>
</svg>
