<?xml version="1.0" encoding="utf-8"?>
<!-- Generator: Adobe Illustrator 23.0.3, SVG Export Plug-In . SVG Version: 6.00 Build 0)  -->
<svg version="1.1" id="Layer_1" xmlns="http://www.w3.org/2000/svg" xmlns:xlink="http://www.w3.org/1999/xlink" x="0px" y="0px"
	 viewBox="0 0 44.8 44.8" style="enable-background:new 0 0 44.8 44.8;" xml:space="preserve">
<style type="text/css">
	.st0{fill:#FFFFFF;}
</style>
<path class="st0" d="M44.8,25.5c0-0.5-0.1-1.1-0.2-1.5c-0.1-0.6-0.3-1.2-0.6-1.6c0.3-0.5,0.5-1,0.6-1.6c0.1-0.4,0.2-0.9,0.2-1.5
	c0-0.1,0-0.1,0-0.2c0-0.9,0-1.9-0.5-2.5c0.1-0.8-0.3-1.7-0.8-2.4c0-0.1-0.1-0.1-0.1-0.2c-0.3-0.4-0.6-0.9-0.9-1.2
	c-0.4-0.5-0.8-0.9-1.3-1.2c0-0.5-0.1-1.1-0.4-1.7c-0.1-0.4-0.3-0.9-0.6-1.4c0-0.1,0-0.1-0.1-0.2c-0.4-0.8-1-1.6-1.7-1.9
	c-0.4-0.7-1.1-1.3-1.9-1.7c-0.1,0-0.1-0.1-0.2-0.1c-0.5-0.2-1-0.4-1.4-0.6c-0.6-0.2-1.2-0.3-1.7-0.4c-0.3-0.5-0.7-0.9-1.2-1.3
	c-0.3-0.3-0.7-0.6-1.2-0.9c0-0.1-0.1-0.1-0.2-0.1c-0.8-0.5-1.6-0.9-2.4-0.8C27.6,0.1,26.6,0,25.7,0c-0.1,0-0.1,0-0.2,0
	c-0.5,0-1.1,0.1-1.5,0.2c-0.6,0.1-1.2,0.3-1.6,0.6c-0.5-0.3-1-0.5-1.6-0.6c-0.4-0.1-0.9-0.2-1.5-0.2c-0.1,0-0.1,0-0.2,0
	c-0.9,0-1.9,0-2.5,0.5c-0.8-0.1-1.7,0.3-2.4,0.8c-0.1,0-0.1,0.1-0.2,0.1c-0.4,0.3-0.9,0.6-1.2,0.9c-0.5,0.4-0.9,0.8-1.2,1.3
	C11,3.7,10.5,3.8,9.9,4C9.5,4.2,9,4.3,8.5,4.6c-0.1,0-0.1,0-0.2,0.1c-0.8,0.4-1.6,1-1.9,1.7C5.6,6.7,5.1,7.5,4.7,8.3
	c0,0.1-0.1,0.1-0.1,0.2C4.3,9,4.2,9.5,4,9.9c-0.2,0.6-0.3,1.2-0.4,1.7c-0.5,0.3-0.9,0.7-1.3,1.2c-0.3,0.3-0.6,0.7-0.9,1.2
	c-0.1,0-0.1,0.1-0.1,0.2c-0.5,0.8-0.9,1.6-0.8,2.4C0.1,17.2,0,18.2,0,19.1c0,0.1,0,0.1,0,0.2c0,0.5,0.1,1.1,0.2,1.5
	c0.1,0.6,0.3,1.2,0.6,1.6c-0.3,0.5-0.5,1-0.6,1.6C0.1,24.5,0.1,25,0,25.5c0,0.1,0,0.1,0,0.2c0,0.9,0,1.9,0.5,2.5
	c-0.1,0.8,0.3,1.7,0.8,2.4c0,0.1,0.1,0.1,0.1,0.2c0.3,0.4,0.6,0.9,0.9,1.2c0.4,0.5,0.8,0.9,1.3,1.2c0,0.5,0.1,1.1,0.4,1.7
	c0.1,0.4,0.3,0.9,0.6,1.4c0,0.1,0,0.1,0.1,0.2c0.4,0.8,1,1.6,1.7,1.9c0.4,0.7,1.1,1.3,1.9,1.7c0.1,0,0.1,0.1,0.2,0.1
	c0.5,0.2,1,0.4,1.4,0.6c0.6,0.2,1.2,0.3,1.7,0.4c0.3,0.5,0.7,0.9,1.2,1.3c0.3,0.3,0.7,0.6,1.2,0.9c0,0.1,0.1,0.1,0.2,0.1
	c0.8,0.5,1.6,0.9,2.4,0.8c0.7,0.5,1.6,0.5,2.5,0.5c0.1,0,0.1,0,0.2,0c0.5,0,1.1-0.1,1.5-0.2c0.6-0.1,1.2-0.3,1.6-0.6
	c0.5,0.3,1,0.5,1.6,0.6c0.4,0.1,0.9,0.2,1.5,0.2c0.1,0,0.1,0,0.2,0c0.9,0,1.9,0,2.5-0.5c0.8,0.1,1.7-0.3,2.4-0.8
	c0.1,0,0.1-0.1,0.2-0.1c0.4-0.3,0.9-0.6,1.2-0.9c0.5-0.4,0.9-0.8,1.2-1.3c0.5,0,1.1-0.1,1.7-0.4c0.4-0.1,0.9-0.3,1.4-0.6
	c0.1,0,0.1,0,0.2-0.1c0.8-0.4,1.6-1,1.9-1.7c0.7-0.4,1.3-1.1,1.7-1.9c0-0.1,0.1-0.1,0.1-0.2c0.2-0.5,0.4-1,0.6-1.4
	c0.2-0.6,0.3-1.2,0.4-1.7c0.5-0.3,0.9-0.7,1.3-1.2c0.3-0.3,0.6-0.7,0.9-1.2c0.1,0,0.1-0.1,0.1-0.2c0.5-0.8,0.9-1.6,0.8-2.4
	c0.5-0.7,0.5-1.6,0.5-2.5C44.8,25.7,44.8,25.6,44.8,25.5z M43,30c-0.1-0.1-0.3-0.2-0.4-0.3c0-0.2-0.1-0.4-0.2-0.6
	c0.2,0,0.5-0.1,0.7-0.1c0.1,0,0.1,0,0.2-0.1C43.3,29.3,43.2,29.7,43,30z M36.4,37.5C36.4,37.5,36.4,37.5,36.4,37.5
	c-0.1-0.9-0.4-1.5-1-2c0,0,0,0,0,0c0,0,0,0,0,0c0.5,0.5,1.1,0.9,2,0.9c0,0,0,0,0,0.1c0.2,0.4,0.2,0.9,0.2,1.2
	C37.3,37.7,36.9,37.7,36.4,37.5z M27,42.5C27,42.5,27,42.4,27,42.5c0.4-0.8,0.4-1.6,0.2-2.2c0,0,0,0,0,0c0,0,0,0,0,0
	c0.1,0.7,0.5,1.3,1.3,1.8c0,0,0,0,0,0.1c-0.1,0.5-0.2,0.9-0.5,1.2C27.6,43.1,27.3,42.9,27,42.5z M16.8,43.3
	c-0.2-0.3-0.4-0.7-0.5-1.2c0,0,0,0,0-0.1c0.7-0.5,1.1-1.1,1.3-1.8c0,0,0,0,0,0c0,0,0,0,0,0c-0.2,0.7-0.2,1.4,0.2,2.2c0,0,0,0,0,0.1
	C17.5,42.9,17.2,43.1,16.8,43.3z M8.4,37.5c-0.4,0.2-0.9,0.2-1.2,0.2c-0.1-0.4,0-0.8,0.2-1.2c0,0,0,0,0-0.1c0.9,0,1.5-0.4,2-0.9
	c0,0,0,0,0,0c0,0,0,0,0,0C8.8,36,8.5,36.6,8.4,37.5C8.4,37.5,8.4,37.5,8.4,37.5z M1.8,14.8c0.1,0.1,0.3,0.2,0.4,0.3
	c0,0.2,0.1,0.4,0.2,0.6c-0.2,0-0.5,0.1-0.7,0.1c-0.1,0-0.1,0-0.2,0.1C1.5,15.5,1.6,15.1,1.8,14.8z M8.4,7.3C8.4,7.3,8.4,7.3,8.4,7.3
	c0.1,0.9,0.4,1.5,1,2c0,0,0,0,0,0c0,0,0,0,0,0c-0.5-0.5-1.1-0.9-2-0.9c0,0,0,0,0-0.1C7.1,7.9,7.1,7.5,7.1,7.1
	C7.5,7.1,7.9,7.1,8.4,7.3z M17.8,2.3C17.8,2.3,17.8,2.3,17.8,2.3c-0.4,0.8-0.4,1.6-0.2,2.2c0,0,0,0,0,0c0,0,0,0,0,0
	c-0.1-0.7-0.5-1.3-1.3-1.8c0,0,0,0,0-0.1c0.1-0.5,0.2-0.9,0.5-1.2C17.2,1.7,17.5,1.9,17.8,2.3z M28,1.5c0.2,0.3,0.4,0.7,0.5,1.2
	c0,0,0,0,0,0.1c-0.7,0.5-1.1,1.1-1.3,1.8c0,0,0,0,0,0c0,0,0,0,0,0c0.2-0.7,0.2-1.4-0.2-2.2c0,0,0,0,0-0.1C27.3,1.9,27.6,1.7,28,1.5z
	 M36.4,7.3c0.4-0.2,0.9-0.2,1.2-0.2c0.1,0.4,0,0.8-0.2,1.2c0,0,0,0,0,0.1c-0.9,0-1.5,0.4-2,0.9c0,0,0,0,0,0c0,0,0,0,0,0
	C36,8.8,36.3,8.2,36.4,7.3C36.4,7.3,36.4,7.3,36.4,7.3z M41,31.8c-0.3-1.3-1.1-2.4-2.2-3.3c0,0,0-0.1,0.1-0.1
	c0.5,0.3,1.1,0.5,1.7,0.7c0.4,0.4,0.7,0.8,1.2,1.1C41.9,30.8,41.7,31.5,41,31.8z M40.2,32.7C40.2,32.7,40.2,32.7,40.2,32.7
	C40.2,32.7,40.3,32.7,40.2,32.7C40.3,32.7,40.3,32.7,40.2,32.7C40.3,32.7,40.3,32.7,40.2,32.7z M31.9,40.1c-0.9-0.3-1.8-0.8-2.5-1.5
	c0.8,0.1,1.7,0.6,2.5,1.1C31.9,39.9,31.9,40,31.9,40.1z M30.1,41.8c-0.3-0.4-0.7-0.8-1.1-1.2c-0.2-0.6-0.4-1.1-0.7-1.7
	c0,0,0.1-0.1,0.1-0.1c0.9,1.1,2.1,1.9,3.3,2.2C31.5,41.7,30.8,41.9,30.1,41.8z M25.4,43c-0.6,0.5-1.3,0.6-1.8,0.2
	c0.9-0.9,1.5-2.2,1.8-3.5c0.1,0,0.1,0,0.2,0c0,0.6,0.1,1.2,0.2,1.8C25.6,42,25.5,42.5,25.4,43z M19,41.5c0.1-0.6,0.2-1.2,0.2-1.8
	c0.1,0,0.1,0,0.2,0c0.3,1.4,0.9,2.6,1.8,3.5c-0.6,0.4-1.3,0.3-1.8-0.2C19.3,42.5,19.2,42,19,41.5z M13,41c1.3-0.3,2.4-1.1,3.3-2.2
	c0,0,0.1,0,0.1,0.1c-0.3,0.5-0.5,1.1-0.7,1.7c-0.4,0.4-0.8,0.7-1.1,1.2C14,41.9,13.3,41.7,13,41z M12.9,39.7c0.8-0.5,1.7-1,2.5-1.1
	c-0.7,0.7-1.6,1.2-2.5,1.5C12.9,40,12.9,39.9,12.9,39.7z M4.5,32.7C4.5,32.7,4.5,32.7,4.5,32.7C4.5,32.7,4.6,32.7,4.5,32.7
	C4.6,32.7,4.6,32.7,4.5,32.7C4.5,32.7,4.5,32.7,4.5,32.7z M3,30.1c0.4-0.3,0.8-0.7,1.2-1.1c0.6-0.2,1.1-0.4,1.7-0.7
	c0,0,0.1,0.1,0.1,0.1c-1.1,0.9-1.9,2.1-2.2,3.3C3.1,31.5,2.9,30.8,3,30.1z M3.8,13c0.3,1.3,1.1,2.4,2.2,3.3c0,0,0,0.1-0.1,0.1
	c-0.5-0.3-1.1-0.5-1.7-0.7C3.8,15.4,3.4,15,3,14.7C2.9,14,3.1,13.3,3.8,13z M4.6,12.1C4.6,12.1,4.6,12.1,4.6,12.1
	C4.6,12.1,4.5,12.1,4.6,12.1C4.5,12.1,4.5,12.1,4.6,12.1C4.5,12.1,4.5,12.1,4.6,12.1z M12.9,4.7c0.9,0.3,1.8,0.8,2.5,1.5
	c-0.8-0.1-1.7-0.6-2.5-1.1C12.9,4.9,12.9,4.8,12.9,4.7z M14.7,3c0.3,0.4,0.7,0.8,1.1,1.2c0.2,0.6,0.4,1.1,0.7,1.7
	c0,0-0.1,0.1-0.1,0.1c-0.9-1.1-2.1-1.9-3.3-2.2C13.3,3.1,14,2.9,14.7,3z M19.4,1.8c0.6-0.5,1.3-0.6,1.8-0.2
	c-0.9,0.9-1.5,2.2-1.8,3.5c-0.1,0-0.1,0-0.2,0c0-0.6-0.1-1.2-0.2-1.8C19.2,2.8,19.3,2.3,19.4,1.8z M25.8,3.3
	c-0.2,0.6-0.2,1.2-0.2,1.8c-0.1,0-0.1,0-0.2,0c-0.3-1.4-0.9-2.6-1.8-3.5c0.6-0.4,1.3-0.3,1.8,0.2C25.5,2.3,25.6,2.8,25.8,3.3z
	 M31.8,3.8c-1.3,0.3-2.4,1.1-3.3,2.2c0,0-0.1,0-0.1-0.1c0.3-0.5,0.5-1.1,0.7-1.7c0.4-0.4,0.8-0.7,1.1-1.2
	C30.8,2.9,31.5,3.1,31.8,3.8z M31.9,5.1c-0.8,0.5-1.7,1-2.5,1.1c0.7-0.7,1.6-1.2,2.5-1.5C31.9,4.8,31.9,4.9,31.9,5.1z M40.3,12.1
	C40.3,12.1,40.3,12.1,40.3,12.1C40.3,12.1,40.2,12.1,40.3,12.1C40.2,12.1,40.2,12.1,40.3,12.1C40.3,12.1,40.3,12.1,40.3,12.1z
	 M41.8,14.7c-0.4,0.3-0.8,0.7-1.2,1.1c-0.6,0.2-1.1,0.4-1.7,0.7c0,0-0.1-0.1-0.1-0.1c1.1-0.9,1.9-2.1,2.2-3.3
	C41.7,13.3,41.9,14,41.8,14.7z M43,22.4C43,22.4,43,22.4,43,22.4C43,22.4,43,22.4,43,22.4C43,22.4,43,22.4,43,22.4
	C43,22.4,43,22.4,43,22.4z M42.2,22c-0.8-0.4-1.7-1-2.2-1.6c1,0.3,1.9,0.8,2.5,1.4C42.4,21.8,42.3,21.9,42.2,22z M39.1,24.7
	c-0.2,0-0.4,0.1-0.6,0.1c-0.4-0.6-0.9-1.2-1.4-1.7c0-0.2,0-0.5,0-0.7c0-0.2,0-0.5,0-0.7c0.6-0.5,1-1.1,1.4-1.7
	c0.2,0,0.4,0.1,0.6,0.1c0.2,0.6,0.6,1.1,1.2,1.6c0.3,0.3,0.7,0.5,1,0.7c-0.4,0.2-0.7,0.4-1,0.7C39.7,23.6,39.3,24.1,39.1,24.7z
	 M38.9,27.2c-0.1,0-0.2,0-0.3,0.1c-0.4-0.3-0.8-0.6-1.2-0.8c0.5-0.1,0.9-0.1,1.4-0.1c0.1,0.1,0.2,0.1,0.3,0.2c0,0.1,0.1,0.3,0.1,0.4
	C39.1,27,39,27.1,38.9,27.2z M26.9,39.2c-0.1-0.1-0.3-0.1-0.4-0.1c-0.1-0.1-0.1-0.2-0.2-0.2c0-0.5,0.1-1,0.1-1.4
	c0.3,0.4,0.6,0.8,0.8,1.2c0,0.1,0,0.2-0.1,0.3C27.1,39,27,39.1,26.9,39.2z M17.6,38.9c0-0.1,0-0.2-0.1-0.3c0.3-0.4,0.6-0.8,0.8-1.2
	c0.1,0.5,0.1,0.9,0.1,1.4c-0.1,0.1-0.1,0.2-0.2,0.2c-0.1,0-0.3,0.1-0.4,0.1C17.8,39.1,17.7,39,17.6,38.9z M5.5,26.9
	c0.1-0.1,0.1-0.3,0.1-0.4c0.1-0.1,0.2-0.1,0.3-0.2c0.5,0,1,0.1,1.4,0.1C7,26.7,6.6,27,6.2,27.3c-0.1,0-0.2,0-0.3-0.1
	C5.8,27.1,5.7,27,5.5,26.9z M4.4,23.1c-0.3-0.3-0.7-0.5-1-0.7c0.4-0.2,0.7-0.4,1-0.7c0.6-0.5,1-1,1.2-1.6C5.8,20.1,6,20,6.2,20
	c0.4,0.6,0.9,1.2,1.4,1.7c0,0.2,0,0.5,0,0.7c0,0.2,0,0.5,0,0.7c-0.6,0.5-1,1.1-1.4,1.7c-0.2,0-0.4-0.1-0.6-0.1
	C5.4,24.1,5.1,23.6,4.4,23.1z M5.9,17.6c0.1,0,0.2,0,0.3-0.1c0.4,0.3,0.8,0.6,1.2,0.8c-0.5,0.1-0.9,0.1-1.4,0.1
	c-0.1-0.1-0.2-0.1-0.3-0.2c0-0.1-0.1-0.3-0.1-0.4C5.7,17.8,5.8,17.7,5.9,17.6z M17.9,5.5c0.1,0.1,0.3,0.1,0.4,0.1
	c0.1,0.1,0.1,0.2,0.2,0.3c0,0.5-0.1,1-0.1,1.4c-0.3-0.4-0.6-0.8-0.8-1.2c0-0.1,0-0.2,0.1-0.3C17.7,5.8,17.8,5.7,17.9,5.5z M27.2,5.9
	c0,0.1,0,0.2,0.1,0.3C27,6.6,26.7,7,26.4,7.4c-0.1-0.5-0.1-0.9-0.1-1.4c0.1-0.1,0.1-0.2,0.2-0.3c0.1,0,0.3-0.1,0.4-0.1
	C27,5.7,27.1,5.8,27.2,5.9z M39.2,17.9c-0.1,0.1-0.1,0.3-0.1,0.4c-0.1,0.1-0.2,0.1-0.3,0.2c-0.5,0-1-0.1-1.4-0.1
	c0.4-0.3,0.8-0.6,1.2-0.8c0.1,0,0.2,0,0.3,0.1C39,17.7,39.1,17.8,39.2,17.9z M34.4,29.3C34.4,29.4,34.4,29.4,34.4,29.3
	C34.3,29.4,34.3,29.4,34.4,29.3C34.3,29.4,34.3,29.3,34.4,29.3c0-0.1,0-0.1,0-0.1c0,0,0,0,0,0C34.4,29.3,34.4,29.3,34.4,29.3z
	 M10.4,29.2C10.4,29.2,10.4,29.2,10.4,29.2C10.4,29.3,10.4,29.3,10.4,29.2c0.1,0.1,0.1,0.1,0.1,0.2c0,0,0,0,0,0c0,0,0-0.1-0.1-0.1
	C10.4,29.3,10.4,29.3,10.4,29.2z M10.4,15.5C10.4,15.4,10.4,15.4,10.4,15.5C10.5,15.4,10.5,15.4,10.4,15.5
	C10.5,15.4,10.4,15.5,10.4,15.5c0,0,0,0.1,0,0.1C10.4,15.6,10.4,15.6,10.4,15.5C10.4,15.5,10.4,15.5,10.4,15.5z M34.4,15.6
	C34.4,15.6,34.4,15.6,34.4,15.6C34.4,15.5,34.4,15.5,34.4,15.6c-0.1-0.1-0.1-0.1-0.1-0.2c0,0,0,0,0,0c0,0,0,0.1,0.1,0.1
	C34.4,15.5,34.4,15.5,34.4,15.6z M19.1,34.8C19.1,34.8,19,34.7,19.1,34.8C19,34.7,19,34.7,19.1,34.8c0-0.1,0-0.1,0-0.2
	C19.1,34.7,19.1,34.7,19.1,34.8C19.2,34.8,19.2,34.8,19.1,34.8C19.1,34.8,19.1,34.8,19.1,34.8z M19.2,10C19.2,10,19.2,10,19.2,10
	c0,0.1,0,0.1,0,0.2c0,0-0.1-0.1-0.1-0.1c0,0,0,0,0,0C19,10.1,19.1,10,19.2,10C19.1,10,19.1,10,19.2,10z M25.7,10
	C25.7,10,25.7,10.1,25.7,10C25.8,10.1,25.8,10.1,25.7,10c0,0.1,0,0.1,0,0.2C25.7,10.1,25.6,10.1,25.7,10C25.6,10,25.6,10,25.7,10
	C25.7,10,25.7,10,25.7,10z M22.4,32.3c-0.2-0.2-0.4-0.4-0.6-0.6c-0.1-0.2-0.2-0.4-0.3-0.6c0.2,0.2,0.4,0.2,0.7,0.3c0,0,0.1,0,0.1,0
	c0,0,0.1,0,0.1,0c0.1,0,0.1,0,0.2,0c0,0,0,0,0.1,0c0.2,0,0.4-0.1,0.7-0.3c-0.1,0.2-0.2,0.4-0.3,0.6C22.8,31.8,22.6,32,22.4,32.3z
	 M22.4,12.5c0.2,0.2,0.4,0.4,0.6,0.6c0.1,0.2,0.2,0.4,0.3,0.6c-0.2-0.2-0.5-0.2-0.7-0.3c0,0,0,0-0.1,0c0,0-0.1,0-0.1,0
	c0,0-0.1,0-0.1,0c0,0,0,0-0.1,0c-0.2,0-0.4,0.1-0.7,0.3c0.1-0.2,0.2-0.4,0.3-0.6C22,13,22.2,12.7,22.4,12.5z M32.3,22.4
	c-0.2,0.2-0.4,0.4-0.6,0.6c-0.2,0.1-0.4,0.2-0.6,0.3c0.2-0.2,0.2-0.5,0.3-0.7c0,0,0,0,0-0.1c0,0,0-0.1,0-0.1c0,0,0-0.1,0-0.1
	c0,0,0,0,0-0.1c0-0.2-0.1-0.4-0.3-0.7c0.2,0.1,0.4,0.2,0.6,0.3C31.8,22,32,22.2,32.3,22.4z M25.9,28.4c-0.2,0.1-0.4,0.2-0.5,0.3
	c-0.4-0.9-0.9-1.7-1.5-2.5c0-0.4,0.1-0.7,0.1-1.1c0.3,0.1,0.6,0.3,1,0.4c0.4,0.9,0.9,1.8,1.4,2.5C26.2,28.2,26,28.3,25.9,28.4z
	 M23.8,24.2c-0.1-0.1-0.3,0-0.3,0.1c-0.1,0-0.2,0.1-0.2,0.3c0,0.2-0.1,0.5-0.1,0.7c-0.1-0.2-0.3-0.4-0.4-0.6
	c-0.1-0.1-0.2-0.1-0.3-0.1c-0.1,0-0.2,0-0.3,0.1c-0.1,0.2-0.3,0.4-0.4,0.6c0-0.2-0.1-0.5-0.1-0.7c0-0.2-0.1-0.2-0.2-0.3
	c-0.1-0.1-0.2-0.1-0.3-0.1c-0.2,0.1-0.4,0.2-0.7,0.3c0.1-0.2,0.2-0.4,0.3-0.7c0.1-0.1,0-0.3-0.1-0.3c0-0.1-0.1-0.2-0.3-0.2
	c-0.2,0-0.5-0.1-0.7-0.1c0.2-0.1,0.4-0.3,0.6-0.4c0.1-0.1,0.1-0.2,0.1-0.3c0-0.1,0-0.2-0.1-0.3c-0.2-0.1-0.4-0.3-0.6-0.4
	c0.2,0,0.5-0.1,0.7-0.1c0.2,0,0.2-0.1,0.3-0.2c0.1-0.1,0.1-0.2,0.1-0.3c-0.1-0.2-0.2-0.4-0.3-0.7c0.2,0.1,0.4,0.2,0.7,0.3
	c0.1,0.1,0.3,0,0.3-0.1c0.1,0,0.2-0.1,0.2-0.3c0-0.2,0.1-0.5,0.1-0.7c0.1,0.2,0.3,0.4,0.4,0.6c0.1,0.1,0.2,0.1,0.3,0.1
	c0.1,0,0.2,0,0.3-0.1c0.1-0.2,0.3-0.4,0.4-0.6c0,0.2,0.1,0.5,0.1,0.7c0,0.2,0.1,0.2,0.2,0.3c0.1,0.1,0.2,0.1,0.3,0.1
	c0.2-0.1,0.4-0.2,0.7-0.3c-0.1,0.2-0.2,0.4-0.3,0.7c-0.1,0.1,0,0.3,0.1,0.3c0,0.1,0.1,0.2,0.3,0.2c0.2,0,0.5,0.1,0.7,0.1
	c-0.2,0.1-0.4,0.3-0.6,0.4c-0.1,0.1-0.1,0.2-0.1,0.3c0,0.1,0,0.2,0.1,0.3c0.2,0.1,0.4,0.3,0.6,0.4c-0.2,0-0.5,0.1-0.7,0.1
	c-0.2,0-0.2,0.1-0.3,0.2c-0.1,0.1-0.1,0.2-0.1,0.3c0.1,0.2,0.2,0.4,0.3,0.7C24.3,24.4,24,24.3,23.8,24.2z M20.5,29.6
	c-0.1-0.1-0.2-0.2-0.3-0.3c0.2-0.5,0.5-1.1,0.8-1.6c0,0.6,0,1.2-0.1,1.8C20.7,29.5,20.6,29.6,20.5,29.6z M12.5,22.4
	c0.2-0.2,0.4-0.4,0.6-0.6c0.2-0.1,0.4-0.2,0.6-0.3c-0.1,0.2-0.2,0.4-0.3,0.6c0,0,0,0.1,0,0.1c0,0,0,0.1,0,0.1c0,0.1,0,0.1,0,0.2
	c0,0,0,0,0,0c0,0.2,0.1,0.4,0.3,0.7c-0.2-0.1-0.4-0.2-0.6-0.3C13,22.8,12.7,22.6,12.5,22.4z M19.7,20.8c-0.3,0-0.7,0.1-1.1,0.1
	c-0.8-0.6-1.6-1.1-2.5-1.5c0.1-0.2,0.2-0.3,0.3-0.5c0.1-0.2,0.2-0.3,0.3-0.5c0.8,0.6,1.7,1,2.5,1.4C19.4,20.2,19.6,20.5,19.7,20.8z
	 M15.5,23c0-0.2,0-0.4,0-0.6c0-0.2,0-0.4,0-0.6c1,0.1,2,0.1,2.9,0c0.3,0.2,0.6,0.4,0.9,0.6c-0.3,0.2-0.6,0.4-0.9,0.6
	C17.4,22.9,16.4,22.9,15.5,23z M15.5,20.2c0.5,0.2,1.1,0.5,1.6,0.8c-0.6,0-1.2,0-1.8-0.1c0-0.1-0.1-0.3-0.1-0.4
	C15.3,20.4,15.4,20.3,15.5,20.2z M15.3,23.9c0.6-0.1,1.2-0.1,1.8-0.1c-0.5,0.3-1,0.5-1.6,0.8c-0.1-0.1-0.2-0.2-0.3-0.3
	C15.2,24.2,15.3,24.1,15.3,23.9z M16.4,25.9c-0.1-0.2-0.2-0.4-0.3-0.5c0.9-0.4,1.7-0.9,2.5-1.5c0.4,0,0.7,0.1,1.1,0.1
	c-0.1,0.3-0.3,0.6-0.4,1c-0.9,0.4-1.8,0.9-2.5,1.5C16.6,26.2,16.5,26,16.4,25.9z M20.8,15.3c0.1,0.6,0.1,1.2,0.1,1.8
	c-0.3-0.5-0.5-1-0.8-1.6c0.1-0.1,0.2-0.2,0.3-0.3C20.6,15.2,20.7,15.3,20.8,15.3z M18.9,16.4c0.2-0.1,0.4-0.2,0.5-0.3
	c0.4,0.9,0.9,1.7,1.5,2.5c0,0.4-0.1,0.7-0.1,1.1c-0.3-0.1-0.6-0.3-1-0.4c-0.4-0.9-0.9-1.8-1.4-2.5C18.6,16.6,18.8,16.5,18.9,16.4z
	 M24.3,15.2c0.1,0.1,0.2,0.2,0.3,0.3c-0.2,0.5-0.5,1.1-0.8,1.6c0-0.6,0-1.2,0.1-1.8C24.1,15.3,24.2,15.2,24.3,15.2z M26.4,23
	c-0.3-0.2-0.6-0.4-0.9-0.6c0.3-0.2,0.6-0.4,0.9-0.6c1,0.1,2,0.1,2.9,0c0,0.2,0,0.4,0,0.6c0,0.2,0,0.4,0,0.6
	C28.4,22.9,27.4,22.9,26.4,23z M29.5,20.8c-0.6,0.1-1.2,0.1-1.8,0.1c0.5-0.3,1-0.5,1.6-0.8c0.1,0.1,0.2,0.2,0.3,0.3
	C29.6,20.6,29.5,20.7,29.5,20.8z M28.4,18.9c0.1,0.2,0.2,0.4,0.3,0.5c-0.9,0.4-1.7,0.9-2.5,1.5c-0.4,0-0.7-0.1-1.1-0.1
	c0.1-0.3,0.3-0.6,0.4-1c0.9-0.4,1.8-0.9,2.5-1.4C28.2,18.6,28.3,18.8,28.4,18.9z M25.1,24c0.3,0,0.7-0.1,1.1-0.1
	c0.8,0.6,1.6,1.1,2.5,1.5c-0.1,0.2-0.2,0.4-0.3,0.5c-0.1,0.2-0.2,0.3-0.3,0.5c-0.8-0.6-1.7-1-2.5-1.5C25.4,24.6,25.2,24.3,25.1,24z
	 M29.3,24.6c-0.5-0.2-1.1-0.5-1.6-0.8c0.6,0,1.2,0,1.8,0.1c0,0.1,0.1,0.3,0.1,0.4C29.5,24.4,29.4,24.5,29.3,24.6z M31.1,20.4
	c-0.1-0.1-0.2-0.1-0.3-0.2c0,0,0,0-0.1,0c0,0,0,0,0-0.1c0.1-0.1,0.1-0.2,0.2-0.3c0.1,0.1,0.1,0.2,0.2,0.3
	C31.1,20.2,31.1,20.3,31.1,20.4z M27.8,17.5c-0.5,0.4-1,0.7-1.5,1c0.3-0.5,0.6-1,1-1.5c0.1,0,0.3,0.1,0.4,0.1
	C27.7,17.3,27.7,17.4,27.8,17.5z M26.4,16.7c-0.6,0.8-1,1.7-1.4,2.5c-0.3,0.2-0.7,0.3-1,0.4c0-0.3-0.1-0.7-0.1-1.1
	c0.6-0.8,1.1-1.6,1.5-2.5c0.2,0.1,0.3,0.2,0.5,0.3C26,16.5,26.2,16.6,26.4,16.7z M25,13.9c-0.1,0.1-0.2,0.1-0.3,0.2c0,0,0,0-0.1,0
	c0,0,0,0,0-0.1c-0.1-0.1-0.1-0.2-0.2-0.3c0.1,0,0.2,0,0.4-0.1C24.8,13.7,24.9,13.8,25,13.9z M23,15.5c-0.1,1-0.1,2,0,2.9
	c-0.2,0.3-0.4,0.6-0.6,0.9c-0.2-0.3-0.4-0.6-0.6-0.9c0.1-1,0.1-2,0-2.9c0.2,0,0.4,0,0.6,0C22.6,15.5,22.8,15.5,23,15.5z M20.2,14
	C20.2,14,20.2,14.1,20.2,14c-0.1,0-0.1,0-0.1,0c-0.1-0.1-0.2-0.1-0.3-0.2c0.1-0.1,0.2-0.1,0.3-0.2c0.1,0,0.2,0.1,0.4,0.1
	C20.3,13.8,20.3,13.9,20.2,14z M17.5,17c0.4,0.5,0.7,1,1,1.5c-0.5-0.3-1-0.6-1.5-1c0-0.1,0.1-0.3,0.1-0.4
	C17.3,17.1,17.4,17.1,17.5,17z M13.9,19.8c0.1,0.1,0.1,0.2,0.2,0.3c0,0,0,0,0,0.1c0,0,0,0-0.1,0c-0.1,0.1-0.2,0.1-0.3,0.2
	c0-0.1,0-0.2-0.1-0.4C13.7,20,13.8,19.9,13.9,19.8z M13.7,24.4c0.1,0.1,0.2,0.1,0.3,0.2c0,0,0,0,0.1,0c0,0,0,0,0,0.1
	c-0.1,0.1-0.1,0.2-0.2,0.3c-0.1-0.1-0.1-0.2-0.2-0.3C13.7,24.6,13.7,24.5,13.7,24.4z M17,27.3c0.5-0.4,1-0.7,1.5-1
	c-0.3,0.5-0.6,1-1,1.5c-0.1,0-0.3-0.1-0.4-0.1C17.1,27.5,17.1,27.4,17,27.3z M18.4,28.1c0.6-0.8,1-1.7,1.4-2.5
	c0.3-0.2,0.7-0.3,1-0.4c0,0.3,0.1,0.7,0.1,1.1c-0.6,0.8-1.1,1.6-1.5,2.5c-0.2-0.1-0.3-0.2-0.5-0.3C18.8,28.3,18.6,28.2,18.4,28.1z
	 M19.8,30.9c0.1-0.1,0.2-0.1,0.3-0.2c0,0,0,0,0.1,0c0,0,0,0,0,0.1c0.1,0.1,0.1,0.2,0.2,0.3c-0.1,0-0.2,0-0.4,0.1
	C20,31.1,19.9,31,19.8,30.9z M21.8,29.3c0.1-1,0.1-2,0-2.9c0.2-0.3,0.4-0.6,0.6-0.9c0.2,0.3,0.4,0.6,0.6,0.9c-0.1,1-0.1,2,0,2.9
	c-0.2,0-0.4,0-0.6,0C22.2,29.3,22,29.3,21.8,29.3z M23.9,29.5c-0.1-0.6-0.1-1.2-0.1-1.8c0.3,0.5,0.5,1,0.8,1.6
	c-0.1,0.1-0.2,0.2-0.3,0.3C24.2,29.6,24.1,29.5,23.9,29.5z M27.3,27.8c-0.4-0.5-0.7-1-1-1.5c0.5,0.3,1,0.6,1.5,1
	c0,0.1-0.1,0.3-0.1,0.4C27.5,27.7,27.4,27.7,27.3,27.8z M30.9,25c-0.1-0.1-0.1-0.2-0.2-0.3c0,0,0,0,0-0.1c0,0,0,0,0.1,0
	c0.1-0.1,0.2-0.1,0.3-0.2c0,0.1,0,0.2,0.1,0.4C31.1,24.8,31,24.9,30.9,25z M30.4,18.8c0-0.3,0-0.5-0.1-0.7c0,0,0,0,0-0.1
	c0,0,0-0.1-0.1-0.1c0,0,0-0.1-0.1-0.1c0,0,0,0,0-0.1c-0.1-0.2-0.3-0.3-0.6-0.4c0.2,0,0.4,0,0.6,0c0.3,0.1,0.5,0.2,0.8,0.2
	c-0.1,0.3-0.2,0.5-0.2,0.8C30.6,18.4,30.5,18.6,30.4,18.8z M28.8,16c0,0.1,0.1,0.2,0.1,0.3c-0.1,0-0.2,0-0.4,0c0,0,0,0-0.1,0
	c0,0,0,0,0-0.1c0-0.1,0-0.2,0-0.4C28.6,15.9,28.7,16,28.8,16z M18.3,14.1c0.2,0.1,0.4,0.2,0.5,0.3c-0.3,0-0.5,0-0.7,0.1
	c0,0,0,0-0.1,0c0,0-0.1,0-0.1,0.1c0,0-0.1,0-0.1,0.1c0,0,0,0-0.1,0c-0.2,0.1-0.3,0.3-0.4,0.6c0-0.2,0-0.4,0-0.6
	c0.1-0.3,0.2-0.5,0.2-0.8C17.7,14,18,14,18.3,14.1z M16.3,16.2C16.3,16.3,16.3,16.3,16.3,16.2C16.3,16.3,16.3,16.3,16.3,16.2
	c-0.2,0.1-0.3,0.1-0.4,0.1c0.1-0.1,0.1-0.2,0.1-0.3c0.1,0,0.2-0.1,0.3-0.1C16.3,16,16.3,16.1,16.3,16.2z M13.8,17.5
	c0.3,0,0.6-0.1,0.8-0.2c0.2,0,0.4,0,0.6,0c-0.2,0.1-0.4,0.3-0.6,0.4c0,0,0,0-0.1,0.1c0,0,0,0.1-0.1,0.1c0,0-0.1,0.1-0.1,0.1
	c0,0,0,0,0,0.1c-0.1,0.2-0.1,0.4-0.1,0.7c-0.1-0.2-0.2-0.4-0.3-0.5C14,18,14,17.7,13.8,17.5z M12.3,20.8
	C12.3,20.8,12.3,20.9,12.3,20.8c0.2,0.1,0.3,0.1,0.4,0.2c0,0,0,0-0.1,0c-0.3,0.2-0.7,0.3-1,0.5c0.1-0.3,0.1-0.6,0.1-0.9
	C11.9,20.7,12.1,20.8,12.3,20.8z M12.7,23.7C12.7,23.7,12.7,23.7,12.7,23.7c-0.1,0.1-0.2,0.1-0.3,0.2c0,0,0,0-0.1,0
	c-0.2,0.1-0.4,0.1-0.5,0.2c0-0.3-0.1-0.6-0.1-0.9C12,23.4,12.3,23.5,12.7,23.7z M14.4,26c0,0.3,0,0.5,0.1,0.7c0,0,0,0,0,0.1
	c0,0,0,0.1,0.1,0.1c0,0,0,0.1,0.1,0.1c0,0,0,0,0,0c0.1,0.2,0.3,0.3,0.6,0.4c-0.2,0-0.4,0-0.6,0c-0.3-0.1-0.5-0.2-0.8-0.2
	c0.1-0.3,0.2-0.5,0.2-0.8C14.2,26.4,14.3,26.2,14.4,26z M16,28.8c0-0.1-0.1-0.2-0.1-0.3c0.1,0,0.2,0,0.4,0c0,0,0,0,0.1,0
	c0,0,0,0,0,0.1c0,0.1,0,0.2,0,0.4C16.2,28.9,16.1,28.8,16,28.8z M24.4,31.1c0.1-0.1,0.1-0.2,0.2-0.3c0,0,0,0,0-0.1c0,0,0,0,0.1,0
	c0.1,0.1,0.2,0.1,0.3,0.2c-0.1,0.1-0.2,0.1-0.3,0.2C24.6,31.1,24.5,31.1,24.4,31.1z M26.5,30.7c-0.2-0.1-0.3-0.2-0.5-0.3
	c0.3,0,0.5,0,0.7-0.1c0,0,0.1,0,0.1,0c0,0,0.1,0,0.1-0.1c0,0,0.1,0,0.1-0.1c0,0,0,0,0,0c0.2-0.1,0.3-0.3,0.4-0.6c0,0.2,0,0.4,0,0.6
	c-0.1,0.3-0.2,0.5-0.2,0.8C27.1,30.8,26.8,30.8,26.5,30.7z M28.5,28.6C28.5,28.5,28.5,28.5,28.5,28.6C28.5,28.5,28.5,28.5,28.5,28.6
	c0.2-0.1,0.3-0.1,0.4-0.1c-0.1,0.1-0.1,0.2-0.1,0.3c-0.1,0-0.2,0.1-0.3,0.1C28.5,28.8,28.5,28.7,28.5,28.6z M30.9,27.3
	c-0.3,0-0.6,0.1-0.8,0.2c-0.2,0-0.4,0-0.6,0c0.3-0.1,0.4-0.3,0.6-0.4c0,0,0,0,0,0c0,0,0.1-0.1,0.1-0.1c0,0,0-0.1,0.1-0.1
	c0,0,0,0,0-0.1c0.1-0.2,0.1-0.4,0.1-0.7c0.1,0.2,0.2,0.4,0.3,0.5C30.8,26.8,30.8,27.1,30.9,27.3z M32.5,24
	C32.5,23.9,32.5,23.9,32.5,24c-0.2-0.1-0.3-0.1-0.4-0.2c0,0,0,0,0.1,0c0.3-0.2,0.7-0.3,1-0.5c-0.1,0.3-0.1,0.6-0.1,0.9
	C32.8,24.1,32.7,24,32.5,24z M32.1,21.1C32.1,21.1,32.1,21,32.1,21.1c0.1-0.1,0.2-0.1,0.3-0.2c0,0,0,0,0.1,0
	c0.2-0.1,0.4-0.1,0.5-0.2c0,0.3,0.1,0.6,0.1,0.9C32.8,21.4,32.5,21.3,32.1,21.1z M30.2,16.4C30.1,16.4,30.1,16.4,30.2,16.4
	c0-0.1,0.1-0.2,0.2-0.3c0,0,0,0,0-0.1c0.1-0.1,0.2-0.3,0.4-0.4c0.2,0.3,0.3,0.5,0.6,0.7C30.9,16.3,30.6,16.4,30.2,16.4z M27.5,15.3
	c-0.1-0.2-0.3-0.4-0.4-0.6c0,0,0,0-0.1-0.1c0,0-0.1,0-0.1-0.1c0,0-0.1-0.1-0.1-0.1c0,0,0,0-0.1,0c-0.2-0.1-0.4-0.1-0.7-0.1
	c0.2-0.1,0.4-0.2,0.5-0.3c0.3,0,0.5-0.1,0.8-0.2c0,0.3,0.1,0.6,0.2,0.8C27.5,14.9,27.5,15.1,27.5,15.3z M26.1,13.3
	C26.1,13.3,26.1,13.3,26.1,13.3c-0.1-0.1,0-0.2,0-0.4c0,0,0,0,0-0.1c0-0.2,0.1-0.4,0.1-0.6c0.3,0.1,0.6,0.3,0.8,0.3
	C26.8,12.9,26.5,13.1,26.1,13.3z M18.7,12.9C18.7,12.9,18.7,12.9,18.7,12.9c0,0.2,0,0.3,0,0.5c0,0,0,0-0.1,0
	c-0.3-0.2-0.6-0.4-0.9-0.7c0.3-0.1,0.6-0.2,0.8-0.3C18.6,12.5,18.7,12.7,18.7,12.9z M14.1,15.6c0.1,0.1,0.2,0.3,0.4,0.4
	c0,0,0,0,0,0.1c0.1,0.1,0.2,0.2,0.2,0.3c0,0,0,0-0.1,0c-0.4,0-0.8,0-1.1-0.1C13.7,16.1,13.9,15.8,14.1,15.6z M11,20.4
	c0,0.4-0.1,0.8-0.2,1.2c-0.2,0-0.3,0-0.5,0c-0.2-0.4-0.3-0.9-0.4-1.4C10.3,20.2,10.7,20.3,11,20.4z M10.4,23.2c0.1,0,0.3,0,0.5,0
	c0.1,0.4,0.2,0.8,0.2,1.2c-0.3,0.1-0.7,0.2-1,0.2C10,24.1,10.1,23.7,10.4,23.2z M14.6,28.4C14.7,28.4,14.7,28.4,14.6,28.4
	c0,0.1-0.1,0.2-0.2,0.3c0,0,0,0,0,0.1c-0.1,0.1-0.2,0.3-0.4,0.4c-0.2-0.3-0.3-0.5-0.6-0.7C13.9,28.5,14.2,28.4,14.6,28.4z
	 M17.3,29.5c0.1,0.2,0.3,0.4,0.4,0.6c0,0,0,0,0.1,0.1c0,0,0.1,0,0.1,0.1c0,0,0.1,0.1,0.1,0.1c0,0,0,0,0.1,0c0.2,0.1,0.4,0.1,0.7,0.1
	c-0.2,0.1-0.4,0.2-0.5,0.3c-0.3,0-0.5,0.1-0.8,0.2c0-0.3-0.1-0.6-0.2-0.8C17.3,29.9,17.3,29.7,17.3,29.5z M18.7,31.5
	C18.7,31.5,18.7,31.5,18.7,31.5c0.1,0.1,0,0.2,0,0.4c0,0,0,0,0,0.1c0,0.2-0.1,0.4-0.1,0.6c-0.3-0.1-0.6-0.3-0.8-0.3
	C18,31.9,18.3,31.7,18.7,31.5z M26.1,31.9C26.1,31.9,26.1,31.9,26.1,31.9c0-0.2,0-0.3,0-0.5c0,0,0,0,0.1,0c0.3,0.2,0.6,0.4,0.9,0.7
	c-0.3,0.1-0.6,0.2-0.8,0.3C26.1,32.3,26.1,32.1,26.1,31.9z M30.7,29.2c-0.1-0.1-0.2-0.3-0.4-0.4c0,0,0,0,0-0.1
	c-0.1-0.1-0.2-0.2-0.2-0.3c0,0,0,0,0.1,0c0.4,0,0.8,0,1.1,0.1C31.1,28.7,30.9,29,30.7,29.2z M33.8,24.4c0-0.4,0.1-0.8,0.2-1.2
	c0.2,0,0.3,0,0.5,0c0.2,0.4,0.3,0.9,0.4,1.4C34.5,24.6,34.1,24.5,33.8,24.4z M34.4,21.6c-0.1,0-0.3,0-0.5,0
	c-0.1-0.4-0.2-0.8-0.2-1.2c0.3-0.1,0.7-0.2,1-0.2C34.8,20.6,34.7,21.1,34.4,21.6z M31.9,18.7C31.9,18.7,31.9,18.7,31.9,18.7
	c-0.2,0-0.3,0-0.5,0c0,0,0,0,0-0.1c0.2-0.3,0.4-0.6,0.7-0.9c0.1,0.3,0.2,0.6,0.3,0.8C32.3,18.6,32.1,18.7,31.9,18.7z M32,15.9
	c-0.3-0.3-0.6-0.6-0.8-0.9c0.2-0.2,0.5-0.5,0.8-0.7c0.2,0.4,0.3,0.9,0.4,1.4C32.3,15.7,32.1,15.8,32,15.9z M27.5,12
	c-0.4-0.1-0.8-0.2-1.1-0.4c0.1-0.3,0.2-0.7,0.3-1c0.4,0.3,0.7,0.6,1,1C27.6,11.7,27.5,11.8,27.5,12z M24,12.3
	C23.9,12.3,23.9,12.3,24,12.3c-0.1,0.2-0.1,0.3-0.2,0.4c0,0,0,0,0-0.1c-0.2-0.3-0.3-0.7-0.5-1c0.3,0.1,0.6,0.1,0.9,0.1
	C24.1,11.9,24,12.1,24,12.3z M21.1,12.7C21.1,12.7,21,12.7,21.1,12.7c-0.1-0.1-0.1-0.2-0.2-0.3c0,0,0,0,0-0.1
	c-0.1-0.2-0.1-0.4-0.2-0.5c0.3,0,0.6-0.1,0.9-0.1C21.4,12,21.3,12.3,21.1,12.7z M17.3,12c-0.1-0.1-0.1-0.3-0.2-0.4
	c0.3-0.4,0.6-0.8,1-1c0.1,0.3,0.2,0.7,0.3,1C18.1,11.7,17.7,11.9,17.3,12z M13.5,15c-0.2,0.3-0.5,0.7-0.8,0.9
	c-0.1-0.1-0.3-0.2-0.4-0.3c0-0.5,0.2-1,0.4-1.4C13,14.5,13.3,14.7,13.5,15z M13.3,18.7C13.3,18.7,13.3,18.7,13.3,18.7
	c-0.1,0.1-0.2,0-0.4,0c0,0,0,0-0.1,0c-0.2,0-0.4-0.1-0.6-0.1c0.1-0.3,0.3-0.6,0.3-0.8C12.9,18,13.1,18.3,13.3,18.7z M12.9,26.1
	C12.9,26.1,12.9,26.1,12.9,26.1c0.2,0,0.3,0,0.5,0c0,0,0,0,0,0.1c-0.2,0.3-0.4,0.6-0.7,0.9c-0.1-0.3-0.2-0.6-0.3-0.8
	C12.5,26.1,12.7,26.1,12.9,26.1z M12.8,28.9c0.3,0.3,0.6,0.6,0.8,0.9c-0.2,0.2-0.5,0.5-0.8,0.7c-0.2-0.4-0.3-0.9-0.4-1.4
	C12.5,29.1,12.6,29,12.8,28.9z M17.3,32.8c0.4,0.1,0.8,0.2,1.1,0.4c-0.1,0.3-0.2,0.7-0.3,1c-0.4-0.3-0.7-0.6-1-1
	C17.2,33.1,17.3,33,17.3,32.8z M20.8,32.5C20.8,32.5,20.9,32.5,20.8,32.5c0.1-0.2,0.1-0.3,0.2-0.4c0,0,0,0,0,0.1
	c0.2,0.3,0.3,0.7,0.5,1c-0.3-0.1-0.6-0.1-0.9-0.1C20.7,32.8,20.8,32.7,20.8,32.5z M23.7,32.1C23.7,32.1,23.7,32.1,23.7,32.1
	c0.1,0.1,0.1,0.2,0.2,0.3c0,0,0,0,0,0.1c0.1,0.2,0.1,0.4,0.2,0.5c-0.3,0-0.6,0.1-0.9,0.1C23.4,32.8,23.5,32.5,23.7,32.1z M27.5,32.8
	c0.1,0.1,0.1,0.3,0.2,0.4c-0.3,0.4-0.6,0.8-1,1c-0.1-0.3-0.2-0.7-0.3-1C26.7,33.1,27.1,32.9,27.5,32.8z M31.3,29.8
	c0.2-0.3,0.5-0.7,0.8-0.9c0.1,0.1,0.3,0.2,0.4,0.3c0,0.5-0.2,1-0.4,1.4C31.8,30.3,31.5,30.1,31.3,29.8z M31.5,26.1
	C31.5,26.1,31.5,26.1,31.5,26.1c0.1-0.1,0.2,0,0.4,0c0,0,0,0,0.1,0c0.2,0,0.4,0.1,0.6,0.1c-0.1,0.3-0.3,0.6-0.3,0.8
	C31.9,26.8,31.7,26.5,31.5,26.1z M34.6,19.1c0,0,0.1-0.1,0.1-0.1c0,0,0,0,0,0c0,0,0,0,0,0.1c0,0,0,0,0,0.1c0,0,0,0,0,0
	C34.7,19.1,34.7,19.1,34.6,19.1z M33.3,18.4c-0.2-0.3-0.4-0.7-0.4-1.1c0.1-0.1,0.3-0.1,0.4-0.2c0.4,0.3,0.8,0.6,1,1
	C33.9,18.2,33.6,18.3,33.3,18.4z M33.1,15.2C33.1,15.2,33.1,15.2,33.1,15.2C33.2,15.2,33.2,15.2,33.1,15.2
	C33.2,15.2,33.2,15.2,33.1,15.2z M31.3,13.5c0,0,0-0.1,0-0.1c0,0,0,0,0,0c0,0,0,0,0.1,0c0,0,0,0,0,0.1c0,0,0,0,0,0
	C31.4,13.4,31.4,13.4,31.3,13.5z M28.8,14.4C28.8,14.4,28.8,14.5,28.8,14.4c-0.2,0.1-0.3,0.2-0.4,0.3c0,0,0,0,0-0.1
	c0-0.4,0-0.8,0.1-1.1c0.2,0.2,0.5,0.4,0.7,0.6C29.1,14.2,28.9,14.3,28.8,14.4z M24.4,11c-0.4,0-0.8-0.1-1.2-0.2c0-0.2,0-0.3,0-0.5
	c0.4-0.2,0.9-0.3,1.4-0.4C24.6,10.3,24.5,10.7,24.4,11z M21.6,10.4c0,0.1,0,0.3,0,0.5c-0.4,0.1-0.8,0.2-1.2,0.2
	c-0.1-0.3-0.2-0.7-0.2-1C20.6,10,21.1,10.1,21.6,10.4z M16.3,13.5c0.1,0.3,0.1,0.7,0.1,1.1c0,0,0,0,0,0.1c-0.1-0.1-0.2-0.2-0.3-0.2
	c0,0,0,0-0.1,0c-0.1-0.1-0.3-0.2-0.4-0.4C15.8,13.9,16.1,13.7,16.3,13.5z M13.3,13.3C13.4,13.3,13.4,13.3,13.3,13.3
	C13.4,13.3,13.4,13.3,13.3,13.3c0.1,0,0.1,0.1,0.1,0.1C13.4,13.4,13.4,13.4,13.3,13.3C13.3,13.4,13.3,13.4,13.3,13.3
	C13.3,13.4,13.3,13.4,13.3,13.3z M11.6,15.2C11.6,15.2,11.6,15.2,11.6,15.2C11.6,15.2,11.6,15.2,11.6,15.2
	C11.7,15.2,11.7,15.2,11.6,15.2z M11.6,17.1c0.1,0.1,0.3,0.1,0.4,0.2c-0.1,0.4-0.2,0.8-0.4,1.1c-0.3-0.1-0.7-0.2-1-0.3
	C10.8,17.7,11.1,17.4,11.6,17.1z M10,19.1C10,19.1,10.1,19,10,19.1C10.1,19,10.1,19,10,19.1c0.1,0,0.1,0,0.2,0
	C10.1,19.1,10.1,19.1,10,19.1C10,19.2,10,19.2,10,19.1C10,19.1,10,19.1,10,19.1z M9.5,21.6C9.5,21.6,9.5,21.6,9.5,21.6
	C9.5,21.6,9.5,21.5,9.5,21.6C9.5,21.5,9.5,21.5,9.5,21.6z M9.5,23.2C9.5,23.2,9.5,23.2,9.5,23.2C9.5,23.3,9.5,23.3,9.5,23.2
	C9.5,23.3,9.5,23.2,9.5,23.2z M10.2,25.7c0,0-0.1,0.1-0.1,0.1c0,0,0,0,0,0c0,0,0,0,0-0.1c0,0,0,0,0-0.1c0,0,0,0,0,0
	C10.1,25.6,10.1,25.7,10.2,25.7z M11.5,26.4c0.2,0.3,0.4,0.7,0.4,1.1c-0.1,0.1-0.3,0.1-0.4,0.2c-0.4-0.3-0.8-0.6-1-1
	C10.9,26.6,11.2,26.5,11.5,26.4z M11.6,29.6C11.7,29.6,11.7,29.6,11.6,29.6C11.6,29.6,11.6,29.6,11.6,29.6
	C11.6,29.6,11.6,29.6,11.6,29.6z M13.5,31.3c0,0,0,0.1,0,0.1c0,0,0,0,0,0c0,0,0,0-0.1,0c0,0,0,0,0-0.1c0,0,0,0,0,0
	C13.4,31.4,13.4,31.3,13.5,31.3z M16,30.4C16,30.3,16,30.3,16,30.4c0.2-0.1,0.3-0.2,0.4-0.3c0,0,0,0,0,0.1c0,0.4,0,0.8-0.1,1.1
	c-0.2-0.2-0.5-0.4-0.7-0.6C15.7,30.6,15.8,30.5,16,30.4z M20.4,33.8c0.4,0,0.8,0.1,1.2,0.2c0,0.2,0,0.3,0,0.5
	c-0.4,0.2-0.9,0.3-1.4,0.4C20.2,34.5,20.3,34.1,20.4,33.8z M23.2,34.4c0-0.1,0-0.3,0-0.5c0.4-0.1,0.8-0.2,1.2-0.2
	c0.1,0.3,0.2,0.7,0.2,1C24.1,34.8,23.7,34.7,23.2,34.4z M28.5,31.3c-0.1-0.3-0.1-0.7-0.1-1.1c0,0,0,0,0-0.1c0.1,0.1,0.2,0.2,0.3,0.2
	c0,0,0,0,0.1,0c0.1,0.1,0.3,0.2,0.4,0.4C29,30.9,28.7,31.1,28.5,31.3z M31.4,31.4C31.4,31.5,31.4,31.5,31.4,31.4
	C31.4,31.5,31.4,31.5,31.4,31.4c-0.1,0-0.1-0.1-0.1-0.1C31.4,31.3,31.4,31.4,31.4,31.4C31.5,31.4,31.5,31.4,31.4,31.4
	C31.5,31.4,31.5,31.4,31.4,31.4z M33.1,29.6C33.2,29.6,33.2,29.6,33.1,29.6C33.2,29.6,33.2,29.6,33.1,29.6
	C33.1,29.6,33.1,29.6,33.1,29.6z M33.2,27.7c-0.1-0.1-0.3-0.1-0.4-0.2c0.1-0.4,0.2-0.8,0.4-1.1c0.3,0.1,0.7,0.2,1,0.3
	C34,27.1,33.6,27.4,33.2,27.7z M34.8,25.7C34.8,25.7,34.7,25.7,34.8,25.7C34.7,25.8,34.7,25.8,34.8,25.7c-0.1,0-0.1,0-0.2,0
	C34.7,25.7,34.7,25.6,34.8,25.7C34.8,25.6,34.8,25.6,34.8,25.7C34.8,25.7,34.8,25.7,34.8,25.7z M35.3,23.2
	C35.3,23.2,35.3,23.2,35.3,23.2C35.3,23.2,35.3,23.3,35.3,23.2C35.3,23.3,35.3,23.3,35.3,23.2z M35.3,21.6
	C35.3,21.6,35.3,21.6,35.3,21.6C35.3,21.5,35.3,21.5,35.3,21.6C35.3,21.5,35.3,21.6,35.3,21.6z M34,16.7C34,16.7,34,16.6,34,16.7
	C34,16.7,34,16.7,34,16.7C34,16.7,34,16.7,34,16.7z M29.8,13.5c-0.3-0.2-0.7-0.5-0.9-0.8c0.1-0.1,0.2-0.3,0.3-0.4
	c0.5,0,1,0.2,1.4,0.4C30.3,13,30.1,13.3,29.8,13.5z M28.1,10.8C28.1,10.8,28.1,10.8,28.1,10.8C28.1,10.8,28.1,10.8,28.1,10.8
	C28.1,10.8,28.1,10.8,28.1,10.8z M23.2,9.5C23.2,9.5,23.2,9.5,23.2,9.5C23.2,9.5,23.3,9.5,23.2,9.5C23.3,9.5,23.3,9.5,23.2,9.5z
	 M21.6,9.5C21.5,9.5,21.5,9.5,21.6,9.5C21.5,9.5,21.6,9.5,21.6,9.5C21.6,9.5,21.6,9.5,21.6,9.5z M16.7,10.8
	C16.7,10.8,16.6,10.8,16.7,10.8C16.7,10.8,16.7,10.8,16.7,10.8C16.7,10.8,16.7,10.8,16.7,10.8z M15.6,12.4c0.1,0.1,0.2,0.3,0.3,0.4
	c-0.3,0.3-0.6,0.6-0.9,0.8c-0.2-0.2-0.5-0.5-0.7-0.8C14.7,12.5,15.2,12.4,15.6,12.4z M10.8,16.7C10.8,16.7,10.8,16.7,10.8,16.7
	C10.8,16.7,10.8,16.7,10.8,16.7C10.8,16.6,10.8,16.7,10.8,16.7z M10.8,28.1C10.8,28.1,10.8,28.1,10.8,28.1
	C10.8,28.1,10.8,28.1,10.8,28.1C10.8,28.1,10.8,28.1,10.8,28.1z M15,31.3c0.3,0.2,0.7,0.5,0.9,0.8c-0.1,0.1-0.2,0.3-0.3,0.4
	c-0.5,0-1-0.2-1.4-0.4C14.5,31.8,14.7,31.5,15,31.3z M16.7,34C16.7,34,16.7,34,16.7,34C16.7,34,16.7,34,16.7,34
	C16.6,34,16.7,34,16.7,34z M21.6,35.3C21.6,35.3,21.6,35.3,21.6,35.3C21.6,35.3,21.5,35.3,21.6,35.3C21.5,35.3,21.5,35.3,21.6,35.3z
	 M23.2,35.3C23.3,35.3,23.3,35.3,23.2,35.3C23.3,35.3,23.2,35.3,23.2,35.3C23.2,35.3,23.2,35.3,23.2,35.3z M28.1,34
	C28.1,34,28.1,34,28.1,34C28.1,34,28.1,34,28.1,34C28.1,34,28.1,34,28.1,34z M29.1,32.4c-0.1-0.1-0.2-0.3-0.3-0.4
	c0.3-0.3,0.6-0.6,0.9-0.8c0.2,0.2,0.5,0.5,0.7,0.8C30.1,32.2,29.6,32.4,29.1,32.4z M34,28.1C34,28.1,34,28.1,34,28.1
	C34,28.1,34,28.1,34,28.1C34,28.1,34,28.1,34,28.1z M29.6,11.6C29.6,11.6,29.6,11.6,29.6,11.6C29.6,11.6,29.6,11.6,29.6,11.6
	C29.6,11.7,29.6,11.7,29.6,11.6z M15.2,11.6C15.2,11.6,15.2,11.6,15.2,11.6C15.2,11.7,15.2,11.7,15.2,11.6
	C15.2,11.6,15.2,11.6,15.2,11.6z M15.2,33.1C15.2,33.2,15.2,33.2,15.2,33.1C15.2,33.2,15.2,33.2,15.2,33.1
	C15.2,33.1,15.2,33.1,15.2,33.1z M29.6,33.2C29.6,33.2,29.6,33.2,29.6,33.2C29.6,33.1,29.6,33.1,29.6,33.2
	C29.6,33.2,29.6,33.2,29.6,33.2z M35.6,19.2c0-0.1-0.1-0.2-0.1-0.3c0-0.1,0-0.2-0.1-0.3c0.1,0.1,0.1,0.2,0.2,0.3
	C35.6,19,35.6,19.1,35.6,19.2z M32.2,13c-0.1-0.1-0.2-0.2-0.3-0.2c-0.1-0.1-0.1-0.2-0.2-0.3c0.1,0.1,0.2,0.1,0.3,0.2
	C32.1,12.8,32.2,12.9,32.2,13z M13,12.6c-0.1,0.1-0.2,0.2-0.2,0.3c-0.1,0.1-0.2,0.1-0.3,0.2c0.1-0.1,0.1-0.2,0.2-0.3
	C12.8,12.7,12.9,12.6,13,12.6z M9.4,18.6c0,0.1,0,0.2-0.1,0.3c0,0.1-0.1,0.2-0.1,0.3c0-0.1,0-0.2,0-0.3C9.3,18.8,9.3,18.7,9.4,18.6z
	 M8.5,22.3C8.6,22.3,8.6,22.3,8.5,22.3c0,0,0,0.1,0,0.1c0,0,0,0.1,0,0.1c0,0,0,0,0,0c0,0,0-0.1,0-0.1C8.5,22.4,8.5,22.3,8.5,22.3z
	 M9.2,25.6c0,0.1,0.1,0.2,0.1,0.3c0,0.1,0,0.2,0.1,0.3c-0.1-0.1-0.1-0.2-0.2-0.3C9.2,25.8,9.2,25.7,9.2,25.6z M12.6,31.8
	c0.1,0.1,0.2,0.2,0.3,0.2c0.1,0.1,0.1,0.2,0.2,0.3c-0.1-0.1-0.2-0.1-0.3-0.2C12.7,32,12.6,31.9,12.6,31.8z M25.7,34.8
	C25.7,34.8,25.7,34.8,25.7,34.8C25.6,34.8,25.6,34.8,25.7,34.8c-0.1-0.1,0-0.1,0-0.2C25.7,34.6,25.7,34.7,25.7,34.8
	C25.8,34.7,25.8,34.7,25.7,34.8C25.7,34.7,25.7,34.8,25.7,34.8z M31.8,32.2c0.1-0.1,0.2-0.2,0.2-0.3c0.1-0.1,0.2-0.1,0.3-0.2
	c-0.1,0.1-0.1,0.2-0.2,0.3C32,32.1,31.9,32.2,31.8,32.2z M35.4,26.2c0-0.1,0-0.2,0.1-0.3c0-0.1,0.1-0.2,0.1-0.3c0,0.1,0,0.2,0,0.3
	C35.5,26,35.5,26.1,35.4,26.2z M36.2,22.5C36.2,22.5,36.2,22.5,36.2,22.5c0,0,0-0.1,0-0.1c0,0,0-0.1,0-0.1c0,0,0,0,0,0
	c0,0,0,0.1,0,0.1C36.3,22.4,36.3,22.5,36.2,22.5z M26.2,9.4c-0.1,0-0.2,0-0.3-0.1c-0.1,0-0.2-0.1-0.3-0.1c0.1,0,0.2,0,0.3,0
	C26,9.3,26.1,9.3,26.2,9.4z M19.2,9.2c-0.1,0-0.2,0.1-0.3,0.1c-0.1,0-0.2,0-0.3,0.1c0.1-0.1,0.2-0.1,0.3-0.2
	C19,9.2,19.1,9.2,19.2,9.2z M18.6,35.4c0.1,0,0.2,0,0.3,0.1c0.1,0,0.2,0.1,0.3,0.1c-0.1,0-0.2,0-0.3,0
	C18.8,35.5,18.7,35.5,18.6,35.4z M25.6,35.6c0.1,0,0.2-0.1,0.3-0.1c0.1,0,0.2,0,0.3-0.1c-0.1,0.1-0.2,0.1-0.3,0.2
	C25.8,35.6,25.7,35.6,25.6,35.6z M29.4,10.5C29.4,10.5,29.4,10.5,29.4,10.5c-0.1,0-0.1,0-0.1,0c0,0-0.1,0-0.1-0.1c0,0,0,0,0,0
	C29.3,10.4,29.3,10.4,29.4,10.5C29.4,10.4,29.4,10.4,29.4,10.5z M22.5,8.5C22.5,8.6,22.5,8.6,22.5,8.5c0,0-0.1,0-0.1,0
	c0,0-0.1,0-0.1,0c0,0,0,0,0,0c0,0,0.1,0,0.1,0C22.4,8.5,22.5,8.5,22.5,8.5z M15.6,10.4C15.6,10.4,15.6,10.4,15.6,10.4
	C15.5,10.4,15.5,10.4,15.6,10.4c-0.1,0.1-0.1,0.1-0.2,0.1c0,0,0,0,0,0C15.4,10.4,15.4,10.4,15.6,10.4C15.5,10.4,15.5,10.4,15.6,10.4
	z M15.4,34.3C15.4,34.3,15.4,34.3,15.4,34.3c0,0,0.1,0,0.1,0c0,0,0.1,0,0.1,0.1c0,0,0,0,0,0C15.5,34.4,15.5,34.4,15.4,34.3
	C15.4,34.4,15.4,34.4,15.4,34.3z M22.3,36.2C22.3,36.2,22.3,36.2,22.3,36.2c0,0,0.1,0,0.1,0c0,0,0.1,0,0.1,0c0,0,0,0,0,0
	c0,0-0.1,0-0.1,0C22.4,36.3,22.3,36.3,22.3,36.2z M29.2,34.4C29.2,34.4,29.2,34.4,29.2,34.4C29.3,34.4,29.3,34.4,29.2,34.4
	c0.1-0.1,0.1-0.1,0.2-0.1c0,0,0,0,0,0c0,0-0.1,0-0.1,0.1C29.3,34.4,29.3,34.4,29.2,34.4z M36.7,19.1c0.4,0,0.8,0.1,1.2,0.1
	c-0.4,0-0.8,0-1.2,0C36.7,19.1,36.7,19.1,36.7,19.1z M36.4,18c0.3-0.2,0.7-0.4,1-0.6c-0.3,0.2-0.6,0.5-0.9,0.7
	C36.4,18.1,36.4,18.1,36.4,18z M26.6,8.4c0.2-0.3,0.5-0.6,0.7-0.9c-0.2,0.3-0.4,0.7-0.6,1C26.7,8.4,26.7,8.4,26.6,8.4z M25.7,8.1
	c0,0-0.1,0-0.1,0c0-0.4,0-0.8,0-1.2C25.7,7.3,25.7,7.7,25.7,8.1z M19.2,6.9c0,0.4,0,0.8,0,1.2c0,0-0.1,0-0.1,0
	C19.1,7.7,19.1,7.3,19.2,6.9z M18,8.4c-0.2-0.3-0.4-0.7-0.6-1c0.2,0.3,0.5,0.6,0.7,0.9C18.1,8.4,18.1,8.4,18,8.4z M8.4,18.2
	c-0.3-0.2-0.6-0.5-0.9-0.7c0.3,0.2,0.7,0.4,1,0.6C8.4,18.1,8.4,18.1,8.4,18.2z M8.1,19.2c-0.4,0-0.8,0-1.2,0c0.4,0,0.8-0.1,1.2-0.1
	C8.1,19.1,8.1,19.1,8.1,19.2z M8,19.9c-0.1,0.3-0.1,0.5-0.2,0.8c-0.2-0.2-0.5-0.5-0.7-0.8C7.4,19.9,7.7,19.9,8,19.9z M8,24.8
	c-0.3,0-0.6,0-0.9,0c0.2-0.3,0.5-0.6,0.7-0.8C7.9,24.3,8,24.6,8,24.8z M8.1,25.6c0,0,0,0.1,0,0.1c-0.4,0-0.8-0.1-1.2-0.1
	C7.3,25.6,7.7,25.6,8.1,25.6z M8.4,26.7c-0.3,0.2-0.7,0.4-1,0.6c0.3-0.2,0.6-0.5,0.9-0.7C8.4,26.7,8.4,26.7,8.4,26.7z M18.2,36.4
	c-0.2,0.3-0.5,0.6-0.7,1c0.2-0.3,0.4-0.7,0.6-1C18.1,36.4,18.1,36.4,18.2,36.4z M19.2,38.2C19.2,38.2,19.2,38.2,19.2,38.2
	C19.2,38.2,19.2,38.2,19.2,38.2C19.2,38.2,19.2,38.2,19.2,38.2z M19.1,36.7c0,0,0.1,0,0.1,0c0,0.4,0,0.8,0,1.2
	C19.1,37.5,19.1,37.1,19.1,36.7z M25.6,37.8c0-0.4,0-0.8,0-1.2c0,0,0.1,0,0.1,0C25.7,37.1,25.7,37.4,25.6,37.8z M26.7,36.4
	c0.2,0.3,0.4,0.7,0.6,1c-0.2-0.3-0.5-0.6-0.7-0.9C26.7,36.4,26.7,36.4,26.7,36.4z M36.4,26.6c0.3,0.2,0.6,0.5,0.9,0.7
	c-0.3-0.2-0.7-0.4-1-0.6C36.4,26.7,36.4,26.7,36.4,26.6z M36.7,25.6c0.4,0,0.8,0,1.2,0c-0.4,0-0.8,0.1-1.2,0.1
	C36.7,25.7,36.7,25.7,36.7,25.6z M36.8,24.8c0.1-0.3,0.1-0.5,0.2-0.8c0.2,0.2,0.5,0.5,0.7,0.8C37.4,24.9,37.1,24.9,36.8,24.8z
	 M36.8,19.9c0.3,0,0.6,0,0.9,0c-0.2,0.3-0.5,0.6-0.7,0.8C36.9,20.5,36.8,20.2,36.8,19.9z M36.1,17.3c-0.1-0.3-0.1-0.5-0.2-0.8
	c0.3,0.1,0.7,0.2,1,0.3C36.6,17,36.3,17.2,36.1,17.3z M34.2,13.7c-0.2-0.2-0.3-0.4-0.5-0.5c0,0,0,0-0.1-0.1c0.3-0.2,0.5-0.3,0.8-0.4
	C34.4,13,34.3,13.4,34.2,13.7z M33.2,12.5c0,0,0-0.1-0.1-0.1c0.4-0.2,0.7-0.3,1.1-0.5C33.8,12,33.5,12.2,33.2,12.5z M32.3,11.6
	c0.2-0.3,0.4-0.7,0.6-1c-0.2,0.4-0.3,0.7-0.5,1.1C32.4,11.7,32.4,11.7,32.3,11.6z M31.7,11.2C31.7,11.2,31.7,11.1,31.7,11.2
	c-0.2-0.2-0.4-0.4-0.6-0.6c0.3-0.1,0.7-0.2,1.1-0.2C32,10.7,31.9,10.9,31.7,11.2z M27.5,8.7c0.1-0.3,0.3-0.5,0.4-0.8
	c0.2,0.3,0.3,0.7,0.3,1C28,8.9,27.7,8.8,27.5,8.7z M24.8,8c-0.3-0.1-0.5-0.1-0.8-0.2c0.2-0.3,0.5-0.5,0.8-0.7
	C24.9,7.4,24.9,7.7,24.8,8z M19.9,8c0-0.3,0-0.6,0-0.9c0.3,0.2,0.6,0.5,0.8,0.7C20.5,7.9,20.2,8,19.9,8z M17.3,8.7
	c-0.3,0.1-0.5,0.1-0.8,0.2c0.1-0.3,0.2-0.7,0.3-1C17,8.2,17.2,8.5,17.3,8.7z M13.2,11.1C13.1,11.1,13.1,11.2,13.2,11.1
	c-0.2-0.2-0.4-0.5-0.5-0.7c0.4,0,0.7,0.1,1.1,0.2C13.5,10.8,13.3,10.9,13.2,11.1z M12.5,11.6c0,0-0.1,0-0.1,0.1
	c-0.2-0.4-0.3-0.7-0.5-1.1C12,11,12.2,11.3,12.5,11.6z M11.6,12.5c-0.3-0.2-0.7-0.4-1-0.6c0.4,0.2,0.7,0.3,1.1,0.5
	C11.7,12.4,11.7,12.4,11.6,12.5z M11.2,13.1C11.2,13.1,11.1,13.1,11.2,13.1c-0.2,0.2-0.4,0.4-0.6,0.6c-0.1-0.3-0.2-0.7-0.2-1.1
	C10.7,12.8,10.9,12.9,11.2,13.1z M8.7,17.3C8.5,17.2,8.2,17,8,16.9c0.3-0.2,0.7-0.3,1-0.3C8.9,16.8,8.8,17.1,8.7,17.3z M8.7,27.5
	C8.8,27.7,8.9,28,9,28.2c-0.3-0.1-0.7-0.2-1-0.3C8.2,27.7,8.5,27.6,8.7,27.5z M10.6,31.1c0.2,0.2,0.3,0.4,0.5,0.5c0,0,0,0,0.1,0.1
	c-0.3,0.2-0.5,0.3-0.8,0.4C10.4,31.8,10.5,31.4,10.6,31.1z M11.6,32.3c0,0,0,0.1,0.1,0.1c-0.4,0.2-0.7,0.3-1.1,0.5
	C11,32.7,11.3,32.5,11.6,32.3z M12.5,33.2c-0.2,0.3-0.4,0.7-0.6,1c0.2-0.4,0.3-0.7,0.5-1.1C12.4,33.1,12.4,33.1,12.5,33.2z
	 M13.1,33.6C13.1,33.6,13.1,33.6,13.1,33.6c0.2,0.2,0.4,0.4,0.6,0.6c-0.3,0.1-0.7,0.2-1.1,0.2C12.8,34.1,12.9,33.9,13.1,33.6z
	 M17.3,36.1c-0.1,0.3-0.3,0.5-0.4,0.8c-0.2-0.3-0.3-0.7-0.3-1C16.8,35.9,17.1,36,17.3,36.1z M19.9,36.8c0.3,0.1,0.5,0.1,0.8,0.2
	c-0.2,0.2-0.5,0.5-0.8,0.7C19.9,37.4,19.9,37.1,19.9,36.8z M24.8,36.8c0,0.3,0,0.6,0,0.9c-0.3-0.2-0.6-0.5-0.8-0.7
	C24.3,36.9,24.6,36.8,24.8,36.8z M27.5,36.1c0.3-0.1,0.5-0.1,0.8-0.2c-0.1,0.3-0.2,0.7-0.3,1C27.7,36.6,27.6,36.3,27.5,36.1z
	 M31.6,33.7C31.7,33.7,31.7,33.6,31.6,33.7c0.2,0.2,0.4,0.5,0.5,0.7c-0.4,0-0.7-0.1-1.1-0.2C31.3,34,31.5,33.8,31.6,33.7z
	 M32.3,33.2c0,0,0.1,0,0.1-0.1c0.2,0.4,0.3,0.7,0.5,1.1C32.7,33.8,32.5,33.5,32.3,33.2z M33.2,32.3c0.3,0.2,0.7,0.4,1,0.6
	c-0.4-0.2-0.7-0.3-1.1-0.5C33.1,32.4,33.1,32.4,33.2,32.3z M33.6,31.7C33.6,31.7,33.6,31.7,33.6,31.7c0.2-0.2,0.4-0.4,0.6-0.6
	c0.1,0.3,0.2,0.7,0.2,1.1C34.1,32,33.9,31.9,33.6,31.7z M36.1,27.5c0.3,0.1,0.5,0.3,0.8,0.4c-0.3,0.2-0.7,0.3-1,0.3
	C35.9,28,36,27.7,36.1,27.5z M38.6,15.4c0.1-0.8,0.6-1.7,1.1-2.5c0.1,0,0.3,0,0.4,0C39.9,13.8,39.3,14.7,38.6,15.4z M39.3,12.1
	c-0.9,0-2,0-2.7-0.3c1-0.2,2-0.3,2.9,0C39.4,11.9,39.4,12,39.3,12.1z M37.6,12.8c0.4,0.1,0.8,0.1,1.2,0.1c-0.2,0.4-0.4,0.7-0.5,1.1
	c-0.3,0.8-0.4,1.4-0.2,2c-0.1,0.1-0.3,0.3-0.5,0.4c-0.7-0.3-1.4-0.6-2.1-0.7c-0.1-0.2-0.2-0.4-0.3-0.6c-0.1-0.2-0.2-0.4-0.3-0.6
	c0.2-0.7,0.3-1.4,0.4-2.2c0.2-0.1,0.4-0.1,0.6-0.2C36.2,12.4,36.8,12.7,37.6,12.8z M34.8,10.5c0,0.1-0.1,0.2-0.1,0.3
	c-0.4,0.2-0.9,0.4-1.3,0.6c0.2-0.4,0.4-0.9,0.6-1.3c0.1,0,0.2-0.1,0.3-0.1c0.1,0,0.3,0.1,0.4,0.1C34.8,10.2,34.8,10.3,34.8,10.5z
	 M33,8.2c-0.4-0.7-0.3-1.8-0.3-2.7c0.1-0.1,0.2-0.1,0.3-0.2C33.3,6.3,33.2,7.2,33,8.2z M32,7.2C32.1,8,32.4,8.6,32.7,9
	c-0.1,0.2-0.1,0.4-0.2,0.6C31.8,9.6,31,9.7,30.3,10c-0.2-0.1-0.4-0.2-0.6-0.3c-0.2-0.1-0.4-0.2-0.6-0.3c-0.1-0.7-0.4-1.4-0.7-2.1
	c0.1-0.2,0.2-0.3,0.4-0.5c0.6,0.1,1.2,0,2-0.2c0.4-0.1,0.7-0.3,1.1-0.5C31.9,6.4,31.9,6.8,32,7.2z M24.5,4.8
	c-0.7-0.5-1.2-1.4-1.6-2.2C22.9,2.5,23,2.4,23,2.3C23.7,3,24.2,3.9,24.5,4.8z M23.1,4.4c0.5,0.6,1,1,1.6,1.2c0,0.2,0.1,0.4,0.1,0.6
	c-0.6,0.4-1.2,0.9-1.7,1.4c-0.2,0-0.5,0-0.7,0c-0.2,0-0.5,0-0.7,0c-0.5-0.6-1.1-1-1.7-1.4c0-0.2,0.1-0.4,0.1-0.6
	c0.6-0.2,1.1-0.6,1.6-1.2c0.3-0.3,0.5-0.7,0.7-1C22.6,3.8,22.8,4.1,23.1,4.4z M20.3,4.8c0.3-1,0.8-1.8,1.4-2.5
	c0.1,0.1,0.1,0.2,0.2,0.3C21.5,3.5,21,4.4,20.3,4.8z M14,6.5c0.8,0.3,1.4,0.4,2,0.2c0.1,0.1,0.3,0.3,0.4,0.5
	c-0.3,0.7-0.6,1.4-0.7,2.1c-0.2,0.1-0.4,0.2-0.6,0.3c-0.2,0.1-0.4,0.2-0.6,0.3c-0.7-0.2-1.4-0.3-2.2-0.4C12.2,9.4,12.1,9.2,12,9
	c0.4-0.5,0.7-1.1,0.8-1.9c0.1-0.4,0.1-0.8,0.1-1.2C13.3,6.2,13.6,6.4,14,6.5z M11.8,8.2c-0.2-1-0.3-2,0-2.9c0.1,0.1,0.2,0.1,0.3,0.2
	C12.2,6.5,12.2,7.5,11.8,8.2z M10.5,10c0.1,0,0.2,0.1,0.3,0.1c0.2,0.4,0.4,0.9,0.6,1.3c-0.4-0.2-0.9-0.4-1.3-0.6
	c0-0.1-0.1-0.2-0.1-0.3c0-0.1,0.1-0.3,0.1-0.4C10.2,10,10.3,10,10.5,10z M9.6,12.3c0.1,0.8,0.2,1.5,0.4,2.2
	c-0.1,0.2-0.2,0.4-0.3,0.6c-0.1,0.2-0.2,0.4-0.3,0.6c-0.7,0.1-1.4,0.4-2.1,0.7C7,16.2,6.9,16.1,6.7,16c0.1-0.6,0-1.2-0.2-2
	c-0.1-0.4-0.3-0.7-0.5-1.1c0.4,0,0.8,0,1.2-0.1C8,12.7,8.6,12.4,9,12C9.2,12.1,9.4,12.2,9.6,12.3z M5.5,12.1
	c-0.1-0.1-0.1-0.2-0.2-0.3c0.9-0.2,1.9-0.2,2.9,0C7.5,12.2,6.5,12.2,5.5,12.1z M5.1,12.9c0.5,0.8,1,1.7,1.1,2.5
	c-0.7-0.7-1.2-1.6-1.5-2.5C4.8,12.9,4.9,12.9,5.1,12.9z M2.6,22c-0.1-0.1-0.2-0.1-0.3-0.2c0.7-0.7,1.6-1.1,2.5-1.4
	C4.4,21,3.5,21.5,2.6,22z M1.8,22.4C1.8,22.4,1.8,22.4,1.8,22.4C1.8,22.4,1.8,22.4,1.8,22.4C1.8,22.4,1.8,22.4,1.8,22.4
	C1.8,22.4,1.8,22.4,1.8,22.4z M2.6,22.8c0.8,0.4,1.7,1,2.2,1.6c-1-0.3-1.8-0.8-2.5-1.4C2.4,23,2.5,22.9,2.6,22.8z M6.2,29.4
	c-0.1,0.8-0.6,1.7-1.1,2.5c-0.1,0-0.3,0-0.4,0C4.9,30.9,5.5,30.1,6.2,29.4z M5.5,32.7c0.9,0,2,0,2.7,0.3c-1,0.2-2,0.3-2.9,0
	C5.4,32.9,5.4,32.8,5.5,32.7z M7.2,32c-0.4-0.1-0.8-0.1-1.2-0.1c0.2-0.4,0.4-0.7,0.5-1.1c0.3-0.8,0.4-1.4,0.2-2
	c0.1-0.1,0.3-0.3,0.5-0.4c0.7,0.3,1.4,0.6,2.1,0.7c0.1,0.2,0.2,0.4,0.3,0.6c0.1,0.2,0.2,0.4,0.3,0.6c-0.2,0.7-0.3,1.4-0.4,2.2
	c-0.2,0.1-0.4,0.1-0.6,0.2C8.6,32.4,8,32.1,7.2,32z M10,34.3c0-0.1,0.1-0.2,0.1-0.3c0.4-0.2,0.9-0.4,1.3-0.6
	c-0.2,0.4-0.4,0.9-0.6,1.3c-0.1,0-0.2,0.1-0.3,0.1c-0.1,0-0.3-0.1-0.4-0.1C10,34.6,10,34.5,10,34.3z M11.8,36.6
	c0.4,0.7,0.3,1.8,0.3,2.7c-0.1,0.1-0.2,0.1-0.3,0.2C11.5,38.5,11.6,37.5,11.8,36.6z M12.8,37.6c-0.1-0.8-0.4-1.4-0.8-1.9
	c0.1-0.2,0.1-0.4,0.2-0.6c0.8-0.1,1.5-0.2,2.2-0.4c0.2,0.1,0.4,0.2,0.6,0.3c0.2,0.1,0.4,0.2,0.6,0.3c0.1,0.7,0.4,1.4,0.7,2.1
	c-0.1,0.2-0.2,0.3-0.4,0.5c-0.6-0.1-1.2,0-2,0.2c-0.4,0.1-0.7,0.3-1.1,0.5C12.9,38.4,12.9,38,12.8,37.6z M20.3,40
	c0.7,0.5,1.2,1.4,1.6,2.2c-0.1,0.1-0.1,0.2-0.2,0.3C21.1,41.8,20.6,40.9,20.3,40z M21.7,40.4c-0.5-0.6-1-1-1.6-1.2
	c0-0.2-0.1-0.4-0.1-0.6c0.6-0.4,1.2-0.9,1.7-1.4c0.2,0,0.4,0,0.7,0c0.2,0,0.5,0,0.7,0c0.5,0.6,1.1,1,1.7,1.4c0,0.2-0.1,0.4-0.1,0.6
	c-0.6,0.2-1.1,0.6-1.6,1.2c-0.3,0.3-0.5,0.7-0.7,1C22.2,41,22,40.7,21.7,40.4z M24.5,40c-0.3,1-0.8,1.9-1.4,2.5
	c-0.1-0.1-0.1-0.2-0.2-0.3C23.3,41.3,23.8,40.4,24.5,40z M30.8,38.3c-0.8-0.3-1.4-0.4-2-0.2c-0.1-0.1-0.3-0.3-0.4-0.5
	c0.3-0.7,0.6-1.4,0.7-2.1c0.2-0.1,0.4-0.2,0.6-0.3c0.2-0.1,0.4-0.2,0.6-0.3c0.7,0.2,1.4,0.3,2.2,0.4c0.1,0.2,0.1,0.4,0.2,0.6
	c-0.4,0.4-0.7,1.1-0.8,1.9c-0.1,0.4-0.1,0.8-0.1,1.2C31.5,38.6,31.2,38.4,30.8,38.3z M33,36.6c0.2,1,0.3,2,0,2.9
	c-0.1-0.1-0.2-0.1-0.3-0.2C32.6,38.3,32.6,37.3,33,36.6z M34.3,34.8c-0.1,0-0.2-0.1-0.3-0.1c-0.2-0.4-0.4-0.9-0.6-1.3
	c0.4,0.2,0.9,0.4,1.3,0.6c0,0.1,0.1,0.2,0.1,0.3c0,0.1-0.1,0.3-0.1,0.4C34.6,34.8,34.5,34.8,34.3,34.8z M35.2,32.5
	c-0.1-0.8-0.2-1.5-0.4-2.2c0.1-0.2,0.2-0.4,0.3-0.6c0.1-0.2,0.2-0.4,0.3-0.6c0.7-0.1,1.4-0.4,2.1-0.7c0.2,0.1,0.3,0.2,0.5,0.4
	c-0.1,0.6,0,1.2,0.2,2c0.1,0.4,0.3,0.7,0.5,1.1c-0.4,0-0.8,0-1.2,0.1c-0.8,0.1-1.4,0.4-1.9,0.8C35.6,32.7,35.4,32.6,35.2,32.5z
	 M39.3,32.7c0.1,0.1,0.1,0.2,0.2,0.3c-0.9,0.2-1.9,0.2-2.9,0C37.3,32.6,38.3,32.6,39.3,32.7z M39.7,31.9c-0.5-0.8-1-1.7-1.1-2.5
	c0.7,0.7,1.2,1.6,1.5,2.5C40,31.9,39.9,31.9,39.7,31.9z M42.2,22.8c0.1,0.1,0.2,0.1,0.3,0.2c-0.7,0.7-1.6,1.1-2.5,1.4
	C40.4,23.8,41.3,23.3,42.2,22.8z M43.2,21.2c-0.9-0.9-2.2-1.5-3.5-1.8c0-0.1,0-0.1,0-0.2c0.6,0,1.2-0.1,1.8-0.2
	c0.5,0.2,1,0.3,1.5,0.4C43.5,19.9,43.6,20.6,43.2,21.2z M42.5,17.8C42.5,17.8,42.4,17.8,42.5,17.8c-0.8-0.4-1.6-0.4-2.2-0.2
	c0,0,0,0,0,0c0,0,0,0,0,0c0.7-0.1,1.3-0.5,1.8-1.3c0,0,0,0,0.1,0c0.5,0.1,0.9,0.2,1.2,0.5C43.1,17.2,42.9,17.5,42.5,17.8z
	 M43.3,15.8c-0.1,0-0.1-0.1-0.2-0.1c-0.2-0.1-0.5-0.1-0.7-0.1c0.1-0.2,0.1-0.4,0.2-0.6c0.1-0.1,0.3-0.2,0.4-0.3
	C43.2,15.1,43.3,15.5,43.3,15.8z M39.8,11c-1.3-0.4-2.6-0.2-4,0.2c0,0-0.1-0.1-0.1-0.1c0.5-0.3,1-0.7,1.5-1.1c0.5-0.1,1-0.3,1.5-0.5
	C39.4,9.7,39.9,10.3,39.8,11z M34.9,7.6C34.4,8,34.1,8.5,33.8,9c0,0-0.1,0-0.1-0.1c0.4-1.3,0.6-2.7,0.2-4c0.7-0.1,1.2,0.4,1.5,1.1
	C35.1,6.6,35,7.1,34.9,7.6z M32.7,4.6C32.7,4.6,32.7,4.6,32.7,4.6C32.7,4.6,32.7,4.5,32.7,4.6C32.7,4.5,32.7,4.5,32.7,4.6
	C32.7,4.5,32.7,4.5,32.7,4.6z M29.7,2.2c-0.2,0-0.4,0.1-0.6,0.2c0-0.2-0.1-0.5-0.1-0.7c0-0.1,0-0.1-0.1-0.2c0.4,0,0.7,0.2,1.1,0.3
	C29.9,1.9,29.8,2.1,29.7,2.2z M22.4,1.8C22.4,1.8,22.4,1.8,22.4,1.8C22.4,1.8,22.4,1.8,22.4,1.8C22.4,1.8,22.4,1.8,22.4,1.8
	C22.4,1.8,22.4,1.8,22.4,1.8z M15.7,1.7c-0.1,0.2-0.1,0.5-0.1,0.7c-0.2-0.1-0.4-0.1-0.6-0.2c-0.1-0.1-0.2-0.3-0.3-0.4
	c0.3-0.2,0.7-0.3,1.1-0.3C15.8,1.5,15.8,1.6,15.7,1.7z M12.1,4.5C12.1,4.5,12.1,4.6,12.1,4.5C12.1,4.6,12.1,4.6,12.1,4.5
	C12.1,4.5,12.1,4.5,12.1,4.5C12.1,4.5,12.1,4.5,12.1,4.5z M11,5c-0.4,1.3-0.2,2.6,0.2,4C11.1,9,11.1,9,11,9c-0.3-0.5-0.7-1-1.1-1.5
	c-0.1-0.5-0.3-1-0.5-1.5C9.7,5.4,10.3,4.9,11,5z M7.6,9.9C8,10.3,8.5,10.7,9.1,11c0,0,0,0.1-0.1,0.1c-1.3-0.4-2.7-0.6-4-0.2
	c-0.1-0.7,0.4-1.2,1.1-1.5C6.6,9.7,7.1,9.8,7.6,9.9z M2.7,16.3C2.7,16.3,2.7,16.3,2.7,16.3c0.5,0.7,1.2,1.1,1.8,1.3c0,0,0,0,0,0
	c0,0,0,0,0,0c-0.7-0.2-1.4-0.2-2.2,0.2c0,0,0,0-0.1,0c-0.4-0.3-0.6-0.6-0.8-1C1.8,16.6,2.2,16.4,2.7,16.3z M3.3,19
	c0.6,0.2,1.2,0.2,1.8,0.2c0,0.1,0,0.1,0,0.2c-1.4,0.3-2.6,0.9-3.5,1.8c-0.4-0.6-0.3-1.3,0.2-1.8C2.3,19.3,2.8,19.2,3.3,19z
	 M1.6,23.6c0.9,0.9,2.2,1.5,3.5,1.8c0,0.1,0,0.1,0,0.2c-0.6,0-1.2,0.1-1.8,0.2c-0.5-0.2-1-0.3-1.5-0.4C1.3,24.9,1.2,24.1,1.6,23.6z
	 M2.3,27C2.3,27,2.3,27,2.3,27c0.8,0.4,1.6,0.4,2.2,0.2c0,0,0,0,0,0c0,0,0,0,0,0c-0.7,0.1-1.3,0.5-1.8,1.3c0,0,0,0-0.1,0
	c-0.5-0.1-0.9-0.2-1.2-0.5C1.7,27.6,1.9,27.3,2.3,27z M1.5,29c0.1,0,0.1,0.1,0.2,0.1c0.2,0.1,0.5,0.1,0.7,0.1
	c-0.1,0.2-0.1,0.4-0.2,0.6c-0.1,0.1-0.3,0.2-0.4,0.3C1.6,29.7,1.5,29.3,1.5,29z M5,33.8c1.3,0.4,2.6,0.2,4-0.2c0,0,0.1,0.1,0.1,0.1
	c-0.5,0.3-1,0.7-1.5,1.1c-0.5,0.1-1,0.3-1.5,0.5C5.4,35.1,4.9,34.5,5,33.8z M9.9,37.2c0.4-0.4,0.8-0.9,1.1-1.5c0,0,0.1,0,0.1,0.1
	c-0.4,1.3-0.6,2.7-0.2,4c-0.7,0.1-1.2-0.4-1.5-1.1C9.7,38.2,9.8,37.7,9.9,37.2z M12.1,40.2C12.1,40.2,12.1,40.2,12.1,40.2
	C12.1,40.2,12.1,40.3,12.1,40.2C12.1,40.3,12.1,40.3,12.1,40.2C12.1,40.3,12.1,40.3,12.1,40.2z M15.1,42.6c0.2,0,0.4-0.1,0.6-0.2
	c0,0.2,0.1,0.5,0.1,0.7c0,0.1,0,0.1,0.1,0.2c-0.4,0-0.7-0.2-1.1-0.3C14.9,42.9,15,42.7,15.1,42.6z M22.4,43C22.4,43,22.4,43,22.4,43
	C22.4,43,22.4,43,22.4,43C22.4,43,22.4,43,22.4,43C22.4,43,22.4,43,22.4,43z M29.1,43.1c0.1-0.2,0.1-0.5,0.1-0.7
	c0.2,0.1,0.4,0.1,0.6,0.2c0.1,0.1,0.2,0.3,0.3,0.4c-0.3,0.2-0.7,0.3-1.1,0.3C29,43.3,29,43.2,29.1,43.1z M32.7,40.3
	C32.7,40.3,32.7,40.2,32.7,40.3C32.7,40.2,32.7,40.2,32.7,40.3C32.7,40.3,32.7,40.3,32.7,40.3C32.7,40.3,32.7,40.3,32.7,40.3z
	 M33.8,39.8c0.4-1.3,0.2-2.6-0.2-4c0,0,0.1-0.1,0.1-0.1c0.3,0.5,0.7,1,1.1,1.5c0.1,0.5,0.3,1,0.5,1.5C35.1,39.4,34.5,39.9,33.8,39.8
	z M37.2,34.9c-0.4-0.4-0.9-0.8-1.5-1.1c0,0,0.1-0.1,0.1-0.1c1.3,0.4,2.7,0.6,4,0.2c0.1,0.7-0.4,1.2-1.1,1.5
	C38.2,35.1,37.7,35,37.2,34.9z M42.1,28.5C42.1,28.5,42.1,28.5,42.1,28.5c-0.5-0.7-1.2-1.1-1.8-1.3c0,0,0,0,0,0c0,0,0,0,0,0
	c0.7,0.2,1.4,0.2,2.2-0.2c0,0,0,0,0.1,0c0.4,0.3,0.6,0.6,0.8,1C43,28.2,42.6,28.4,42.1,28.5z M41.5,25.8c-0.6-0.2-1.2-0.2-1.8-0.2
	c0-0.1,0-0.1,0-0.2c1.4-0.3,2.6-0.9,3.5-1.8c0.4,0.6,0.3,1.3-0.2,1.8C42.5,25.5,42,25.6,41.5,25.8z M44.1,18.7c-0.2,0-0.4,0-0.5,0
	c-0.1-0.1-0.3-0.3-0.4-0.4c0.2-0.1,0.4-0.3,0.6-0.5c0.1-0.1,0.1-0.1,0.1-0.2C44,18,44,18.3,44.1,18.7z M39.3,8.4
	c-0.2,0.1-0.3,0.2-0.5,0.2c-0.2-0.1-0.4-0.1-0.6-0.1c0.1-0.2,0.2-0.4,0.3-0.7c0-0.1,0-0.2,0-0.2C38.8,7.8,39.1,8,39.3,8.4z
	 M37.2,6.2c-0.1,0-0.1,0-0.2,0c-0.2,0.1-0.5,0.2-0.7,0.3c0-0.2-0.1-0.4-0.1-0.6c0.1-0.2,0.1-0.3,0.2-0.5C36.7,5.7,37,5.9,37.2,6.2z
	 M27.2,1c-0.1,0-0.1,0.1-0.2,0.1c-0.2,0.2-0.3,0.4-0.5,0.6c-0.1-0.2-0.3-0.3-0.4-0.4c0-0.2,0-0.4,0-0.5C26.5,0.8,26.8,0.8,27.2,1z
	 M18.7,0.7c0,0.2,0,0.3,0,0.5c-0.1,0.1-0.3,0.3-0.4,0.4c-0.1-0.2-0.3-0.4-0.5-0.6C17.7,1.1,17.7,1,17.6,1C18,0.8,18.3,0.8,18.7,0.7z
	 M8.4,5.5C8.4,5.6,8.5,5.8,8.6,6C8.5,6.1,8.5,6.3,8.5,6.5C8.2,6.4,8,6.3,7.8,6.3c-0.1,0-0.2,0-0.2,0C7.8,5.9,8,5.7,8.4,5.5z
	 M6.2,7.5c0,0.1,0,0.1,0,0.2C6.3,8,6.4,8.2,6.5,8.5C6.3,8.5,6.1,8.5,6,8.6C5.8,8.5,5.6,8.4,5.5,8.4C5.7,8,5.9,7.8,6.2,7.5z
	 M1.1,17.8c0.2,0.2,0.4,0.3,0.6,0.5c-0.2,0.1-0.3,0.3-0.4,0.4c-0.2,0-0.4,0-0.5,0c0-0.4,0.1-0.8,0.2-1.1C1,17.7,1.1,17.7,1.1,17.8z
	 M0.7,26.1c0.2,0,0.4,0,0.5,0c0.1,0.1,0.3,0.3,0.4,0.4c-0.2,0.1-0.4,0.3-0.6,0.5C1.1,27,1,27.1,1,27.2C0.8,26.8,0.8,26.5,0.7,26.1z
	 M5.5,36.4c0.2-0.1,0.3-0.2,0.5-0.2c0.2,0.1,0.4,0.1,0.6,0.1c-0.1,0.2-0.2,0.4-0.3,0.7c0,0.1,0,0.2,0,0.2C5.9,37,5.7,36.7,5.5,36.4z
	 M7.5,38.6c0.1,0,0.1,0,0.2,0c0.2-0.1,0.5-0.2,0.7-0.3c0,0.2,0.1,0.4,0.1,0.6c-0.1,0.2-0.1,0.3-0.2,0.5C8,39.1,7.8,38.8,7.5,38.6z
	 M17.6,43.8c0.1,0,0.1-0.1,0.2-0.1c0.2-0.2,0.3-0.4,0.5-0.6c0.1,0.2,0.3,0.3,0.4,0.4c0,0.2,0,0.4,0,0.5C18.3,44,18,44,17.6,43.8z
	 M26.1,44.1c0-0.2,0-0.4,0-0.5c0.1-0.1,0.3-0.3,0.4-0.4c0.1,0.2,0.3,0.4,0.5,0.6c0.1,0.1,0.1,0.1,0.2,0.1C26.8,44,26.5,44,26.1,44.1
	z M36.4,39.3c-0.1-0.2-0.2-0.3-0.2-0.5c0.1-0.2,0.1-0.4,0.1-0.6c0.2,0.1,0.4,0.2,0.7,0.3c0.1,0,0.2,0,0.2,0
	C37,38.8,36.7,39.1,36.4,39.3z M38.6,37.2c0-0.1,0-0.1,0-0.2c-0.1-0.2-0.2-0.5-0.3-0.7c0.2,0,0.4-0.1,0.6-0.1
	c0.2,0.1,0.3,0.1,0.5,0.2C39.1,36.7,38.8,37,38.6,37.2z M43.7,27c-0.2-0.2-0.4-0.3-0.6-0.5c0.2-0.1,0.3-0.3,0.4-0.4
	c0.2,0,0.4,0,0.5,0c0,0.4-0.1,0.8-0.2,1.1C43.8,27.1,43.7,27.1,43.7,27z"/>
</svg>
