<svg xmlns="http://www.w3.org/2000/svg" viewBox="0 0 16 12"><path d="M15.7 4c.1-.1.3 0 .3.1v6.4c0 .8-.7 1.5-1.5 1.5h-13C.7 12 0 11.3 0 10.5V4.1c0-.1.2-.2.3-.1.7.5 1.6 1.2 4.8 3.5C5.8 8 6.9 9 8 9c1.1 0 2.2-1 2.9-1.5 3.2-2.3 4.1-3 4.8-3.5zM8 8c.7 0 1.8-.9 2.3-1.3 4.1-3 4.5-3.3 5.4-4 .2-.2.3-.4.3-.6v-.6c0-.8-.7-1.5-1.5-1.5h-13C.7 0 0 .7 0 1.5v.6c0 .2.1.4.3.6 1 .7 1.3 1 5.4 4C6.2 7.1 7.3 8 8 8z" fill="#8c8060"/><text transform="translate(-387 -632.11)" font-family="KozGoPr6N-Regular-83pv-RKSJ-H" font-size="12">山路を登りながら</text></svg>