<?xml version="1.0" encoding="utf-8"?>
<!-- Generator: Adobe Illustrator 23.0.3, SVG Export Plug-In . SVG Version: 6.00 Build 0)  -->
<svg version="1.1" id="_x32_" xmlns="http://www.w3.org/2000/svg" xmlns:xlink="http://www.w3.org/1999/xlink" x="0px" y="0px"
	 viewBox="0 0 512 512" style="enable-background:new 0 0 512 512;" xml:space="preserve">
<style type="text/css">
	.st0{fill:#8C8060;}
</style>
<g>
	<path class="st0" d="M454.5,0H165.9c-13.6,0-32.7,7.9-42.4,17.5L50.2,90.8c-9.7,9.7-17.5,28.7-17.5,42.4v354
		c0,13.6,11.2,24.8,24.8,24.8h288.6c13.6,0,36,0,49.6,0h58.7c13.6,0,24.8-11.2,24.8-24.8v-58.7c0-13.6,0-36,0-49.6v-354
		C479.3,11.2,468.1,0,454.5,0z M317.3,399.2c0,2.1-1.7,3.8-3.8,3.8H133.3c-2.1,0-3.8-1.7-3.8-3.8v-16.7c0-2.1,1.7-3.8,3.8-3.8h180.2
		c2.1,0,3.8,1.7,3.8,3.8V399.2z M382.5,322.8c0,2.4-2,4.4-4.4,4.4H133.9c-2.4,0-4.4-2-4.4-4.4v-15.5c0-2.4,2-4.4,4.4-4.4h244.2
		c2.4,0,4.4,2,4.4,4.4L382.5,322.8L382.5,322.8z M382.5,247.1c0,2.4-2,4.4-4.4,4.4H133.9c-2.4,0-4.4-2-4.4-4.4v-15.5
		c0-2.4,2-4.4,4.4-4.4h244.2c2.4,0,4.4,2,4.4,4.4L382.5,247.1L382.5,247.1z M382.5,171.3c0,2.4-2,4.4-4.4,4.4H133.9
		c-2.4,0-4.4-2-4.4-4.4v-15.5c0-2.4,2-4.4,4.4-4.4h244.2c2.4,0,4.4,2,4.4,4.4L382.5,171.3L382.5,171.3z"/>
</g>
</svg>
