<svg version="1.1" id="レイヤー_1" xmlns="http://www.w3.org/2000/svg" x="0" y="0" viewBox="0 0 24.4 24.6" xml:space="preserve"><style>.st1{fill:none}.st3{fill:#f9d797}.st4{fill:#f6c363}.st5{fill:#f8ce7f}.st7{fill:#f4b946}.st9{fill:#fff}</style><g opacity=".7"><path class="st1" d="M10.3.7c.4 0 .8 0 1.2-.1-.1-.2-.1-.5-.3-.6-.3-.2-.7.1-.9.2h-.1c0 .2.1.3.1.5zM7.7 13h-.3.3z"/><path d="M8.8 3.9c0 .2.1.4.2.6v.4c.1.4.3.7.4 1.1.1.6.3 1.1.4 1.7-.4-.8-.8-1.5-1.3-2.1-.1-.1-.1-.2-.2-.3-.1-.2-.2-.4-.4-.5-.4-.4-.7-.8-1-1.3-.3-.5-.8-.7-1.4-.5-.4.2-.9.3-1.1.7-.2.4-.2.5 0 .9.2.5.4 1 .6 1.6 0 .1 0 .2.1.3L5 6.4c-.1 0-.2-.1-.2-.2-.1-.1-.2 0-.3-.1-.2-.1-.4-.3-.6-.4-.3-.2-.6-.4-.9-.5h-.4c-.4 0-.9-.2-1.3-.2-.3 0-.5.2-.6.4 0 .3 0 .6.1.9.1.2.2.4.4.6.2.1.4.2.5.4.2.1.3.3.5.4.5.4 1.3.5 1.9.8-.2.1-.5.2-.7.3l-.9.3c-.1 0-.1.1-.2.1-.2-.1-.4-.1-.7-.2h-.4c-.3 0-.8-.1-1 .1-.3.2-.1.7-.1.9 0 .6.3 1.1.7 1.5.2.2.3.3.5.4.8-.1 1.6-.6 1.8-1.4h.2c.4.6.8 1.1 1 1.3.2-.2.5-.4.7-.6.2.1.4.2.6.2.7.1-.3-1.2 1-.8h.3c0-.2-.1-.3-.1-.5h.3c.3.2.5.4.8.5.5.3.1-1.2 1.6-.4l.3-.3c.3 0-.2-.9.9-.5.3 0 .7.1 1 .2h.7c.3-.3.2-1.5 1.1-.8 1.1-.3 2.5-.5 3.9-.8V6.2c.1-.3 0-1.1.5-.8.2.3.4.5.8 1.1l.7.7c.3-.2.7-.2.8-1.7.1-1 .4-1.5 1-1.8-.3 0-.5-.1-.8-.1-.2 0-.4-.1-.7-.2-.5 0-1 .5-1.4.7-.2.1-.5.2-.7.3-.5.2-1.1.6-1.5 1-.3.4-.6.7-.9 1.1-.3.2-.5.5-.8.8-.3.4-.6.8-.9 1.1h-.2c.3-.4.5-.8.7-1.1.5-.7 1.1-1.3 1.7-1.9.4-.4.3-.2.4-.5 0-.1.1-.2.1-.3.1-.1.1-.1.2-.1.1-.1 0-.2.1-.3.1-.2.2-.4.4-.6.2-.3.4-.6.5-.9v-.4c0-.4.2-.9.2-1.3 0-.3-.2-.5-.4-.5-.3-.1-.6-.1-.8.1-.2.1-.4.3-.6.4-.1.2-.3.4-.4.5-.1.2-.3.3-.4.5-.5.6-.5 1.5-.8 2.2-.1.3-.4.6-.5 1-.2.4-.3.7-.5 1.1-.3.6-.6 1.2-.8 1.9L12 8c0-.1.1-.3.1-.3-.2-.5-.1-.5-.1-.7 0-.1-.1-.4-.1-.5 0-.2-.1-.3-.1-.6 0-.2.1-.5.1-.7 0-.3 0-.5-.1-.8-.1-1 0-2-.1-3 0-.1-.1-.3-.2-.4 0-.1-.1-.2-.1-.4-.4 0-.8 0-1.2.1-.3-.1-.2.7-1 .3 0 .2-.1.3-.2.4-.4.8-.4 1.6-.2 2.5z" fill="#fbe2b5"/><path class="st3" d="M6 12.8c.3.1.7.2 1 .3h1.1c.1.1.1.2.2.3.6-.2.5-.7 1.6-.6.1-.3.1-.7.1-1-.2-.4-.4-.9-.7-1.3-1.4-.8-1.1.6-1.6.4-.2-.2-.5-.3-.8-.5 0 .2-.1.4-.2.6h-.3c-1.2-.4-.3.9-1 .8-.2 0-.4-.1-.6-.2-.2.2-.4.4-.7.6-.1-.2-.6-.7-1-1.3h-.2c0 .5-.9 1-1.6 1.1.5.3 1.1.5 1.8.6h.6c.2 0 .2.1.4.1.4 0 .8-.1 1.1 0h.4l-.1.4-.9.3c-.1 0-.2.1-.3.1-.2 0-.4.1-.6.2-.5.3-1 .4-1.6.6-.2.1-.4.2-.5.3.1 0 .2.1.3.1 1.3-.8 2.5-.5 4.1-1.9zM12.6 16.7l.5.5.6-.9c.4.2 1-.5 1.4.8h.8c-.2-.6-.3-1.3-.5-1.8-.7 0-1.4-.1-2.1-.2-.3.3-.6.6-1 .9-.6-.2-1.2-.2-2.5-.7l-1.5-1.2c-.3.2-.7.4-1 .6-.3.3-.6.7-.9 1.1-1.2-.5-2.8-.7-3.9.2-.2-.3-.4-.5-.7-.7-.4 0-.3.5-.7.5 0 .4 0 .7.2 1 .3.3.4.3.8.3.6-.1 1-.1 1.4-.1-.3.2-.6.3-.8.6-.1.1-.1.2-.2.4-.2.4-.6.7-.7 1.1-.1.2 0 .5.1.6.1.1.3.2.4.3h.9c0-.5-.1-.9-.1-1.4.4 0 .7 0 1-.6.5 0 .9.1 1.3.2 0 .2.1.3.1.5.3-.3.6-.6.8-.9l.9-.6c.2-.2.4-.4.7-.5l.5.1c0 .1-.1.1-.2.2-.1.2-.3.3-.5.5-.1.1-.2.3-.3.5.3-.3.6-.9 1.1-.2.3-.1.9.2 1-1.4.5.2.9.4 1.4.6v-.1.2c.3.1.6.2.9.4.3-.4.6-.6.8-.8z"/><path class="st3" d="M6.6 10.2c.1.2.1.4.1.5.1-.2.1-.3.2-.6l-.3.1z"/><path class="st4" d="M17.4 17.1c-.5.2-.9.4-1.3.6.2.6-.2.6-.9.6.1.1 0 .2-.2 0h.2c0-.1-.2-.3-.3-.5-.1-.4-.9-.3-.8.6-.3-.2-.5-.3-.8-.5-.4 0-.9 0-1.3.1-.1.4-.8.1-.7 1.1-.1.1-.3.2-.4.2v1.1c.1.4.1.8.1 1.2.1.1.2.1.2.2.1-.2.3-.5.5-.8.2-.3.4-.6.6-.8.3.5.5.7.7 1 1.3.1 2.1-.6 3.2-.9-.1-.1-.1-.2-.2-.4-.1-.3-.2-.7-.3-1.1 0-.1 0-.1-.1-.2l.2-.2v.1c.1.3.3.5.5.7l.6.9c.4 0 .8 0 1.2.2 0-.8.9-.6 1-1.9.5.4.7.9.9 1-.2-.5-.5-1-.8-1.4-.1-.2-.3-.3-.5-.4-.1-.1-.1-.2-.2-.3v.1c-.4-.2-.8-.3-1.1-.3zM9.4 19.6c-.2-1.1-1-.8-1 .1h-1c-.2-.2-.5-.3-.7-.5-.4.5-.7 1-1 1.5-.1.1-.1.3-.1.4-.1.3-.3.7-.2 1 .1.2.3.3.5.3.1-.3.3-.5.6-.3.2 0 .4.2.5.5.2 0 .4-.1.6-.2v-.1c0-.5.4-.2.6-.3 0 0 0 .1.1.1.6-.4 1-1 1.3-1.6.1-.2.1-.4.2-.6.1-.1.1-.2.2-.3 0-.1.1-.3.1-.4-.2-.2-.5-.1-.7.4zM22.4 15.7c-.6 0-1.2.1-1.8.1.1.3.1.5.2.8-.5-.1-1-.1-1.6-.2h-.4.1l.6.3c.5.1 1 .4 1.5.6.3.1.6.1.8.1v-.1h.1c.1-.1.3-.2.4-.3.3-.4.7-.7.7-1.1 0-.4-.1-.5-.4-.8-.1.1-.2.2-.2.6z"/><path class="st5" d="M9.6 16.4c0 1.5-.7 1.3-1 1.4-.5-.7-.7-.1-1.1.2 0 .1-.1.2-.1.2-.2.4-.4.7-.7 1 .2.2.5.3.7.5h1c0-.8.8-1.2 1-.1.2-.4.5-.5.7-.5.1-.2.1-.4.2-.6l.6-1.5c-.4-.2-.9-.4-1.3-.6zM19.3 7.2c-.3.2.1 1.1-.4 1.1s-1-.1-1.5-.2c-1.4.3-2.7.5-4.1.8.2.7-.3.9-.6 1.6-.2-.3-.3-.5-.5-.8h-.7V11h-.3c-.1-.2-.3-.3-.4-.5h-.3c-.2-.2-.5-.3-.8-.5-.1.1-.1.2-.3.3.2.4.5.9.7 1.3 0 .3 0 .7-.1 1-1.1-.1-1.1.4-1.6.6-.3-.1-.5-.2-.7-.2h-.3c-.2 0-.3.1-.5 0-.4 0-.7-.1-1.1-.2-1.6 1.3-2.8 1.1-4.2 1.8-.1 0-.2-.1-.3-.1-.2.2-.3.5-.3.9v.3c.4-.1.3-.5.7-.5.2.2.4.5.7.7 1.1-.9 2.7-.7 3.9-.2.3-.3.6-.7.9-1.1.3-.2.7-.4 1-.6l1.5 1.2c1.3.5 1.9.5 2.5.7.3-.3.6-.6 1-.9.7.1 1.4.2 2.1.2h.1c0-.2.1-.3 0-.6h.2c.3-.2.7-.4 1-.5.9-.2 1.8-.3 2.7-.4.3 0 .6 0 1-.1-.2.3-.4.7-.6 1.1 0 .1.1.2.1.3-.2.1-.5.2-.8.3-.4-.1-.8-.1-1.2-.2-.5-.3-.5.3-.6.7.3.2.7.3 1 .5.1 0 .2.1.3.1h.4c.5.1 1 .1 1.6.2-.1-.3-.1-.5-.2-.8.6 0 1.2-.1 1.8-.1 0-.4.1-.6.2-.7-.2-.2-.4-.3-.6-.5.1 0 .2-.1.4-.1.4-.1.9-.1 1.3-.3.3-.1.4-.3.4-.6s-.1-.5-.3-.8c-.2-.2-.4-.3-.6-.4-.2-.1-.4-.1-.6-.2l-.6-.3c-.4-.1-.9-.1-1.3-.1.3-.1.7-.2 1.1-.3.5-.1 1-.3 1.5-.5.3-.1.5-.2.7-.3.2-.2.8-.5.7-.9-.1-.2-.4-.4-.6-.5l-.6-.3c-.5-.3-1.3-.1-1.8-.2h-.3c-.3 0-.6.1-.8.1-1 .2-2.1.5-3.1.9l-.1-.2.3-.2c.2-.1.4-.2.6-.4.2-.1.5-.3.7-.4.3-.2.4-.6.7-.8l1-1c.3-.3.8-.6 1.2-.9-.5-.1-.9-.3-1.4-.5-.1 1.7-.5 1.7-.9 1.9zm2.9 6.4c-.4.6-.9 1.3-1.3.1.4 0 .8-.1 1.3-.1z"/><path class="st5" d="M15.5 15.3c.2.6.3 1.3.5 1.8h-.8c-1.6-1.2-1.3 0-2 .1-.2-.2-.3-.4-.5-.5-.3.2-.6.4-.8.6-.3-.1-.6-.3-.9-.4-.1.7-.1 1.4-.1 2.2.1-.1.3-.2.4-.2-.1-1 .6-.6.7-1.1.4 0 .9 0 1.3-.1.3.2.5.4.8.5 0-.9.7-1 .8-.6.1.2.3.4.3.5.6 0 1 0 .9-.6.4-.2.9-.4 1.3-.6.3 0 .7.1 1.1.2V17c-.3-.2-.6-.4-.8-.7l-.6-.6c-.5-.2-1-.4-1.4-.5-.1.1-.2.1-.2.1zM7.5 13H7c.2.1.3.1.5 0z"/><path class="st5" d="M13.7 16.4l-.6.9c.6-.1.4-1.3 2-.1-.3-1.3-.9-.6-1.4-.8zM7.7 13c.2 0 .3.1.5.2L8 13h-.3zM15.2 18.2H15c.2.2.3.1.2 0z"/><path d="M10.3.7c0-.2-.1-.4-.1-.4-.4.2-.7.4-.9.8.8.3.7-.5 1-.4z" fill="#fdedd1"/><path class="st7" d="M21.8 17.4c.1 0 .1 0 .2-.1l-.2.1zM18 20.2c-.5-.2-.9-.3-1.2-.2.3.5.6 1.1 1 1.6l.3.3c.2.2.6.6.8.6.3.1.5-.4.7-.6.4-.5.5-1 .5-1.6 0-.3-.1-.6-.2-.8-.2-.1-.4-.6-.9-1-.1 1-1 .8-1 1.7zM6.5 22.1c-.3-.2-.5 0-.6.3.1 0 .2 0 .3.1.3.1.5.1.8.1-.1-.4-.2-.6-.5-.5zM12.9 21c-.2-.3-.4-.5-.7-1-.2.2-.4.5-.6.8-.1.3-.3.6-.5.8-.1-.1-.2-.1-.2-.2v.5c0 .6.3 1 .9 1.2.5.1.9.3 1.3.2.4-.2.5-.3.6-.7.1-.5.3-1 .4-1.6 0 .1 0 .2-.1.2 0 .2.1.2.2.3.1.2.1.5.2.7.1.3.1.7.4 1l.3.3c.3.3.5.7.9 1 .2.2.5.2.7 0 .3-.2.4-.4.5-.6.1-.2.1-.5.1-.7 0-.2-.1-.4-.1-.6v-.7c-.1-.6-.5-1.2-.8-1.8-1.3.2-2.2 1-3.5.9zM7.6 22.3h.3c.1-.1.2-.1.3-.2 0 0 0-.1-.1-.1-.1.1-.5-.2-.5.3z"/><path class="st3" d="M13.2 8.8c-.9-.7-.8.5-1.1.8.2.3.3.5.5.8.4-.7.8-1 .6-1.6zM19.3 7.2c-.2-.3-.4-.5-.7-.7-.3-.5-.6-.8-.8-1.1-.5-.2-.3.6-.5.8V8c.5.1 1 .2 1.5.2.6.1.2-.8.5-1zM22.2 13.6c-.4 0-.9 0-1.3.1.3 1.2.9.5 1.3-.1zM20.2 5.5c.5.2.9.3 1.4.5.1-.1.2-.1.3-.2.4-.2.7-.5.8-1 .1-.3-.2-.7-.5-.9-.3-.2-.7-.1-1-.2-.5.3-.9.8-1 1.8z"/><path class="st5" d="M1.9 19.7c.1.1.3.2.4.3-.1-.1-.3-.2-.4-.3zM4.1 17.9c-.3.6-.6.6-1 .6 0 .5.1 1 .1 1.4.1 0 .1 0 .2-.1l.6-.3c.2-.1.4-.2.6-.2.3-.2.6-.4.9-.7 0-.2-.1-.3-.1-.5-.4 0-.8-.1-1.3-.2z"/><path class="st3" d="M18.1 15.2c.4.1.8.1 1.2.2.2-.1.5-.2.8-.3 0-.1 0-.2-.1-.3.2-.3.4-.7.6-1.1-.3 0-.7 0-1 .1-.9.2-1.8.3-2.7.4-.3.2-.7.4-1 .5h-.2v.6c.5.2 1 .4 1.4.5l-.1-.1.1-.2c.1.1.3.2.4.2 0-.2.1-.8.6-.5zM10.7 10.5c.1.2.3.3.4.5h.3V9.7c-.4 0-.7-.1-1-.2-1-.4-.5.6-.9.5.3.2.5.4.8.5h.4z"/><g><path d="M12.2 14.4c-.1 0-.2.3-.3.3-.1 0-.3.2-.4.1-.1 0-.4.2-.5.2-.1 0 .1-.6 0-.7l-.2-.2c-.1-.1 0-.2-.1-.3-.1-.1-.9.1-.9 0s.8-.4.8-.5c0-.1-.9-.3-.9-.4 0-.1.5-.2.5-.3.1-.1.4-.1.5-.2.1-.1-.2-.5-.1-.6.1-.1.2-.2.4-.2.1-.1.2-.3.3-.4.1 0 .3-.1.5-.1h.5c.1 0 0 .8.1.9.1 0 .7-.7.8-.6.1.1.1.4.2.5.1.1-.3.5-.2.6.1.1.6 0 .7.1 0 .1-.1.3-.1.4 0 .1-.6.2-.6.3 0 .1.2.2.2.4-.1.1-.1.2-.1.3-.1.1-.3 0-.4.1-.1.1-.2 0-.3.1-.3.1-.3.2-.4.2z" fill="#c8cd23"/><path class="st9" d="M12.6 12.3l1.3-1.3h.1l-1.3 1.4z"/><path class="st9" d="M14.4 11c-.2.1-.5.1-.6-.1-.1-.2.1-.4.3-.5.3-.1.5-.1.6.1.1.2 0 .4-.3.5zM10.2 15.1c-.2.1-.5.1-.6-.1-.1-.2.1-.4.3-.5.2-.1.5-.1.6.1 0 .2-.1.4-.3.5zM11.9 16c-.1.2-.3.4-.5.3-.2-.1-.2-.3-.1-.6.1-.2.3-.4.5-.3.2.1.2.4.1.6zM12.5 10.1c-.1.2-.3.4-.5.3-.2-.1-.2-.3-.1-.6.1-.2.3-.4.5-.3.2.1.2.4.1.6zM12.7 13.5l.1-.1 2.3.5v.2zM13 13.1V13l1.7-.2v.1z"/><path transform="rotate(-59.773 12.838 11.207)" class="st9" d="M11.7 11.1h2.2v.1h-2.2z"/><path class="st9" d="M11.9 11.8c.1-.1.1-1 .1-1.5h.1c0 .1-.1 1.3-.2 1.5zM10 11.1V11c.7 0 1.9 1.1 1.9 1.2l-.1.1c0-.1-1.1-1.2-1.8-1.2z"/><path transform="rotate(-16.764 10.586 11.446)" class="st9" d="M10.5 10.4h.1v2.2h-.1z"/><path transform="rotate(-11.098 10.102 13.531)" class="st9" d="M9.2 13.5h1.9v.1H9.2z"/><path class="st9" d="M12.8 13.9v-.1l1.7.9v.1z"/><path transform="rotate(-47.367 13.324 14.549)" class="st9" d="M13.3 13.4h.1v2.4h-.1z"/><path class="st9" d="M11.7 15.4l.5-1.8.1.1-.5 1.7zM10.3 14.6l1.4-.9.1.1-1.4.9zM13.5 10.4c-.1 0-.3 0-.3-.2 0-.1 0-.3.2-.3.1 0 .3 0 .3.2 0 .1 0 .3-.2.3zM10.3 10.5c-.1 0-.3 0-.3-.2 0-.1 0-.3.2-.3.1 0 .3 0 .3.2 0 .1-.1.2-.2.3zM9.1 13.9c-.1 0-.3 0-.3-.2 0-.1 0-.3.2-.3.1 0 .3 0 .3.2s-.1.3-.2.3zM9.9 11.2c-.1 0-.3 0-.3-.2 0-.1 0-.3.2-.3.1 0 .3 0 .3.2s-.1.3-.2.3zM14.8 13c-.1 0-.3 0-.3-.2 0-.1 0-.3.2-.3.1 0 .3 0 .3.2s0 .3-.2.3zM15.5 14.3c-.2 0-.4-.2-.4-.3 0-.1.2-.2.5-.1.2 0 .4.2.4.3-.1.1-.3.2-.5.1zM14.6 15c-.2-.1-.4-.2-.3-.4 0-.1.3-.1.5-.1.2.1.4.2.3.4-.1.2-.3.2-.5.1z"/></g></g></svg>