<?xml version="1.0" encoding="utf-8"?>
<!-- Generator: Adobe Illustrator 23.0.3, SVG Export Plug-In . SVG Version: 6.00 Build 0)  -->
<svg version="1.1" id="レイヤー_1" focusable="false"
	 xmlns="http://www.w3.org/2000/svg" xmlns:xlink="http://www.w3.org/1999/xlink" x="0px" y="0px" viewBox="0 0 16 16"
	 style="enable-background:new 0 0 16 16;" xml:space="preserve">
<style type="text/css">
	.st0{fill:#8C8060;}
</style>
<path class="st0" d="M16,8c0,4.4-3.6,8-8,8c-1.9,0-3.7-0.7-5-1.8c-0.4-0.3-0.4-0.8-0.1-1.1l0.4-0.4c0.3-0.3,0.7-0.3,1-0.1
	c1,0.8,2.3,1.3,3.7,1.3c3.3,0,5.9-2.7,5.9-5.9c0-3.3-2.7-5.9-5.9-5.9c-1.6,0-3,0.6-4.1,1.6l1.6,1.6c0.3,0.3,0.1,0.9-0.4,0.9H0.5
	C0.2,6.2,0,6,0,5.7V1c0-0.5,0.6-0.7,0.9-0.4l1.6,1.6C3.9,0.8,5.9,0,8,0C12.4,0,16,3.6,16,8z M10.2,10.5l0.3-0.4
	c0.3-0.3,0.2-0.8-0.1-1.1L9,8V4.6c0-0.4-0.3-0.8-0.8-0.8H7.7C7.3,3.9,7,4.2,7,4.6V9l2.1,1.6C9.4,10.9,9.9,10.9,10.2,10.5z"/>
</svg>
