<?xml version="1.0" encoding="utf-8"?>
<!-- Generator: Adobe Illustrator 23.0.3, SVG Export Plug-In . SVG Version: 6.00 Build 0)  -->
<svg version="1.1" id="レイヤー_1" xmlns="http://www.w3.org/2000/svg" xmlns:xlink="http://www.w3.org/1999/xlink" x="0px"
	 y="0px" viewBox="0 0 24 24.1" style="enable-background:new 0 0 24 24.1;" xml:space="preserve">
<style type="text/css">
	.st0{opacity:0.7;}
	.st1{fill:none;}
	.st2{fill:#DFBFDA;}
	.st3{fill:#B961A2;}
	.st4{fill:#D4A6CB;}
	.st5{fill:#CB91BE;}
	.st6{fill:#C279B0;}
	.st7{fill:#B04996;}
	.st8{fill:#C8CD23;}
	.st9{fill:#FFFFFF;}
</style>
<g class="st0">
	<g>
		<path class="st1" d="M13.9,16.4c-0.1,0.1-0.2,0.3-0.3,0.4c0,0,0,0,0,0C13.8,16.7,13.9,16.6,13.9,16.4z"/>
		<path class="st1" d="M13.8,15.4c0-0.2,0-0.4,0.2-0.5c0,0,0,0,0,0C13.8,15.1,13.6,15.2,13.8,15.4z"/>
		<path class="st1" d="M13.8,14.4c0.1,0.1,0.1,0.1,0.2,0.2c0-0.1,0-0.2,0.1-0.3C14,14.3,13.9,14.3,13.8,14.4z"/>
		<path class="st1" d="M11.3,17.9c-0.2,0.1-0.4,0.2-0.5,0.4c0,0.1-0.1,0.2-0.1,0.3C10.8,18.4,11,18.1,11.3,17.9z"/>
		<path class="st2" d="M16.3,22.1c0,0,0.1,0,0.1,0.1c0.3,0.1,0.6-0.3,0.8-0.5c0.3-0.2,0.4-0.5,0.5-0.8C17.3,21,17,21,16.7,21
			C16.7,21.5,16.3,21.6,16.3,22.1z"/>
		<path class="st2" d="M20.7,14.2c-0.2,0-0.4,0.1-0.6,0.1c0,0,0,0,0,0.1c0,0,0,0,0,0c0.1,0,0.2,0,0.3,0c0.2,0,0.4,0.1,0.7,0.2
			c0.3,0.1,0.7,0.2,1,0.1c0.1,0,0.2-0.1,0.4-0.1c0.4-0.1,0.9-0.1,1.3-0.3c0.2-0.1,0.4-0.3,0.3-0.6c0-0.3-0.1-0.5-0.3-0.7
			c-0.2-0.2-0.4-0.3-0.6-0.4c-0.1,0-0.2,0-0.2-0.1c-0.8,0.3-1.5,0.7-2.3,1.1C20.6,13.8,20.6,13.9,20.7,14.2z"/>
		<path class="st2" d="M19.6,16.6c-0.4,0.2-0.8,0.4-1.1,0.6c0.2,0.1,0.4,0.3,0.6,0.4c0.5,0.3,1,0.3,1.4-0.1c0.3-0.3,0.7-0.5,0.8-1
			c0.1-0.4,0-0.5-0.3-0.8c-0.4-0.4-0.7-0.8-1.1-1.2c0,0,0,0,0,0c-0.1,0.2-0.3,0.4-0.4,0.6C19.7,15.6,20.2,16.4,19.6,16.6z"/>
		<path class="st3" d="M13.9,2.8C14,2.4,14.1,2,14.2,1.6c0-0.1,0-0.3,0-0.4c0-0.3,0-0.8-0.1-1c-0.2-0.3-0.7-0.1-0.9-0.1
			c0,0-0.1,0-0.1,0c-0.1,0-0.1,0.1-0.2,0.1C11.9,0.7,13.1,1.9,13.9,2.8z"/>
		<path class="st3" d="M12.4,4c0.1,0.3,0.2,0.5,0.3,0.8c-0.2,0.2-0.7,0.3,0,1.3c-0.2,0.1-0.3,0.2-0.5,0.4c0.2,0.4,0.4,0.8,0.6,1.1
			c-0.6,0.1-1.1,0.5-1.2,1.3C11.4,9,11.2,9.3,11,9.5c-1.1-0.4-0.7,0.7-0.9,1.6c0.5-0.4,0.9-0.7,1.4-1.1c0.2-0.3,0.3-0.5,0.5-0.7
			c0.2-0.1,0.4-0.1,0.6-0.2c0.2-0.3,0.4-0.6,0.6-0.8c0-0.1,0-0.2,0.1-0.4c0.3-0.1,0.6-0.2,0.8-0.3c0-0.1,0-0.2-0.1-0.3
			c0.4-0.3,0.7-0.5,1-0.8c-0.1-0.1-0.2-0.2-0.3-0.4c0.1-0.3-0.1-0.7,0.9-0.7c0.2-0.2,0.5-0.3,0.7-0.5c0.2-0.4,0.5-0.9,0.8-1.3
			c0.1-0.7,0.3-1.3,1-1.8c0-0.1,0-0.2,0-0.3c0-0.3-0.1-0.5-0.4-0.5c-0.3-0.1-0.5-0.1-0.8,0c-0.2,0.1-0.4,0.2-0.6,0.4
			c-0.1,0.2-0.3,0.3-0.4,0.5C16,2,15.8,2.2,15.7,2.3c-0.5,0.5-0.7,1.4-1,2.1c-0.2,0.3-0.4,0.6-0.6,0.9c-0.1,0.2-0.3,0.5-0.4,0.7
			l-0.5,0.1c0-0.1,0-0.2,0.1-0.3c0.1-0.2,0.2-0.4,0.2-0.6c0,0,0,0,0,0c0.1-0.2,0.1-0.5,0.1-0.8c0.1-0.4,0.1-0.7,0.2-1.1
			c-0.3-0.1-0.6-0.3-0.8-0.3C12.8,3.4,12.6,3.7,12.4,4z"/>
		<path class="st4" d="M20.4,8.4c-0.8,0.3-0.7,1.1-1.6,0.6c-0.5,0.8-0.3,2.4-0.6,3.3c0.1,0.3,0.2,0.7,0.3,1c0.4,0.2,0.8,0.3,1.1,0.4
			c0.1,0.2,0.3,0.4,0.5,0.6c0.2-0.1,0.4-0.1,0.6-0.1c0-0.2-0.1-0.4-0.1-0.6c0.8-0.4,1.5-0.8,2.3-1.1c-0.1,0-0.3-0.1-0.4-0.1
			c-0.2-0.1-0.4-0.2-0.6-0.3c-0.6-0.2-1.4-0.1-2-0.1c0.2-0.2,0.4-0.3,0.5-0.5c0.2-0.2,0.5-0.4,0.7-0.6c0.1,0,0.1-0.1,0.1-0.1
			c0.2,0,0.5,0,0.7-0.1c0.1,0,0.3-0.1,0.4-0.2c0.2-0.1,0.8-0.2,0.9-0.4c0.2-0.3-0.1-0.7-0.2-0.9c-0.2-0.5-0.6-0.9-1.2-1.2
			c-0.5-0.3-1.1-0.3-1.7-0.3C20.1,7.9,20.1,7.9,20,8C20.1,8.1,20.2,8.2,20.4,8.4z"/>
		<path class="st5" d="M17.3,3.7c-0.3,0.4-0.6,0.8-0.8,1.3c-0.2,0.2-0.5,0.4-0.7,0.5c0.1,0.2,0.2,0.4,0.4,0.7
			c-0.3,0.1-0.7,0.3-1,0.4c-0.3,0.3-0.7,0.5-1,0.8c0,0.1,0,0.2,0.1,0.3c0.2,0.2,0.3,0.4,0.5,0.6c0.4,0,0.8,0,1.2,0.1
			c0.3,0.5,0.5,1,0.8,1.6c-0.6-0.1-1.2-0.2-1.7-0.2c0,0-0.1,0.1-0.1,0.1c-0.2,0.3-0.4,0.6-0.6,0.8c0.2,0.4,0.4,0.8,0.6,1.1
			c-0.4,0.7-0.1,1.8-0.7,2.5c0,0.1,0,0.2-0.1,0.3c0.1,0.2,0.1,0.3-0.1,0.4c0,0,0,0,0,0c-0.2,0.1-0.2,0.3-0.2,0.5
			c0.1,0.1,0.2,0.2,0.3,0.3c0,0.3-0.1,0.5-0.2,0.6c0,0.2-0.1,0.3-0.3,0.4c0,0.1,0.1,0.1,0.1,0.2c0.1,0.2,0.1,0.4,0.2,0.7
			c0,0,0,0,0,0c0.1,0.3,0.2,0.5,0.4,0.7c0.4,0.8,0.7,1.7,1.1,2.6c0.2-0.2,0.5-0.5,0.7-0.7c0.8-0.7,0.9-1.6,1.3-2.4c0,0,0,0,0,0
			c-0.1-0.2-0.3-0.3-0.4-0.5c-0.1-0.1-0.1-0.2-0.2-0.3c-0.2-0.3-0.5-0.5-0.7-0.8c-0.3-0.5-0.6-0.9-1-1.4c0.6,0.5,1.2,1,1.9,1.4
			c0.1,0.1,0.2,0.1,0.3,0.2c0.1,0.1,0.3,0.3,0.5,0.3c0.3,0.1,0.5,0.3,0.7,0.4c0.3-0.2,0.7-0.4,1.1-0.6c0.6-0.2,0.2-1.1,0-1.6
			c0.1-0.2,0.3-0.4,0.4-0.6c-0.1-0.1-0.2-0.2-0.3-0.2c0.1,0,0.1,0,0.2,0c0.1,0,0.2,0.1,0.2,0.1c0,0,0,0,0-0.1
			c-0.2-0.2-0.3-0.4-0.5-0.6c-0.4-0.2-0.8-0.3-1.1-0.4c0,1-0.3,1.2-0.5,1.4c-1.8-1.3-0.5-1.7,0.5-1.4c-0.1-0.3-0.2-0.7-0.3-1
			c0.4-0.9,0.1-2.5,0.6-3.3c0.9,0.5,0.8-0.2,1.6-0.6C20.2,8.2,20.1,8.1,20,8c0.1-0.1,0.1-0.1,0.2-0.2c-0.2,0-0.5,0.1-0.7,0.1
			c-0.2,0-0.4,0.2-0.6,0.2c-0.1,0-0.2,0-0.4,0.1c-0.3,0.1-0.7,0.3-1,0.4c-0.1,0-0.3,0.1-0.4,0.1l0-0.4c0.3-0.2,0.5-0.4,0.8-0.6
			c0.1-0.1,0.2-0.1,0.3-0.2c0.2-0.1,0.3-0.2,0.5-0.4c0.4-0.4,0.8-0.7,1.2-1.1c0.4-0.4,0.6-0.9,0.3-1.4c-0.2-0.4-0.3-0.9-0.7-1.1
			c-0.4-0.2-0.5-0.2-0.9,0c-0.4,0.2-0.7,0.3-1.1,0.5C17.7,3.9,18,3.6,18,3.3c0-0.1,0-0.2,0-0.4c0-0.3,0.2-0.7,0.2-1
			C17.7,2.4,17.4,3,17.3,3.7z"/>
		<path class="st5" d="M10.6,18.6c-0.1,0.1-0.1,0.2-0.2,0.3c-0.2,0.5-0.2,0.3-0.2,0.6c0,0.1,0,0.2,0,0.3c0,0.1-0.1,0.2-0.2,0.2
			c0,0.1,0,0.2,0,0.3c0.3,0,0.5,0,0.9,0.3c0.1-0.2,0.2-0.4,0.3-0.5c0.2-0.5,0.6-0.4,1.1-0.3c0-0.1,0-0.2,0-0.2
			c0-0.4,0.1-0.7,0.2-1.1c0-0.4,0-0.8,0.1-1.2c0,0,0,0,0,0c-0.5,0.2-1,0.3-1.4,0.6C11,18.1,10.8,18.4,10.6,18.6z"/>
		<path class="st6" d="M7.2,20.4l-0.7-0.8c0,0-0.1,0-0.2-0.2c-0.2-0.2-0.4-0.4-0.7-0.5c0,0.1-0.1,0.2-0.1,0.2
			c-0.2,0.4-0.4,0.8-0.7,1.1c0.2,0.2,0.4,0.4,0.5,0.6c0.3,0.1,0.6,0.2,0.8,0.3c0.2,0.3,0.4,0.6,0.6,1c0.2,0,0.3,0,0.5-0.1
			c0.2-0.1,0.4-0.3,0.6-0.6c-0.1-0.2-0.1-0.4-0.2-0.5C7.6,20.8,7.4,20.6,7.2,20.4z"/>
		<path class="st6" d="M10.9,23.7c-0.1,0.1-0.2,0.2-0.3,0.4c0.1,0,0.2,0.1,0.3,0.1c0.1,0,0.2,0,0.3-0.1C11.1,23.9,11,23.8,10.9,23.7
			z"/>
		<path class="st4" d="M15.3,21c0,0,0,0.1,0.1,0.1c0.1,0.1,0.2,0.2,0.3,0.3c0.2,0.2,0.4,0.5,0.6,0.7c0.1-0.5,0.5-0.6,0.4-1.1
			c0.3,0,0.7-0.1,1-0.1c0.1-0.2,0.2-0.5,0.2-0.7c0.1-0.8-0.2-1.6-0.6-2.3c-0.4,0.8-0.5,1.7-1.3,2.4C15.8,20.5,15.6,20.7,15.3,21z"/>
		<path class="st7" d="M7.1,18.3c-0.2-0.5-0.3-1-0.4-1.5c0,0.1-0.1,0.1-0.1,0.2c-0.2,0.3-0.2,0.7-0.4,1c0,0,0,0,0,0.1
			c0.2,0.1,0.4,0.3,0.6,0.6C6.9,18.5,7,18.4,7.1,18.3z"/>
		<path class="st7" d="M2.8,8.6c0,0,0.1,0.1,0.1,0.1c0.2,0.1,0.4,0.1,0.6,0.2C3.7,9,3.7,9.1,3.8,9.1c0.3,0.1,0.7,0.2,1,0.4
			c0.3,0.1,0.5,0.3,0.8,0.4l0,0.2C5.2,10,4.6,9.9,4.1,9.9c-0.1,0-0.2,0-0.3,0c-0.2,0-0.4-0.1-0.6,0c-0.3,0-0.7,0-1,0
			c0.2,0.4-0.3,0.7-0.2,1.3c0.4-0.2,0.8-0.4,1.2-0.6c0.4,0.3,0.8,0.6,1.2,1c-0.1,0.7-0.8,0.9-1.2,1.3c-0.4,0-0.8,0-1.2,0
			c-0.2,0.1-0.3,0.2-0.5,0.4c-0.3,0.1,0,0.6,0,0.9c-0.2,0.2-0.5,0.4-0.7,0.5c-0.1,0.1-0.2,0.1-0.2,0.2c0,0-0.1,0.1-0.1,0.1
			c0,0,0.1,0.1,0.1,0.1C0.8,15,1.1,15,1.3,15.1c0.2,0,0.4,0,0.6,0c0.2,0,0.4,0,0.6,0.1c0.4,0,0.8-0.2,1.3-0.4
			c-0.3,0.2-0.5,0.4-0.9,0.6c-0.4,0.3-0.8,0.6-1.2,1c-0.2,0.2-0.4,0.3-0.5,0.5c-0.1,0.3-0.5,0.8-0.3,1.1c0.1,0.2,0.5,0.2,0.7,0.2
			c0.3,0,0.4,0.1,0.7,0.1c0.5,0.1,1.2-0.3,1.7-0.4c0.1,0,0.2-0.1,0.3-0.1c0.2-0.1,0.5-0.3,0.7-0.4c0.5-0.3,1-0.6,1.4-1
			c0-0.1-0.1-0.2-0.1-0.3c0.3-0.3,0.7-0.5,1-0.8c0-0.3,0.1-0.5,0.1-0.8c-0.2-0.2-0.3-0.4-0.5-0.6c0.2-0.3,0.3-0.5,0.5-0.7
			c0-0.5,0-0.9,0-1.3c0.3-0.5,0.6-0.9,0.9-1.4c0.5,0.3,0.9,0.6,1.3,0.9c0.1-0.1,0.1-0.1,0.2-0.2c0.2-0.9-0.2-2.1,0.9-1.6
			c0.2-0.2,0.4-0.5,0.6-0.7c0.1-0.8,0.6-1.1,1.2-1.3c-0.2-0.4-0.4-0.7-0.6-1.1c0.2-0.1,0.3-0.2,0.5-0.4c-0.7-1-0.2-1,0-1.3
			c-0.1-0.3-0.2-0.5-0.3-0.8c0.2-0.3,0.3-0.6,0.5-1c0.2,0,0.6,0.2,0.8,0.3c0-0.2,0.1-0.3,0.1-0.5c-0.8-0.9-2-2.2-1.1-2.6
			c0.1,0,0.2-0.1,0.2-0.1c-0.5,0.1-1,0.3-1.4,0.8c-0.6,0.6-0.8,1.4-0.9,2.2c0,0.2,0,0.4,0,0.6c0,0.1-0.1,0.2-0.1,0.4
			c0,0.4,0.1,0.7,0.1,1.1c-0.1,0.6-0.1,1.1,0,1.7c-0.2-0.8-0.4-1.5-0.7-2.3c0-0.1-0.1-0.2-0.1-0.3c0-0.2-0.1-0.4-0.2-0.6
			c-0.3-0.5-0.4-1-0.6-1.5C8.9,1.7,8.5,1.4,8,1.5C7.5,1.5,7,1.5,6.7,1.8C6.4,2.1,6.4,2.2,6.4,2.6c0.1,0.5,0.1,1,0.2,1.6
			C6.5,4.1,6.5,4,6.6,3.9C6.5,3.8,6.4,3.8,6.3,3.7C6.1,3.6,6,3.3,5.9,3.2C5.7,2.9,5.5,2.6,5.2,2.4C5.1,2.3,5,2.3,4.9,2.3
			C4.5,2.4,3.6,1.9,3.1,2.7C3,2.6,3,2.5,2.9,2.5c0,0,0,0.1,0,0.1C2.9,2.8,2.9,3,3,3.3c0.1,0.2,0.2,0.4,0.3,0.5
			C3.5,4,3.5,4.2,3.6,4.4C4,5,4.8,5.4,5.3,6C5.5,6.2,5.7,6.5,6,6.8c0,0,0,0,0,0c0.6-0.6,1.5-1.1,2.3-1.5C8.6,5.8,9,6.2,9.4,6.7
			C9.2,6.9,8.9,7.1,8.7,7.2C8.3,7.1,8,6.9,7.6,6.8C6,7.2,6.7,9.2,5,9.1C4.9,9,4.8,8.9,4.7,8.8C5,8.3,5.3,7.9,5.6,7.4
			C5.7,7.2,5.7,7.1,5.8,7C5.7,6.9,5.5,6.8,5.3,6.7C4.8,6.4,4.4,6.1,4,5.8c-0.4,1-0.6,1.9-1,2.6C3,8.5,2.9,8.5,2.8,8.6z"/>
		<path class="st7" d="M6.5,19.7c0.1,0,0.1-0.3-0.1-0.5c-0.2-0.2-0.4-0.4-0.6-0.7c-0.1,0.2-0.1,0.3-0.2,0.5c0.2,0.2,0.5,0.4,0.7,0.5
			L6.5,19.7z"/>
		<path class="st7" d="M3.7,5.5C3.5,5.3,3.2,5.1,2.9,4.9C2.8,4.8,2.6,4.8,2.5,4.8c0,0-0.1,0-0.2-0.1c0,0.1,0.1,0.2,0.1,0.3
			C2.8,5.2,3.2,5.6,3.7,5.5z"/>
		<path class="st6" d="M15.8,5.6c-1,0-0.8,0.4-0.9,0.7c0.1,0.1,0.2,0.2,0.3,0.4c0.3-0.1,0.7-0.3,1-0.4C16.1,6,15.9,5.7,15.8,5.6z"/>
		<path class="st6" d="M10.9,22.3c0.2-0.4,0.4-0.7,0.6-1.1L11,20.7l-0.9,0c0,0.2-0.1,0.3-0.1,0.5c-0.1,0.2-0.1,0.4-0.1,0.7
			c0.1,0.1,0.1,0.2,0.2,0.3C10.4,22.1,10.7,22.2,10.9,22.3z"/>
		<path class="st6" d="M13.8,15.4c-0.2-0.3,0-0.4,0.2-0.5c0-0.1,0-0.3,0.1-0.4c0-0.1-0.1-0.1-0.2-0.2c0.1-0.1,0.2-0.1,0.2-0.2
			c0.1-0.9,0.3-1.7,0.6-2.4c-0.2-0.4-0.3-0.8-0.5-1.2c0.2-0.2,0.4-0.5,0.6-0.8c0,0,0.1-0.1,0.1-0.1c0.6,0.1,1.2,0.2,1.7,0.2
			c-0.3-0.5-0.5-1-0.8-1.6c-0.4,0-0.8,0-1.2-0.1c-0.1-0.2-0.3-0.4-0.5-0.6C14,7.8,13.7,7.9,13.4,8c0,0.2-0.1,0.2-0.1,0.4
			c-0.2,0.2-0.4,0.5-0.6,0.8c-0.2,0-0.4,0.1-0.6,0.2c-0.2,0.2-0.4,0.5-0.5,0.7c-0.5,0.4-0.9,0.7-1.4,1.1c-0.1,0.1-0.2,0.1-0.2,0.2
			c0,0,0.1,0.1,0.2,0.2c-0.5,0.6-0.6,1.3-1,2c-0.3,0.1-0.6,0.2-0.9,0.3c-0.2,0.2-0.5,0.3-0.7,0.5c0,0.2-0.1,0.5-0.1,0.8
			c0.3,0.4,0.6,0.8,1,1.1c0.4,0,0.8-0.1,1.2-0.2c0.2,1.1,0,1.2-0.3,1.2c-0.6,0.5-0.6,1.4-0.2,3.2c0,0,0,0,0,0c0.4-0.4,0.8-0.9,1-1.4
			c0.1-0.4,0.3-0.9,0.4-1.3c0.2-0.3,0.3-0.6,0.4-1c0.2-0.4,0.3-0.9,0.4-1.3l0.2,0c-0.1,0.4-0.1,0.8-0.2,1.2
			c-0.2,0.6-0.3,1.1-0.6,1.7c0.2-0.2,0.3-0.3,0.5-0.4c0.4-0.4,0.9-0.7,1.5-0.9c0.1-0.5,0.1-1.1,0.1-1.6l0.5,0.1c0,0.1,0,0.3,0,0.3
			c0,0.1-0.1,0.2-0.1,0.3c0,0.1,0.2,0.4,0.3,0.4c0.1,0.1,0.1,0.2,0.1,0.2c0.1-0.1,0.2-0.2,0.3-0.4C13.9,16.1,13.8,15.7,13.8,15.4z"
			/>
		<path class="st6" d="M10.1,20.3C10.2,20.4,10.2,20.4,10.1,20.3c0,0.2,0,0.2,0,0.3l0.9,0C10.7,20.3,10.4,20.4,10.1,20.3z"/>
		<path class="st6" d="M14,14.5c0,0.1,0,0.3-0.1,0.4C14.1,14.8,14.1,14.7,14,14.5z"/>
		<path class="st6" d="M14.1,14.2c0.6-0.6,0.3-1.8,0.7-2.5c-0.2-0.4-0.4-0.8-0.6-1.1c0.2,0.4,0.3,0.8,0.5,1.2
			C14.4,12.5,14.2,13.3,14.1,14.2z"/>
		<path class="st6" d="M13.9,16.4c0.1-0.2,0.2-0.4,0.2-0.6c-0.2-0.1-0.3-0.3-0.3-0.3C13.8,15.7,13.9,16.1,13.9,16.4z"/>
		<path class="st6" d="M12.7,17.3c0-0.1,0-0.3,0-0.4c-0.6,0.2-1,0.5-1.5,0.9C11.7,17.7,12.2,17.5,12.7,17.3z"/>
		<path class="st3" d="M1.3,7c0.3,0.7,0.9,1.2,1.6,1.6C2.9,8.5,3,8.5,3.1,8.4c0.4-0.8,0.5-1.6,1-2.6C3.9,5.7,3.8,5.6,3.7,5.5
			C3.2,5.6,2.8,5.2,2.5,5c0-0.1,0-0.2-0.1-0.3C2.1,4.6,1.8,4.5,1.6,4.5C1.3,4.6,1.2,5.1,1.1,5.3C1,5.9,1,6.4,1.3,7z"/>
		<path class="st3" d="M1.5,14c0-0.3-0.2-0.8,0-0.9C1.7,13,1.8,12.9,2,12.7c0.4,0,0.8,0,1.2,0c0.4-0.4,1-0.5,1.2-1.3
			c-0.4-0.3-0.8-0.6-1.2-1c-0.4,0.2-0.8,0.4-1.2,0.6c-0.1-0.6,0.3-0.9,0.2-1.3c-0.2,0-0.4,0-0.6,0c-0.6,0-1,0.3-1.2,0.8
			c-0.1,0.4-0.4,0.8-0.2,1.3c0.1,0.4,0.3,0.5,0.6,0.6c0.3,0.1,0.5,0.2,0.8,0.2c-0.1,0.1-0.2,0.2-0.3,0.2c-0.3,0.2-0.7,0.4-1,0.6
			c0.2,0.3,0.4,0.7,0.6,1C1.1,14.4,1.3,14.2,1.5,14z"/>
		<path class="st6" d="M0.9,14.5c-0.2-0.3-0.4-0.6-0.6-1c0,0-0.1,0.1-0.1,0.1C0,13.8,0,14.1,0.1,14.3c0.1,0.2,0.2,0.4,0.4,0.5
			c0,0,0.1-0.1,0.1-0.1C0.7,14.7,0.8,14.6,0.9,14.5z"/>
		<path class="st5" d="M10.9,22.3c-0.3-0.1-0.5-0.2-0.8-0.3c0,0-0.1,0.1-0.1,0.1c0,0,0,0,0,0c0,0.1,0.1,0.2,0.1,0.3
			c0.1,0.3,0.2,0.7,0.2,1c0.2,0,0.4,0.1,0.6,0.1c0.1,0.1,0.2,0.3,0.3,0.4c0.2-0.1,0.3-0.2,0.5-0.3c0.2-0.2,0.3-0.4,0.4-0.6
			C11.8,23.4,11.2,22.8,10.9,22.3z"/>
		<path class="st5" d="M10.3,23.5c0,0.1,0,0.2,0.1,0.2c0.1,0.1,0.1,0.2,0.3,0.3c0.1-0.1,0.2-0.2,0.3-0.4
			C10.7,23.6,10.5,23.6,10.3,23.5z"/>
		<path class="st3" d="M4.9,2.3C4.9,2.3,4.9,2.2,4.9,2.3C4.5,2.1,4.1,1.8,3.7,1.6c-0.2-0.1-0.5,0-0.6,0.2C2.9,2,2.9,2.2,2.9,2.5
			C3,2.5,3,2.6,3.1,2.7C3.6,1.9,4.5,2.4,4.9,2.3z"/>
		<path class="st3" d="M4.7,8.8C4.8,8.9,4.9,9,5,9.1c1.7,0,1-2,2.6-2.3C8,6.9,8.3,7.1,8.7,7.2c0.2-0.2,0.5-0.3,0.7-0.5
			C9,6.2,8.6,5.8,8.2,5.3C7.5,5.8,6.6,6.2,6,6.8c0,0,0.1,0.1,0.1,0.1L6,7.2c0,0,0,0-0.1-0.1c0,0,0,0,0,0c0,0-0.1-0.1-0.1-0.1
			C5.7,7.1,5.7,7.2,5.6,7.4C5.3,7.9,5,8.3,4.7,8.8z"/>
		<path class="st3" d="M9.2,13.6c0.4-0.7,0.5-1.4,1-2c-0.1-0.1-0.1-0.2-0.2-0.2c-0.5-0.3-0.9-0.6-1.3-0.9c-0.3,0.5-0.6,0.9-0.9,1.4
			c0,0.4,0,0.8,0,1.3c-0.2,0.2-0.4,0.5-0.5,0.7c0.1,0.2,0.3,0.4,0.5,0.6c0.2-0.2,0.5-0.4,0.7-0.5C8.6,13.7,8.8,13.7,9.2,13.6z"/>
		<path class="st3" d="M9.2,17.3c0.1-0.4,0.2-0.8,0.3-1.2c-0.4,0.1-0.8,0.2-1.2,0.2c-0.3-0.4-0.6-0.8-1-1.1c-0.3,0.3-0.7,0.5-1,0.8
			c0,0.1,0.1,0.2,0.1,0.3c0.4-0.3,0.7-0.6,1-0.9l0.1,0.1l-0.2,0.3l0,0c-0.2,0.2-0.3,0.4-0.5,0.5c-0.1,0.1-0.3,0.3-0.4,0.4
			c0.1,0.5,0.3,1,0.4,1.5c-0.1,0.1-0.2,0.2-0.3,0.3c-0.3-0.3-0.5-0.5-0.6-0.6c-0.1,0.2-0.2,0.3-0.2,0.5c0.2,0.2,0.4,0.4,0.6,0.7
			c0.1,0.3,0.1,0.5,0.1,0.5l0.7,0.8c0.2,0.2,0.4,0.3,0.6,0.5c0.3-0.1,0.6-0.2,1-0.3c0.1-0.1,0.2-0.1,0.2-0.2
			C8.7,18.6,8.6,17.8,9.2,17.3z"/>
		<path class="st3" d="M6.5,19.7l-0.2-0.2C6.5,19.6,6.5,19.7,6.5,19.7z"/>
		<path class="st3" d="M9.6,16.1c-0.1,0.4-0.2,0.8-0.3,1.2C9.6,17.3,9.8,17.2,9.6,16.1z"/>
		<path class="st3" d="M5.5,20.8c-0.2-0.2-0.4-0.4-0.5-0.6c-0.1,0.1-0.2,0.3-0.3,0.4c-0.3,0.4-0.5,0.7-0.4,1.2
			c0.1,0.3,0.4,0.6,0.7,0.6c0.3,0,0.7-0.1,1-0.2c0.3-0.1,0.5-0.1,0.8-0.2c0.1,0,0.1,0,0.2,0c-0.2-0.3-0.4-0.6-0.6-1
			C6,21.1,5.7,20.9,5.5,20.8z"/>
		<path class="st7" d="M10.1,22c-0.1-0.1-0.1-0.2-0.2-0.3c0,0.1,0,0.2,0,0.4c0,0,0,0,0,0c0,0,0,0,0,0C10,22.1,10,22.1,10.1,22z"/>
		<path class="st7" d="M8,21.5c0.1-0.2,0.3-0.4,0.4-0.5c0.1-0.1,0.2-0.2,0.3-0.3c-0.3,0.1-0.6,0.2-1,0.3C7.9,21.1,8,21.3,8,21.5z"/>
		<path class="st4" d="M11.3,20.1c-0.1,0.2-0.2,0.4-0.3,0.5l0.5,0.6c-0.2,0.4-0.4,0.7-0.6,1.1c0.6,0.6,1,0.6,1.2,0.6
			c0-0.1,0.1-0.3,0.1-0.4c0.1-0.2,0.2-0.4,0.2-0.6c0.2-0.6,0-1.4,0-2.1C12,19.7,11.5,19.6,11.3,20.1z"/>
		<path class="st4" d="M10.9,22.3c0.3,0.5,0.9,1,1.2,0.8c0,0,0,0,0,0c0-0.1,0-0.2,0.1-0.2C11.9,23,11.5,22.9,10.9,22.3z"/>
		<path class="st4" d="M17.9,14.7c0.3-0.2,0.5-0.4,0.5-1.4C17.4,13,16.2,13.4,17.9,14.7z"/>
	</g>
	<g>
		<path class="st8" d="M10.9,9.5c0.1-0.1,0.1-0.3,0.2-0.4c0.1-0.1,0.2-0.2,0.3-0.3c0.1,0,0.3-0.3,0.4-0.3c0.1,0,0.1,0.6,0.3,0.6
			c0.1,0,0.2,0.1,0.3,0.1c0.1,0.1,0.1,0.1,0.2,0.2c0.1,0.1,0.8-0.4,0.9-0.3c0.1,0.1-0.6,0.6-0.6,0.8c0,0.1,0.9-0.1,0.9,0.1
			c0,0.1-0.4,0.3-0.4,0.5c0,0.1-0.3,0.2-0.4,0.3c0,0.1,0.3,0.4,0.3,0.5c-0.1,0.1-0.2,0.2-0.3,0.3C13,11.7,13,12,12.9,12.1
			c-0.1,0.1-0.3,0.2-0.4,0.3c-0.1,0.1-0.3,0.1-0.5,0.1c-0.1,0-0.3-0.7-0.4-0.7c-0.1,0-0.4,0.9-0.6,0.9c-0.1,0-0.2-0.3-0.3-0.4
			c-0.1-0.1,0.1-0.5,0-0.6c-0.1-0.1-0.6,0.2-0.6,0.1c-0.1-0.1,0-0.3,0-0.4c0-0.1,0.4-0.4,0.4-0.5c0-0.1-0.3-0.1-0.3-0.3
			c0-0.1,0-0.2,0-0.3c0-0.1,0.3-0.1,0.3-0.2c0.1-0.1,0.2-0.1,0.3-0.2C10.9,9.7,10.8,9.6,10.9,9.5z"/>
		<polygon class="st9" points="11.3,11.6 10.6,13.3 10.5,13.2 11.2,11.6 		"/>
		<path class="st9" d="M10.1,13.4c0.2-0.2,0.4-0.2,0.6-0.1c0.1,0.1,0.1,0.4-0.1,0.6c-0.2,0.2-0.4,0.2-0.6,0.1
			C9.8,13.9,9.9,13.6,10.1,13.4z"/>
		<path class="st9" d="M12.5,8.2C12.7,8,13,7.9,13.1,8c0.1,0.1,0.1,0.4-0.1,0.6c-0.2,0.2-0.4,0.2-0.6,0.1
			C12.3,8.6,12.4,8.4,12.5,8.2z"/>
		<path class="st9" d="M10.7,8c0-0.3,0.2-0.5,0.3-0.5c0.2,0,0.3,0.2,0.3,0.5c0,0.3-0.2,0.5-0.3,0.5C10.8,8.5,10.6,8.2,10.7,8z"/>
		<path class="st9" d="M12.2,13.5c0-0.3,0.2-0.5,0.3-0.5c0.2,0,0.3,0.2,0.3,0.5c0,0.3-0.2,0.5-0.3,0.5C12.3,14,12.2,13.8,12.2,13.5z
			"/>
		<polygon class="st9" points="10.7,10.5 10.8,10.7 8.5,11 8.5,10.9 		"/>
		<polygon class="st9" points="10.7,11 10.7,11.1 9.3,11.9 9.2,11.8 		"/>
		<polygon class="st9" points="11.7,11.6 11.3,13.8 11.2,13.7 11.6,11.6 		"/>
		<path class="st9" d="M12.2,11.8c0,0.1,0.2,0.9,0.4,1.4l-0.1,0c0-0.1-0.4-1.2-0.4-1.4L12.2,11.8z"/>
		<path class="st9" d="M14.1,11.9l0,0.1c-0.6,0.2-2.1-0.4-2.1-0.4l0-0.1C12,11.5,13.5,12,14.1,11.9z"/>
		<polygon class="st9" points="14.1,12.5 14,12.6 12.7,10.9 12.8,10.8 		"/>
		<polygon class="st9" points="13.9,9.1 14,9.2 12.4,10.2 12.3,10.1 		"/>
		<polygon class="st9" points="10.6,10.2 10.6,10.4 8.7,10.1 8.7,10 		"/>
		<rect x="9.8" y="8.7" transform="matrix(0.3694 -0.9293 0.9293 0.3694 -2.9019 15.3547)" class="st9" width="0.1" height="2.3"/>
		<polygon class="st9" points="11,8.5 11.2,10.3 11.1,10.3 10.9,8.5 		"/>
		<polygon class="st9" points="12.6,8.8 11.6,10.1 11.5,10 12.5,8.7 		"/>
		<path class="st9" d="M11.1,13.7c0.1-0.1,0.3-0.1,0.3,0c0.1,0.1,0.1,0.3,0,0.3c-0.1,0.1-0.3,0.1-0.3,0C11,13.9,11,13.7,11.1,13.7z"
			/>
		<path class="st9" d="M14,12.5c0.1-0.1,0.3-0.1,0.3,0c0.1,0.1,0.1,0.3,0,0.3c-0.1,0.1-0.3,0.1-0.3,0C13.9,12.7,13.9,12.6,14,12.5z"
			/>
		<path class="st9" d="M14,8.9c0.1-0.1,0.3-0.1,0.3,0c0.1,0.1,0.1,0.3,0,0.3c-0.1,0.1-0.3,0.1-0.3,0C13.8,9.1,13.8,9,14,8.9z"/>
		<path class="st9" d="M14.1,11.6c0.1-0.1,0.3-0.1,0.3,0c0.1,0.1,0.1,0.3,0,0.3c-0.1,0.1-0.3,0.1-0.3,0C14,11.9,14,11.7,14.1,11.6z"
			/>
		<path class="st9" d="M9,11.7c0.1-0.1,0.3-0.1,0.3,0c0.1,0.1,0.1,0.3,0,0.3C9.2,12.2,9,12.2,9,12C8.9,11.9,8.9,11.8,9,11.7z"/>
		<path class="st9" d="M8,10.7c0.2,0,0.4,0,0.4,0.2c0,0.1-0.1,0.3-0.4,0.3c-0.2,0-0.4,0-0.4-0.2C7.6,10.9,7.8,10.8,8,10.7z"/>
		<path class="st9" d="M8.6,9.8C8.8,9.8,9,9.9,9,10c0,0.1-0.2,0.2-0.4,0.2c-0.2,0-0.4-0.1-0.4-0.2C8.2,9.9,8.4,9.8,8.6,9.8z"/>
	</g>
</g>
</svg>
