<svg version="1.1" id="レイヤー_1" xmlns="http://www.w3.org/2000/svg" x="0" y="0" viewBox="0 0 24 24.1" xml:space="preserve"><style>.st3{fill:#b961a2}.st4{fill:#d4a6cb}.st5{fill:#cb91be}.st6{fill:#c279b0}.st7{fill:#b04996}.st9{fill:#fff}</style><g opacity=".7"><path d="M13.9 16.4c-.1.1-.2.3-.3.4.2-.1.3-.2.3-.4zm-.1-1c0-.2 0-.4.2-.5-.2.2-.4.3-.2.5zm0-1l.2.2c0-.1 0-.2.1-.3-.1 0-.2 0-.3.1zm-2.5 3.5c-.2.1-.4.2-.5.4 0 .1-.1.2-.1.3.1-.2.3-.5.6-.7z" fill="none"/><path d="M16.3 22.1s.1 0 .1.1c.3.1.6-.3.8-.5.3-.2.4-.5.5-.8-.4.1-.7.1-1 .1 0 .5-.4.6-.4 1.1zm4.4-7.9c-.2 0-.4.1-.6.1v.1h.3c.2 0 .4.1.7.2.3.1.7.2 1 .1.1 0 .2-.1.4-.1.4-.1.9-.1 1.3-.3.2-.1.4-.3.3-.6 0-.3-.1-.5-.3-.7-.2-.2-.4-.3-.6-.4-.1 0-.2 0-.2-.1-.8.3-1.5.7-2.3 1.1-.1.2-.1.3 0 .6zm-1.1 2.4c-.4.2-.8.4-1.1.6.2.1.4.3.6.4.5.3 1 .3 1.4-.1.3-.3.7-.5.8-1 .1-.4 0-.5-.3-.8-.4-.4-.7-.8-1.1-1.2-.1.2-.3.4-.4.6.2.5.7 1.3.1 1.5z" fill="#dfbfda"/><path class="st3" d="M13.9 2.8l.3-1.2v-.4c0-.3 0-.8-.1-1-.2-.3-.7-.1-.9-.1h-.1c-.1 0-.1.1-.2.1-1 .5.2 1.7 1 2.6z"/><path class="st3" d="M12.4 4c.1.3.2.5.3.8-.2.2-.7.3 0 1.3-.2.1-.3.2-.5.4.2.4.4.8.6 1.1-.6.1-1.1.5-1.2 1.3-.2.1-.4.4-.6.6-1.1-.4-.7.7-.9 1.6.5-.4.9-.7 1.4-1.1.2-.3.3-.5.5-.7.2-.1.4-.1.6-.2.2-.3.4-.6.6-.8 0-.1 0-.2.1-.4.3-.1.6-.2.8-.3 0-.1 0-.2-.1-.3.4-.3.7-.5 1-.8-.1-.1-.2-.2-.3-.4.1-.3-.1-.7.9-.7.2-.2.5-.3.7-.5.2-.4.5-.9.8-1.3.1-.7.3-1.3 1-1.8v-.3c0-.3-.1-.5-.4-.5-.3-.1-.5-.1-.8 0-.2.1-.4.2-.6.4-.1.2-.3.3-.4.5.1.1-.1.3-.2.4-.5.5-.7 1.4-1 2.1l-.6.9c-.1.2-.3.5-.4.7l-.5.1c0-.1 0-.2.1-.3.1-.2.2-.4.2-.6.1-.2.1-.5.1-.8.1-.4.1-.7.2-1.1-.3-.1-.6-.3-.8-.3-.2.4-.4.7-.6 1z"/><path class="st4" d="M20.4 8.4c-.8.3-.7 1.1-1.6.6-.5.8-.3 2.4-.6 3.3.1.3.2.7.3 1 .4.2.8.3 1.1.4.1.2.3.4.5.6.2-.1.4-.1.6-.1 0-.2-.1-.4-.1-.6.8-.4 1.5-.8 2.3-1.1-.1 0-.3-.1-.4-.1l-.6-.3c-.6-.2-1.4-.1-2-.1.2-.2.4-.3.5-.5.2-.2.5-.4.7-.6.1 0 .1-.1.1-.1.2 0 .5 0 .7-.1.1 0 .3-.1.4-.2.2-.1.8-.2.9-.4.2-.3-.1-.7-.2-.9-.2-.5-.6-.9-1.2-1.2-.5-.3-1.1-.3-1.7-.3 0 .2 0 .2-.1.3l.4.4z"/><path class="st5" d="M17.3 3.7c-.3.4-.6.8-.8 1.3-.2.2-.5.4-.7.5.1.2.2.4.4.7-.3.1-.7.3-1 .4-.3.3-.7.5-1 .8 0 .1 0 .2.1.3.2.2.3.4.5.6.4 0 .8 0 1.2.1.3.5.5 1 .8 1.6-.6-.1-1.2-.2-1.7-.2l-.1.1c-.2.3-.4.6-.6.8.2.4.4.8.6 1.1-.4.7-.1 1.8-.7 2.5 0 .1 0 .2-.1.3.1.2.1.3-.1.4-.2.1-.2.3-.2.5l.3.3c0 .3-.1.5-.2.6 0 .2-.1.3-.3.4 0 .1.1.1.1.2.1.2.1.4.2.7.1.3.2.5.4.7.4.8.7 1.7 1.1 2.6l.7-.7c.8-.7.9-1.6 1.3-2.4-.1-.2-.3-.3-.4-.5-.1-.1-.1-.2-.2-.3-.2-.3-.5-.5-.7-.8-.3-.5-.6-.9-1-1.4.6.5 1.2 1 1.9 1.4.1.1.2.1.3.2.1.1.3.3.5.3.3.1.5.3.7.4.3-.2.7-.4 1.1-.6.6-.2.2-1.1 0-1.6.1-.2.3-.4.4-.6-.1-.1-.2-.2-.3-.2h.2c.1 0 .2.1.2.1v-.1c-.2-.2-.3-.4-.5-.6-.4-.2-.8-.3-1.1-.4 0 1-.3 1.2-.5 1.4-1.8-1.3-.5-1.7.5-1.4-.1-.3-.2-.7-.3-1 .4-.9.1-2.5.6-3.3.9.5.8-.2 1.6-.6-.3-.1-.4-.2-.5-.3l.2-.2c-.2 0-.5.1-.7.1-.2 0-.4.2-.6.2-.1 0-.2 0-.4.1-.3.1-.7.3-1 .4-.1 0-.3.1-.4.1v-.4c.3-.2.5-.4.8-.6.1-.1.2-.1.3-.2.2-.1.3-.2.5-.4.4-.4.8-.7 1.2-1.1.4-.4.6-.9.3-1.4-.2-.4-.3-.9-.7-1.1-.4-.2-.5-.2-.9 0s-.7.3-1.1.5c.2-.1.5-.4.5-.7v-.4c0-.3.2-.7.2-1-.5.5-.8 1.1-.9 1.8zm-6.7 14.9c-.1.1-.1.2-.2.3-.2.5-.2.3-.2.6v.3c0 .1-.1.2-.2.2v.3c.3 0 .5 0 .9.3.1-.2.2-.4.3-.5.2-.5.6-.4 1.1-.3v-.2c0-.4.1-.7.2-1.1 0-.4 0-.8.1-1.2-.5.2-1 .3-1.4.6-.2.2-.4.5-.6.7z"/><path class="st6" d="M7.2 20.4l-.7-.8s-.1 0-.2-.2c-.2-.2-.4-.4-.7-.5 0 .1-.1.2-.1.2-.2.4-.4.8-.7 1.1.2.2.4.4.5.6.3.1.6.2.8.3.2.3.4.6.6 1 .2 0 .3 0 .5-.1s.4-.3.6-.6c-.1-.2-.1-.4-.2-.5 0-.1-.2-.3-.4-.5zm3.7 3.3c-.1.1-.2.2-.3.4.1 0 .2.1.3.1.1 0 .2 0 .3-.1-.1-.2-.2-.3-.3-.4z"/><path class="st4" d="M15.3 21s0 .1.1.1l.3.3c.2.2.4.5.6.7.1-.5.5-.6.4-1.1.3 0 .7-.1 1-.1.1-.2.2-.5.2-.7.1-.8-.2-1.6-.6-2.3-.4.8-.5 1.7-1.3 2.4l-.7.7z"/><path class="st7" d="M7.1 18.3c-.2-.5-.3-1-.4-1.5 0 .1-.1.1-.1.2-.2.3-.2.7-.4 1v.1c.2.1.4.3.6.6.1-.2.2-.3.3-.4zM2.8 8.6l.1.1c.2.1.4.1.6.2.2.1.2.2.3.2.3.1.7.2 1 .4.3.1.5.3.8.4v.2c-.4-.1-1-.2-1.5-.2h-.3c-.2 0-.4-.1-.6 0h-1c.2.4-.3.7-.2 1.3l1.2-.6c.4.3.8.6 1.2 1-.1.7-.8.9-1.2 1.3H2c-.2.1-.3.2-.5.4-.3.1 0 .6 0 .9-.2.2-.5.4-.7.5-.1.1-.2.1-.2.2l-.1.1.1.1c.2-.1.5-.1.7 0h.6c.2 0 .4 0 .6.1.4 0 .8-.2 1.3-.4-.3.2-.5.4-.9.6-.4.3-.8.6-1.2 1-.2.2-.4.3-.5.5-.1.3-.5.8-.3 1.1.1.2.5.2.7.2.3 0 .4.1.7.1.5.1 1.2-.3 1.7-.4.1 0 .2-.1.3-.1.2-.1.5-.3.7-.4.5-.3 1-.6 1.4-1 0-.1-.1-.2-.1-.3.3-.3.7-.5 1-.8 0-.3.1-.5.1-.8-.2-.2-.3-.4-.5-.6.2-.3.3-.5.5-.7v-1.3c.3-.5.6-.9.9-1.4.5.3.9.6 1.3.9l.2-.2c.2-.9-.2-2.1.9-1.6.2-.2.4-.5.6-.7.1-.8.6-1.1 1.2-1.3-.2-.4-.4-.7-.6-1.1.2-.1.3-.2.5-.4-.7-1-.2-1 0-1.3-.1-.3-.2-.5-.3-.8.2-.3.3-.6.5-1 .2 0 .6.2.8.3 0-.2.1-.3.1-.5-.8-.9-2-2.2-1.1-2.6.1 0 .2-.1.2-.1-.5.1-1 .3-1.4.8-.6.6-.8 1.4-.9 2.2v.6c0 .1-.1.2-.1.4 0 .4.1.7.1 1.1-.1.6-.1 1.1 0 1.7-.2-.8-.4-1.5-.7-2.3 0-.1-.1-.2-.1-.3 0-.2-.1-.4-.2-.6-.3-.5-.4-1-.6-1.5.2-.5-.2-.8-.7-.7-.5 0-1 0-1.3.3-.3.3-.3.4-.3.8.1.5.1 1 .2 1.6-.1-.1-.1-.2 0-.3-.1-.1-.2-.1-.3-.2-.2-.1-.3-.4-.4-.5-.2-.3-.4-.6-.7-.8-.1-.1-.2-.1-.3-.1-.4.1-1.3-.4-1.8.4-.1-.1-.1-.2-.2-.2v.1c0 .2 0 .4.1.7.1.2.2.4.3.5.2.2.2.4.3.6.4.6 1.2 1 1.7 1.6.2.2.4.5.7.8.6-.6 1.5-1.1 2.3-1.5.3.5.7.9 1.1 1.4-.2.2-.5.4-.7.5-.4-.1-.7-.3-1.1-.4C6 7.2 6.7 9.2 5 9.1l-.3-.3c.3-.5.6-.9.9-1.4.1-.2.1-.3.2-.4-.1-.1-.3-.2-.5-.3-.5-.3-.9-.6-1.3-.9-.4 1-.6 1.9-1 2.6 0 .1-.1.1-.2.2zm3.7 11.1c.1 0 .1-.3-.1-.5s-.4-.4-.6-.7c-.1.2-.1.3-.2.5.2.2.5.4.7.5l.2.2z"/><path class="st7" d="M3.7 5.5c-.2-.2-.5-.4-.8-.6-.1-.1-.3-.1-.4-.1 0 0-.1 0-.2-.1 0 .1.1.2.1.3.4.2.8.6 1.3.5z"/><path class="st6" d="M15.8 5.6c-1 0-.8.4-.9.7.1.1.2.2.3.4.3-.1.7-.3 1-.4-.1-.3-.3-.6-.4-.7zm-4.9 16.7c.2-.4.4-.7.6-1.1l-.5-.5h-.9c0 .2-.1.3-.1.5-.1.2-.1.4-.1.7.1.1.1.2.2.3.3-.1.6 0 .8.1zm2.9-6.9c-.2-.3 0-.4.2-.5 0-.1 0-.3.1-.4 0-.1-.1-.1-.2-.2.1-.1.2-.1.2-.2.1-.9.3-1.7.6-2.4-.2-.4-.3-.8-.5-1.2.2-.2.4-.5.6-.8l.1-.1c.6.1 1.2.2 1.7.2-.3-.5-.5-1-.8-1.6-.4 0-.8 0-1.2-.1-.1-.2-.3-.4-.5-.6-.1.3-.4.4-.7.5 0 .2-.1.2-.1.4-.2.2-.4.5-.6.8-.2 0-.4.1-.6.2-.2.2-.4.5-.5.7-.5.4-.9.7-1.4 1.1-.1.1-.2.1-.2.2l.2.2c-.5.6-.6 1.3-1 2l-.9.3c-.2.2-.5.3-.7.5 0 .2-.1.5-.1.8.3.4.6.8 1 1.1.4 0 .8-.1 1.2-.2.2 1.1 0 1.2-.3 1.2-.6.5-.6 1.4-.2 3.2.4-.4.8-.9 1-1.4.1-.4.3-.9.4-1.3.2-.3.3-.6.4-1 .2-.4.3-.9.4-1.3h.2c-.1.4-.1.8-.2 1.2-.2.6-.3 1.1-.6 1.7.2-.2.3-.3.5-.4.4-.4.9-.7 1.5-.9.1-.5.1-1.1.1-1.6l.5.1v.3c0 .1-.1.2-.1.3 0 .1.2.4.3.4.1.1.1.2.1.2.1-.1.2-.2.3-.4-.1-.3-.2-.7-.2-1zm-3.7 4.9c.1.1.1.1 0 0v.3h.9c-.3-.3-.6-.2-.9-.3z"/><path class="st6" d="M14 14.5c0 .1 0 .3-.1.4.2-.1.2-.2.1-.4zm.1-.3c.6-.6.3-1.8.7-2.5-.2-.4-.4-.8-.6-1.1.2.4.3.8.5 1.2-.3.7-.5 1.5-.6 2.4zm-.2 2.2c.1-.2.2-.4.2-.6-.2-.1-.3-.3-.3-.3 0 .2.1.6.1.9zm-1.2.9v-.4c-.6.2-1 .5-1.5.9.5-.1 1-.3 1.5-.5z"/><path class="st3" d="M1.3 7c.3.7.9 1.2 1.6 1.6 0-.1.1-.1.2-.2.4-.8.5-1.6 1-2.6-.2-.1-.3-.2-.4-.3-.5.1-.9-.3-1.2-.5 0-.1 0-.2-.1-.3-.3-.1-.6-.2-.8-.2-.3.1-.4.6-.5.8-.1.6-.1 1.1.2 1.7zm.2 7c0-.3-.2-.8 0-.9.2-.1.3-.2.5-.4h1.2c.4-.4 1-.5 1.2-1.3-.4-.3-.8-.6-1.2-1L2 11c-.1-.6.3-.9.2-1.3h-.6c-.6 0-1 .3-1.2.8-.1.4-.4.8-.2 1.3.1.4.3.5.6.6.3.1.5.2.8.2-.1.1-.2.2-.3.2-.3.2-.7.4-1 .6.2.3.4.7.6 1 .2 0 .4-.2.6-.4z"/><path class="st6" d="M.9 14.5c-.2-.3-.4-.6-.6-1l-.1.1c-.2.2-.2.5-.1.7.1.2.2.4.4.5l.1-.1c.1 0 .2-.1.3-.2z"/><path class="st5" d="M10.9 22.3c-.3-.1-.5-.2-.8-.3l-.1.1c0 .1.1.2.1.3.1.3.2.7.2 1 .2 0 .4.1.6.1.1.1.2.3.3.4.2-.1.3-.2.5-.3.2-.2.3-.4.4-.6-.3.4-.9-.2-1.2-.7zm-.6 1.2c0 .1 0 .2.1.2.1.1.1.2.3.3.1-.1.2-.2.3-.4-.3 0-.5 0-.7-.1z"/><path class="st3" d="M4.9 2.3s0-.1 0 0c-.4-.2-.8-.5-1.2-.7-.2-.1-.5 0-.6.2-.2.2-.2.4-.2.7.1 0 .1.1.2.2.5-.8 1.4-.3 1.8-.4zm-.2 6.5l.3.3c1.7 0 1-2 2.6-2.3.4.1.7.3 1.1.4.2-.2.5-.3.7-.5-.4-.5-.8-.9-1.2-1.4-.7.5-1.6.9-2.2 1.5l.1.1-.1.3-.1-.1-.1-.1c-.1.1-.1.2-.2.4-.3.5-.6.9-.9 1.4zm4.5 4.8c.4-.7.5-1.4 1-2-.1-.1-.1-.2-.2-.2-.5-.3-.9-.6-1.3-.9-.3.5-.6.9-.9 1.4v1.3c-.2.2-.4.5-.5.7.1.2.3.4.5.6.2-.2.5-.4.7-.5.1-.3.3-.3.7-.4zm0 3.7l.3-1.2c-.4.1-.8.2-1.2.2-.3-.4-.6-.8-1-1.1-.3.3-.7.5-1 .8 0 .1.1.2.1.3.4-.3.7-.6 1-.9l.1.1-.2.3c-.2.2-.3.4-.5.5l-.4.4c.1.5.3 1 .4 1.5l-.3.3-.6-.6c-.1.2-.2.3-.2.5.2.2.4.4.6.7.1.3.1.5.1.5l.7.8c.2.2.4.3.6.5.3-.1.6-.2 1-.3.1-.1.2-.1.2-.2-.2-1.8-.3-2.6.3-3.1z"/><path class="st3" d="M6.5 19.7l-.2-.2c.2.1.2.2.2.2zm3.1-3.6l-.3 1.2c.3 0 .5-.1.3-1.2zm-4.1 4.7c-.2-.2-.4-.4-.5-.6-.1.1-.2.3-.3.4-.3.4-.5.7-.4 1.2.1.3.4.6.7.6.3 0 .7-.1 1-.2.3-.1.5-.1.8-.2H7c-.2-.3-.4-.6-.6-1-.4.1-.7-.1-.9-.2z"/><path class="st7" d="M10.1 22c-.1-.1-.1-.2-.2-.3v.4c.1 0 .1 0 .2-.1zM8 21.5c.1-.2.3-.4.4-.5l.3-.3c-.3.1-.6.2-1 .3.2.1.3.3.3.5z"/><path class="st4" d="M11.3 20.1c-.1.2-.2.4-.3.5l.5.6c-.2.4-.4.7-.6 1.1.6.6 1 .6 1.2.6 0-.1.1-.3.1-.4.1-.2.2-.4.2-.6.2-.6 0-1.4 0-2.1-.4-.1-.9-.2-1.1.3z"/><path class="st4" d="M10.9 22.3c.3.5.9 1 1.2.8 0-.1 0-.2.1-.2-.3.1-.7 0-1.3-.6zm7-7.6c.3-.2.5-.4.5-1.4-1-.3-2.2.1-.5 1.4z"/><path d="M10.9 9.5c.1-.1.1-.3.2-.4l.3-.3c.1 0 .3-.3.4-.3.1 0 .1.6.3.6.1 0 .2.1.3.1l.2.2c.1.1.8-.4.9-.3.1.1-.6.6-.6.8 0 .1.9-.1.9.1 0 .1-.4.3-.4.5 0 .1-.3.2-.4.3 0 .1.3.4.3.5l-.3.3c0 .1 0 .4-.1.5-.1.1-.3.2-.4.3-.1.1-.3.1-.5.1-.1 0-.3-.7-.4-.7-.1 0-.4.9-.6.9-.1 0-.2-.3-.3-.4-.1-.1.1-.5 0-.6-.1-.1-.6.2-.6.1-.1-.1 0-.3 0-.4 0-.1.4-.4.4-.5 0-.1-.3-.1-.3-.3v-.3c0-.1.3-.1.3-.2.1-.1.2-.1.3-.2.1-.2 0-.3.1-.4z" fill="#c8cd23"/><path class="st9" d="M11.3 11.6l-.7 1.7-.1-.1.7-1.6z"/><path class="st9" d="M10.1 13.4c.2-.2.4-.2.6-.1.1.1.1.4-.1.6-.2.2-.4.2-.6.1-.2-.1-.1-.4.1-.6zm2.4-5.2c.2-.2.5-.3.6-.2.1.1.1.4-.1.6-.2.2-.4.2-.6.1-.1-.1 0-.3.1-.5zM10.7 8c0-.3.2-.5.3-.5.2 0 .3.2.3.5s-.2.5-.3.5c-.2 0-.4-.3-.3-.5zm1.5 5.5c0-.3.2-.5.3-.5.2 0 .3.2.3.5s-.2.5-.3.5c-.2 0-.3-.2-.3-.5zm-1.5-3l.1.2-2.3.3v-.1zm0 .5v.1l-1.4.8-.1-.1zm1 .6l-.4 2.2-.1-.1.4-2.1z"/><path class="st9" d="M12.2 11.8c0 .1.2.9.4 1.4h-.1c0-.1-.4-1.2-.4-1.4h.1zm1.9.1v.1c-.6.2-2.1-.4-2.1-.4v-.1s1.5.5 2.1.4z"/><path class="st9" d="M14.1 12.5l-.1.1-1.3-1.7.1-.1zm-.2-3.4l.1.1-1.6 1-.1-.1zm-3.3 1.1v.2l-1.9-.3V10z"/><path transform="rotate(-68.322 9.862 9.815)" class="st9" d="M9.8 8.7h.1V11h-.1z"/><path class="st9" d="M11 8.5l.2 1.8h-.1l-.2-1.8zm1.6.3l-1 1.3-.1-.1 1-1.3zm-1.5 4.9c.1-.1.3-.1.3 0 .1.1.1.3 0 .3-.1.1-.3.1-.3 0-.1-.1-.1-.3 0-.3zm2.9-1.2c.1-.1.3-.1.3 0 .1.1.1.3 0 .3-.1.1-.3.1-.3 0-.1-.1-.1-.2 0-.3zm0-3.6c.1-.1.3-.1.3 0 .1.1.1.3 0 .3-.1.1-.3.1-.3 0-.2-.1-.2-.2 0-.3zm.1 2.7c.1-.1.3-.1.3 0 .1.1.1.3 0 .3-.1.1-.3.1-.3 0-.1 0-.1-.2 0-.3zm-5.1.1c.1-.1.3-.1.3 0 .1.1.1.3 0 .3-.1.2-.3.2-.3 0-.1-.1-.1-.2 0-.3zm-1-1c.2 0 .4 0 .4.2 0 .1-.1.3-.4.3-.2 0-.4 0-.4-.2 0-.1.2-.2.4-.3zm.6-.9c.2 0 .4.1.4.2s-.2.2-.4.2-.4-.1-.4-.2.2-.2.4-.2z"/></g></svg>