<svg xmlns="http://www.w3.org/2000/svg" viewBox="0 0 512 512"><path d="M454.5 0H165.9c-13.6 0-32.7 7.9-42.4 17.5L50.2 90.8c-9.7 9.7-17.5 28.7-17.5 42.4v354c0 13.6 11.2 24.8 24.8 24.8h396.9c13.6 0 24.8-11.2 24.8-24.8V24.9C479.3 11.2 468.1 0 454.5 0zM317.3 399.2c0 2.1-1.7 3.8-3.8 3.8H133.3c-2.1 0-3.8-1.7-3.8-3.8v-16.7c0-2.1 1.7-3.8 3.8-3.8h180.2c2.1 0 3.8 1.7 3.8 3.8v16.7zm65.2-76.4c0 2.4-2 4.4-4.4 4.4H133.9c-2.4 0-4.4-2-4.4-4.4v-15.5c0-2.4 2-4.4 4.4-4.4h244.2c2.4 0 4.4 2 4.4 4.4v15.5zm0-75.7c0 2.4-2 4.4-4.4 4.4H133.9c-2.4 0-4.4-2-4.4-4.4v-15.5c0-2.4 2-4.4 4.4-4.4h244.2c2.4 0 4.4 2 4.4 4.4v15.5zm0-75.8c0 2.4-2 4.4-4.4 4.4H133.9c-2.4 0-4.4-2-4.4-4.4v-15.5c0-2.4 2-4.4 4.4-4.4h244.2c2.4 0 4.4 2 4.4 4.4v15.5z" fill="#8c8060"/></svg>