<?xml version="1.0" encoding="utf-8"?>
<!-- Generator: Adobe Illustrator 23.0.3, SVG Export Plug-In . SVG Version: 6.00 Build 0)  -->
<svg version="1.1" id="レイヤー_1" xmlns="http://www.w3.org/2000/svg" xmlns:xlink="http://www.w3.org/1999/xlink" x="0px"
	 y="0px" viewBox="0 0 20.2 20.2" style="enable-background:new 0 0 20.2 20.2;" xml:space="preserve">
<style type="text/css">
	.st0{fill:#8C8060;}
	.st1{fill:#EBEBEB;}
	.st2{fill:#FFFFFF;}
</style>
<path class="st0" d="M10.2,19.7l-5.5-1.5L3.5,4.4h13.4l-1.2,13.7L10.2,19.7L10.2,19.7z"/>
<path class="st0" d="M14.7,17.3l1-11.7h-5.5v12.9L14.7,17.3L14.7,17.3z"/>
<path class="st1" d="M6.3,10.6l0.2,1.7h3.8v-1.7H6.3L6.3,10.6z"/>
<path class="st1" d="M6,7.2l0.2,1.7h4.1V7.2H6L6,7.2z"/>
<path class="st1" d="M10.2,15L10.2,15l-1.9-0.5l-0.1-1.3H6.5l0.2,2.6l3.4,1l0,0L10.2,15L10.2,15z"/>
<path class="st0" d="M6.7,0.7h2v0.9H7.5v0.9h1.2v0.9h-2V0.7L6.7,0.7z"/>
<path class="st0" d="M9.1,0.7h2v0.7H10v0.1h1.2v1.7h-2V2.5h1.2V2.4H9.1V0.7L9.1,0.7z"/>
<path class="st0" d="M11.5,0.7h2v0.7h-1.2v0.1h1.2v1.7h-2V2.5h1.2V2.4h-1.2V0.7L11.5,0.7z"/>
<path class="st2" d="M14.1,10.6l0.3-3.4h-4.2v1.7h2.4l-0.2,1.7h-2.2v1.7h2.1l-0.2,2.2L10.2,15v1.7l3.4-1v-0.3L14,11L14.1,10.6
	L14.1,10.6z"/>
</svg>
