<?xml version="1.0" encoding="utf-8"?>
<!-- Generator: Adobe Illustrator 23.0.3, SVG Export Plug-In . SVG Version: 6.00 Build 0)  -->
<svg version="1.1" id="レイヤー_1" xmlns="http://www.w3.org/2000/svg" xmlns:xlink="http://www.w3.org/1999/xlink" x="0px"
	 y="0px" viewBox="0 0 20.2 20.2" style="enable-background:new 0 0 20.2 20.2;" xml:space="preserve">
<style type="text/css">
	.st0{fill:#8C8060;}
	.st1{fill:#EBEBEB;}
	.st2{fill:#FFFFFF;}
</style>
<title>HTML5 Logo</title>
<polygon class="st0" points="4.7,17.8 3.6,4.5 16.6,4.5 15.4,17.8 10.1,19.3 "/>
<polygon class="st0" points="10.1,18.2 14.4,17 15.4,5.6 10.1,5.6 "/>
<polygon class="st1" points="10.1,10.6 7.9,10.6 7.8,8.9 10.1,8.9 10.1,7.3 10.1,7.3 6,7.3 6,7.7 6.4,12.2 10.1,12.2 "/>
<polygon class="st1" points="10.1,14.8 10.1,14.8 8.3,14.3 8.1,13 7.3,13 6.5,13 6.7,15.6 10.1,16.5 10.1,16.5 "/>
<path class="st0" d="M4.8,0.9h0.8v0.8h0.8V0.9h0.8v2.5H6.4V2.6H5.6v0.8H4.8V0.9L4.8,0.9z"/>
<path class="st0" d="M8.3,1.8H7.5V0.9h2.3v0.8H9.1v1.7H8.3V1.8L8.3,1.8z"/>
<path class="st0" d="M10.2,0.9h0.9l0.5,0.9l0.5-0.9H13v2.5h-0.8V2.2l-0.6,0.9l0,0L11,2.2v1.2h-0.8V0.9z"/>
<path class="st0" d="M13.4,0.9h0.8v1.7h1.2v0.8h-2V0.9z"/>
<polygon class="st2" points="10.1,10.6 10.1,12.2 12.1,12.2 11.9,14.3 10.1,14.8 10.1,16.5 13.4,15.6 13.4,15.3 13.8,11 13.9,10.6 
	13.4,10.6 "/>
<polygon class="st2" points="10.1,7.3 10.1,8.3 10.1,8.9 10.1,8.9 14,8.9 14,8.9 14,8.9 14,8.5 14.1,7.7 14.2,7.3 "/>
</svg>
