<svg xmlns="http://www.w3.org/2000/svg" viewBox="0 0 20.2 20.2"><path d="M17.2 11.2c-.7 0-1.3.2-1.8.4-.2-.4-.4-.7-.4-.9 0-.3-.1-.4 0-.8 0-.3.2-.8.2-.8s0-.2-.4-.2-.8.1-.8.2-.1.3-.2.6c0 .3-.8 1.6-1.2 2.3-.1-.3-.2-.5-.3-.7 0-.3-.1-.4 0-.8l.2-.8s0-.2-.4-.2-.7.1-.8.2c0 .1-.1.3-.2.6-.1.2-1 2.4-1.3 2.9-.1.3-.2.5-.3.7v.1c-.1.1-.1.2-.1.2s-.1-.3 0-.6c.1-.7.5-1.9.5-1.9s.1-.2-.2-.3-.4.1-.4.1v.1s.3-1.3-.6-1.3c-.6 0-1.3.6-1.7 1.2-.2.1-.8.4-1.3.7l-.6.3C4 11.3 2 10.5 2.1 9c0-.6.2-2.1 3.9-3.9 3-1.5 5.4-1.1 5.8-.2.6 1.3-1.3 3.7-4.4 4.1-1.5 0-2.1-.5-2.2-.6-.2-.2-.2-.2-.3-.2-.1.1 0 .2 0 .3.1.3.5.7 1.1.9.6.2 2 .3 3.7-.4 1.9-.7 3.3-2.7 2.9-4.4s-3.3-2.3-6-1.3C5 3.8 3.3 4.7 2 5.9.5 7.3.3 8.5.4 9c.3 1.8 2.8 3 3.8 3.8l-.1.1c-.5.2-2.4 1.2-2.9 2.3-.5 1.2.1 2 .5 2.1 1.3.4 2.6-.2 3.3-1.3s.6-2.4.3-3c.1-.1.3-.2.4-.2.3-.1.5-.3.7-.4-.1.3-.2.7-.3 1.3-.1.7.2 1.5.6 1.9.2.1.3.2.5.2.4 0 .6-.3.8-.8.3-.5.5-1.1.5-1.1s-.3 1.5.5 1.5c.3 0 .6-.4.7-.6v-.1c.1-.2.4-.7.8-1.4.5-1 1-2.2 1-2.2s0 .3.2.8c.1.3.3.6.4.9-.1.2-.2.2-.2.2-.1.1-.2.3-.3.4-.4.5-.9 1-.9 1.1-.1.2-.1.3.1.4.1.1.3.1.5.1.3 0 .6-.1.7-.2l.6-.3c.4-.3.6-.7.6-1.2 0-.3-.1-.6-.2-.9l.1-.1c.6-.9 1.1-1.8 1.1-1.8s0 .3.2.8c.1.2.2.5.3.8-.6.5-.9 1-1 1.3-.2.6 0 .9.3 1 .1 0 .4 0 .5-.1.2-.1.4-.2.7-.3.4-.3.7-.7.7-1.2 0-.2-.1-.5-.2-.7.5-.2 1.1-.3 1.9-.2 1.7.2 2 1.3 2 1.7-.1.4-.4.7-.5.8s-.2.1-.1.2c0 .1.1.1.2.1s.9-.4.9-1.2c-.2-1.1-1.2-2.3-2.9-2.3zM4.1 15.6c-.6.6-1.3.8-1.7.6-.4-.2-.2-1.1.5-1.8.4-.4 1-.8 1.3-1 .1 0 .2-.1.3-.2 0 0 .1 0 .1-.1.3 1.1.1 1.9-.5 2.5zm4.1-2.8c-.2.5-.6 1.7-.9 1.6-.2-.1-.3-1 0-1.9.2-.5.5-1 .7-1.2.3-.3.6-.4.7-.3.1.2-.4 1.5-.5 1.8zm3.4 1.7c-.1 0-.2.1-.2 0v-.1s.4-.5.6-.7c.1-.1.2-.3.3-.4 0 .6-.5 1-.7 1.2zm2.6-.6c-.1 0 0-.2.2-.6.1-.2.3-.5.6-.7 0 .1.1.2.1.3-.1.6-.6.9-.9 1z" fill="#8c8060"/></svg>