<?xml version="1.0" encoding="utf-8"?>
<!-- Generator: Adobe Illustrator 23.0.3, SVG Export Plug-In . SVG Version: 6.00 Build 0)  -->
<svg version="1.1" id="レイヤー_1" xmlns="http://www.w3.org/2000/svg" xmlns:xlink="http://www.w3.org/1999/xlink" x="0px"
	 y="0px" viewBox="0 0 20.2 20.2" style="enable-background:new 0 0 20.2 20.2;" xml:space="preserve">
<style type="text/css">
	.st0{fill:#8C8060;}
	.st1{fill:#FFFFFF;}
</style>
<ellipse class="st0" cx="10.1" cy="10.1" rx="9.8" ry="5.1"/>
<ellipse class="st0" cx="10.1" cy="10.1" rx="9.4" ry="4.7"/>
<g>
	<path class="st1" d="M12,11.7l0.5-2.4c0.1-0.5,0-0.9-0.3-1.2c-0.3-0.2-0.7-0.4-1.4-0.4H10l0.2-1.2V6.4l-0.1-0.1H9
		c-0.1,0-0.1,0.1-0.2,0.1L8.3,9c0-0.3-0.2-0.5-0.3-0.7C7.7,7.9,7.2,7.7,6.5,7.7H4.3c-0.1,0-0.1,0.1-0.2,0.1l-1,5.2v0.1l0.1,0.1h1.1
		c0.1,0,0.1-0.1,0.2-0.1l0.2-1.2h0.8c0.4,0,0.8,0,1.1-0.1c0.3-0.1,0.6-0.3,0.8-0.5C7.8,11,7.9,10.8,8,10.6l-0.2,1v0.1l0.1,0.1H9
		c0.1,0,0.1-0.1,0.2-0.1l0.5-2.8h0.8c0.4,0,0.5,0,0.5,0.1c0,0,0.1,0.1,0,0.4l-0.4,2.3v0.1l0.1,0.1h1.1C11.9,11.8,12,11.7,12,11.7z
		 M6.9,9.7c-0.1,0.4-0.2,0.6-0.4,0.8c-0.2,0.1-0.5,0.2-0.9,0.2H5.1l0.4-1.8h0.6c0.5,0,0.7,0.1,0.7,0.2C6.9,9.1,6.9,9.4,6.9,9.7z"/>
	<path class="st1" d="M16.8,8.3c-0.3-0.4-0.8-0.6-1.5-0.6h-2.2c-0.1,0-0.1,0.1-0.2,0.1l-1,5.1V13l0.1,0.1h1.1c0.1,0,0.1-0.1,0.2-0.1
		l0.2-1.2h0.8c0.4,0,0.8,0,1.1-0.1s0.6-0.3,0.8-0.5s0.4-0.4,0.5-0.6c0.1-0.2,0.2-0.5,0.3-0.7C17.2,9.2,17.1,8.6,16.8,8.3z M15.6,9.7
		c-0.1,0.4-0.2,0.6-0.4,0.8c-0.2,0.1-0.5,0.2-0.9,0.2h-0.5l0.4-1.8h0.6c0.5,0,0.7,0.1,0.7,0.2C15.7,9.1,15.7,9.4,15.6,9.7z"/>
</g>
<g>
	<path class="st0" d="M6.1,8.7c0.4,0,0.7,0.1,0.9,0.2c0.1,0.2,0.1,0.4,0,0.8s-0.2,0.7-0.4,0.9c-0.2,0.2-0.6,0.3-1,0.3H4.9l0.4-2.1
		L6.1,8.7L6.1,8.7z M3.3,13h1.1l0.3-1.4h1c0.4,0,0.8,0,1-0.1C7,11.4,7.3,11.3,7.5,11c0.2-0.2,0.3-0.4,0.5-0.6
		c0.1-0.2,0.2-0.4,0.2-0.7c0.1-0.6,0-1.1-0.3-1.4C7.6,8,7.1,7.9,6.5,7.9H4.3L3.3,13z"/>
	<path class="st0" d="M9,6.5h1.1L9.9,7.9h1c0.6,0,1.1,0.1,1.3,0.3s0.3,0.6,0.2,1.1l-0.5,2.4h-1.1l0.4-2.3c0.1-0.3,0-0.4-0.1-0.5
		s-0.3-0.1-0.6-0.1H9.7l-0.6,2.9H8L9,6.5z"/>
	<path class="st0" d="M14.8,8.7c0.4,0,0.7,0.1,0.9,0.2c0.1,0.2,0.2,0.4,0.1,0.8c-0.1,0.4-0.2,0.7-0.4,0.9s-0.6,0.3-1,0.3h-0.7
		l0.4-2.1L14.8,8.7L14.8,8.7z M12.1,13h1.1l0.3-1.4h1c0.4,0,0.8,0,1-0.1c0.3-0.1,0.5-0.2,0.7-0.4s0.3-0.4,0.5-0.6s0.2-0.4,0.2-0.7
		c0.1-0.6,0-1.1-0.3-1.4c-0.3-0.3-0.8-0.5-1.4-0.5H13L12.1,13z"/>
</g>
</svg>
