<svg version="1.1" id="レイヤー_1" xmlns="http://www.w3.org/2000/svg" x="0" y="0" viewBox="0 0 20.2 20.2" xml:space="preserve"><style>.st0{fill:#8c8060}.st1{fill:#ebebeb}.st2{fill:#fff}</style><path class="st0" d="M4.7 17.8L3.6 4.5h13l-1.2 13.3-5.3 1.5z"/><path class="st0" d="M10.1 18.2l4.3-1.2 1-11.4h-5.3z"/><path class="st1" d="M10.1 10.6H7.9l-.1-1.7h2.3V7.3H6v.4l.4 4.5h3.7zM10.1 14.8l-1.8-.5-.2-1.3H6.5l.2 2.6 3.4.9z"/><path class="st0" d="M4.8.9h.8v.8h.8V.9h.8v2.5h-.8v-.8h-.8v.8h-.8V.9zM8.3 1.8h-.8V.9h2.3v.8h-.7v1.7h-.8V1.8zM10.2.9h.9l.5.9.5-.9h.9v2.5h-.8V2.2l-.6.9-.6-.9v1.2h-.8V.9zM13.4.9h.8v1.7h1.2v.8h-2V.9z"/><path class="st2" d="M10.1 10.6v1.6h2l-.2 2.1-1.8.5v1.7l3.3-.9v-.3l.4-4.3.1-.4h-.5zM10.1 7.3v1.6H14v-.4l.1-.8.1-.4z"/></svg>