<svg xmlns="http://www.w3.org/2000/svg" viewBox="0 0 20.2 20.2"><g fill="#8b7f5f"><path d="M1.7 1.9h16.9v16.5H1.7V1.9zM.9 19.1h18.5v-18H.9v18z"/><path d="M5.4 5.3c0-.1.1-.1.2-.1h2c2.1 0 3 1.2 3 2.7 0 2-1.4 2.8-3.2 2.8h-.6v3c0 .1 0 .1-.1.1H5.4c-.1 0-.1 0-.1-.1V5.3zm1.3 4.1h.6c.9 0 1.8-.3 1.8-1.5 0-1-.6-1.5-1.6-1.5h-.7v3zm6.6-.9c-.6 0-.8.3-.8.6s.1.5 1 .9c1.2.6 1.6 1.1 1.6 2 0 1.2-.9 1.9-2.2 1.9-.7 0-1.2-.1-1.6-.3-.1 0-.1-.1-.1-.1v-1.1c0-.1 0-.1.1-.1.5.3 1 .5 1.6.5.6 0 .9-.3.9-.6s-.2-.5-1-.9c-1.1-.5-1.5-1.1-1.5-1.9 0-1 .8-1.8 2.1-1.8.7 0 1.1.1 1.4.2.1 0 .1.1.1.2v1.1c0 .1 0 .1-.1.1-.4-.6-1-.7-1.5-.7" fill-rule="evenodd" clip-rule="evenodd"/></g><path fill="none" stroke="#000" stroke-width=".25" stroke-miterlimit="10" d="M.1.1h20v20H.1z"/></svg>