<svg xmlns="http://www.w3.org/2000/svg" viewBox="0 0 20.5 20.5"><path d="M1.8 1.9h16.8v16.4H1.8V1.9zM.9 19.1h18.4V1.2H.9v17.9z" fill="#8b7f5f"/><path d="M7.3 11.3l-.6 2.3c0 .1 0 .1-.1.1H5.4c-.1 0-.1 0-.1-.1L7.5 6c0-.1.1-.3.1-.6 0-.1 0-.1.1-.1h1.6c.1 0 .1 0 .1.1l2.4 8.3c0 .1 0 .1-.1.1h-1.3c-.1 0-.1 0-.1-.1l-.6-2.3-2.4-.1zm2.1-1.2c-.2-.8-.6-2.7-.9-3.6-.2.9-.6 2.4-.9 3.6h1.8zm3.5-4.3c0-.5.3-.8.8-.8s.8.3.8.8-.3.8-.8.8-.8-.3-.8-.8m0 1.8s.1 0 0 0l1.3-.1c.1 0 .1 0 .1.1v6c0 .1 0 .1-.1.1H13c-.1 0-.1 0-.1-.1.1 0 .1-6 0-6z" fill-rule="evenodd" clip-rule="evenodd" fill="#8b7f5f"/></svg>