<?xml version="1.0" encoding="utf-8"?>
<!-- Generator: Adobe Illustrator 23.0.3, SVG Export Plug-In . SVG Version: 6.00 Build 0)  -->
<svg version="1.1" id="レイヤー_1" xmlns="http://www.w3.org/2000/svg" xmlns:xlink="http://www.w3.org/1999/xlink" x="0px"
	 y="0px" viewBox="0 0 20.5 20.5" style="enable-background:new 0 0 20.5 20.5;" xml:space="preserve">
<style type="text/css">
	.st0{fill:#8C8060;}
</style>
<path class="st0" d="M11.3,10.3c0-0.7-0.5-1.2-1.1-1.2s-1.1,0.5-1.1,1.2c0,0.7,0.5,1.2,1.1,1.2S11.3,11,11.3,10.3z M4.1,17.7
	c0.2,0.3,0.4,0.5,0.6,0.6c0.5,0.3,1.1,0.3,1.8,0.1c0.7-0.2,1.4-0.6,2.2-1.2c0.2-0.1,0.2-0.4,0.1-0.6c-0.1-0.2-0.4-0.2-0.6-0.1
	c-0.7,0.6-1.4,0.9-1.9,1.1s-0.9,0.1-1.1,0c-0.3-0.1-0.4-0.4-0.5-0.9c-0.1-0.5-0.1-1.2,0.1-2.1c0.3-1.2,0.8-2.5,1.5-3.9
	c1.1,2.3,2.5,4.8,4.2,6.5c0.7,0.7,1.4,1.2,2,1.5c0.7,0.3,1.3,0.5,1.9,0.3c0.6-0.2,1-0.7,1.2-1.3c0.2-0.6,0.3-1.4,0.2-2.3
	c-0.2-1.8-0.8-4-1.9-6.4c-0.1-0.2-0.4-0.3-0.6-0.2c-0.2,0.1-0.3,0.4-0.2,0.6c1.1,2.3,1.7,4.4,1.9,6.1c0.1,0.8,0,1.5-0.1,2
	c-0.2,0.5-0.4,0.7-0.7,0.8c-0.3,0.1-0.7,0-1.3-0.2c-0.5-0.3-1.1-0.7-1.8-1.4c-2-2.3-3.3-4.4-4.3-6.9c0.5-0.9,1-1.7,1.6-2.5
	c3.2-0.1,6.7,0.5,8.8,1.5c0.7,0.3,1.1,0.7,1.4,1c0.3,0.3,0.4,0.6,0.4,0.9c0,0.3-0.1,0.5-0.5,0.8c-0.3,0.3-0.8,0.6-1.5,0.9
	c-0.2,0.1-0.3,0.3-0.2,0.6c0.1,0.2,0.3,0.3,0.6,0.2c0.8-0.3,1.3-0.6,1.8-1c0.4-0.4,0.7-0.9,0.7-1.4c0-0.5-0.2-1-0.6-1.5
	c-0.4-0.4-0.9-0.8-1.7-1.2C15.5,7,12.3,6.4,9.1,6.4c0.8-1,1.7-2,2.6-2.6c0.7-0.6,1.4-0.9,1.9-1.1c0.5-0.2,0.9-0.1,1.1,0
	c0.3,0.1,0.4,0.4,0.5,0.9c0.1,0.5,0.1,1.2-0.1,2.1c0,0.2,0.1,0.5,0.3,0.5c0.2,0,0.5-0.1,0.5-0.3c0.2-0.9,0.2-1.7,0.1-2.4
	s-0.5-1.2-1-1.5c-0.5-0.3-1.1-0.3-1.8-0.1c-0.7,0.2-1.4,0.6-2.2,1.2C10.1,4,9,5.1,8,6.4c-0.8,0-1.5,0.1-2.2,0.2
	C5.7,6.1,5.6,5.6,5.5,5.1c-0.1-0.8,0-1.5,0.1-2C5.8,2.7,6,2.4,6.3,2.3c0.5-0.2,1.3,0.1,2.4,0.9c0.2,0.2,0.5,0.2,0.6,0
	c0.2-0.2,0.1-0.5-0.1-0.6C8.1,1.6,7,1.2,6.1,1.5c-0.6,0.2-1,0.7-1.2,1.4C4.7,3.5,4.6,4.3,4.7,5.1c0,0.5,0.2,1,0.3,1.6
	C3.4,7,1,7.9,0.5,9.3c-0.2,0.6,0,1.2,0.3,1.7c0.4,0.5,1,1,1.8,1.4c0.2,0.1,0.5,0,0.6-0.2c0.1-0.2,0-0.5-0.2-0.6
	c-0.8-0.4-1.3-0.8-1.5-1.2c-0.3-0.4-0.3-0.6-0.2-0.9c0.6-1,2.2-1.7,3.8-2C5.3,8.2,5.6,9,5.9,9.7c-0.9,1.6-1.6,3.2-1.9,4.7
	c-0.2,1-0.3,1.8-0.1,2.5C3.9,17.2,4,17.5,4.1,17.7L4.1,17.7z M6.4,8.7C6.3,8.3,6.1,7.9,6,7.5c0.5-0.1,0.9-0.1,1.4-0.2
	C7,7.8,6.7,8.2,6.4,8.7L6.4,8.7L6.4,8.7z"/>
</svg>
